%
M48
M72
T01C0.0118
T02C0.0157
T03C0.0197
T04C0.0236
T05C0.0276
T06C0.0354
T07C0.0360
T08C0.0394
T09C0.0400
T10C0.0520
T11C0.0591
T12C0.0669
T13C0.1260
T14C0.1378
%
T01
X26037Y28037
X27226Y28601
X29037Y29537
X29537Y28537
X31037Y27787
X31287Y25787
X33064Y23635
X35037Y24662
X36037Y22412
X38037Y22537
X35664Y20412
X36537Y18537
X37037Y18537
X37537Y18537
X37787Y18850
X38037Y19100
X43037Y20162
X42537Y25412
X40162Y27912
X41787Y29537
X42287Y28912
X43037Y28912
X43912Y28912
X43912Y29537
X43912Y30287
X43912Y31037
X43037Y31037
X42537Y31537
X42537Y32162
X41787Y32537
X41787Y31537
X41787Y30537
X43350Y32787
X42662Y33412
X41787Y33537
X41787Y34537
X41787Y35537
X41787Y36537
X41787Y37662
X42537Y37662
X43537Y37662
X44787Y38037
X44787Y39037
X45662Y38537
X45662Y37287
X45662Y36037
X45662Y35037
X45662Y33912
X44787Y33912
X44287Y33287
X47287Y34412
X47912Y34412
X48037Y35037
X48037Y36037
X46912Y36537
X46912Y37037
X47662Y38537
X48912Y38537
X50037Y38537
X50912Y37912
X51537Y37287
X51537Y36537
X51537Y35787
X51537Y34787
X51537Y33787
X52037Y33287
X52287Y32537
X52287Y31537
X52287Y30537
X52287Y29537
X52287Y28537
X52287Y27537
X52287Y26537
X52287Y25662
X53412Y25662
X53412Y26537
X53412Y27537
X53412Y28537
X53412Y29537
X53412Y30537
X53412Y31537
X53412Y32537
X53412Y33537
X53412Y34537
X53412Y35537
X53412Y36537
X53412Y37537
X53412Y38537
X53412Y39537
X53412Y40537
X53412Y41537
X53412Y42537
X53412Y43537
X53412Y44537
X53412Y45537
X53412Y46537
X53412Y47537
X53412Y48287
X52537Y48287
X51537Y48287
X50537Y48287
X49537Y48287
X48537Y48287
X48537Y46912
X48037Y46537
X47662Y46912
X47537Y48287
X46350Y46912
X46100Y47537
X45537Y47537
X45537Y46912
X45475Y46412
X45475Y45912
X45537Y45412
X44787Y45412
X44787Y44537
X44787Y43537
X44787Y42787
X44787Y42037
X44787Y41037
X44787Y40037
X46412Y40037
X46412Y41037
X46412Y42037
X46412Y43037
X46412Y44037
X46412Y45412
X47662Y45412
X48037Y45787
X48537Y45412
X48787Y44537
X48787Y43662
X47662Y43037
X47662Y42037
X47662Y41037
X47662Y40037
X49537Y37037
X50412Y36287
X50412Y35037
X50412Y33912
X49412Y33912
X48412Y33912
X46037Y27537
X38162Y25162
X36287Y29412
X34162Y32412
X31787Y32287
X30787Y32287
X31787Y33287
X31787Y34287
X31787Y35287
X31287Y36287
X32037Y37662
X33037Y38287
X33787Y38787
X33787Y37537
X32287Y39037
X31287Y38537
X30537Y37537
X29537Y37037
X29537Y38287
X29537Y39287
X30350Y40100
X31100Y40850
X31975Y41662
X32787Y42037
X33787Y42037
X33787Y43287
X33037Y43287
X32287Y43287
X32287Y44037
X32662Y44662
X32662Y45662
X33037Y46037
X33787Y46037
X33787Y45037
X33787Y44037
X35287Y44537
X35287Y45537
X35537Y46287
X35287Y47287
X36037Y47287
X36537Y46787
X36537Y45787
X36537Y44787
X36537Y43787
X36287Y43287
X36537Y42662
X36287Y42037
X36287Y41037
X36787Y40537
X36287Y40037
X36287Y39037
X37037Y38787
X38037Y38787
X38912Y38412
X39787Y38412
X40162Y38912
X40787Y39537
X40787Y40537
X40787Y41537
X40787Y42537
X40787Y43537
X40787Y44537
X40787Y45537
X40787Y46537
X41537Y46912
X41537Y47537
X40537Y47537
X39537Y47537
X38662Y47537
X37850Y48100
X37662Y48287
X37475Y48100
X37475Y48475
X37850Y48475
X38787Y46537
X39287Y46037
X38537Y45037
X38537Y44037
X38537Y43162
X38537Y42412
X39537Y41662
X39537Y41162
X37787Y40537
X35162Y41662
X35162Y42037
X35287Y43287
X33787Y41037
X33787Y40037
X30287Y42662
X33037Y47037
X33787Y47037
X33787Y48037
X33037Y48037
X33537Y49037
X34537Y49037
X35537Y49037
X37537Y50787
X37787Y52287
X37162Y52287
X36412Y52287
X35537Y52037
X34537Y52037
X33537Y52037
X32537Y52037
X31537Y52037
X30537Y52037
X30162Y52662
X30537Y53412
X31537Y53412
X32537Y53412
X33537Y53412
X34537Y53412
X35537Y53412
X36412Y53412
X37537Y53412
X38537Y53412
X38537Y52912
X38412Y52287
X39537Y52912
X39537Y53412
X40537Y53412
X40537Y52912
X41537Y53412
X42537Y53412
X43537Y53412
X44537Y53412
X45537Y53412
X46537Y53412
X47537Y53412
X48412Y53412
X48412Y52537
X48412Y51537
X48412Y50537
X48412Y49537
X46537Y49037
X45537Y49037
X45537Y49537
X44912Y50037
X44287Y49537
X43662Y50037
X43287Y49537
X42662Y50037
X41912Y50037
X41162Y50037
X41162Y50912
X41787Y51537
X41787Y52287
X42537Y47537
X42537Y46912
X43537Y46912
X43537Y47537
X44537Y47537
X44537Y46912
X43662Y43537
X43662Y43287
X29537Y36037
X29537Y35037
X29537Y34037
X29537Y33037
X29537Y32287
X24162Y28912
X22162Y29287
X22037Y30537
X28600Y25475
T02
X33662Y27662
X34162Y27662
X34537Y25912
X38537Y30037
X38537Y30537
X38537Y31037
X38537Y31537
X39037Y33037
X39037Y33537
X38287Y35537
X38537Y36037
X38162Y36162
X38412Y36912
X39037Y36537
X39037Y35787
X34787Y35287
X34787Y34912
X34412Y34912
X34412Y34537
X34412Y34162
X34412Y33787
X34037Y33787
X33662Y33787
X33287Y33787
X33287Y34162
X33287Y34537
X33287Y34912
X33287Y35287
X33662Y35287
X33662Y34912
X33662Y34537
X33662Y34162
X34037Y34162
X34037Y34537
X34037Y34912
X34037Y35287
X34412Y35287
X34787Y34537
X34787Y34162
X34787Y33787
X45287Y30787
X45287Y30412
X45287Y30037
X45287Y29662
X45287Y29287
X45662Y29287
X45662Y29662
X46037Y29662
X46037Y29287
X46412Y29287
X46787Y29287
X46787Y29662
X46412Y29662
X46412Y30037
X46037Y30037
X45662Y30037
X45662Y30412
X46037Y30412
X46037Y30787
X45662Y30787
X46412Y30787
X46412Y30412
X46787Y30412
X46787Y30037
X46787Y30787
X50037Y27537
X50037Y27037
X50037Y26537
X50037Y26037
X50537Y29037
X51037Y29037
X51037Y29537
X50537Y29537
X50537Y32037
X51037Y32037
X51037Y32537
X38475Y19850
X38037Y20037
X32100Y19037
X31725Y19037
X23037Y22537
X22537Y22537
X22537Y23037
X23037Y23037
X36662Y47787
X36225Y48662
X37225Y49350
T03
X34100Y30850
X32725Y28225
X32725Y27850
X32350Y27850
X32350Y28225
X44850Y26850
T04
X45037Y24537
X42537Y24037
X42537Y23537
X42537Y23037
X40225Y21412
X33225Y18850
X29912Y23162
X27537Y31537
X27537Y32037
X27537Y32537
X27537Y33037
X25037Y37537
X24037Y37537
X23037Y37537
X23037Y38537
X23037Y39537
X23537Y41537
X24037Y41537
X24037Y42037
X23537Y42037
X23537Y42537
X24037Y42537
X24537Y42537
X24537Y42037
X24537Y41537
X25037Y41537
X25537Y41537
X25537Y42037
X25037Y42037
X25037Y42537
X25537Y42537
X26037Y42537
X26037Y42037
X26037Y41537
X29662Y41225
X28912Y46537
X26037Y48037
X25037Y48037
X24037Y48037
X23037Y48037
X23037Y47037
X23037Y46037
X23037Y45037
T05
X42037Y19662
X42537Y19662
X43037Y19662
X43537Y19662
X44037Y19662
X44037Y17662
X43537Y17662
X43037Y17662
X42537Y17662
X42037Y17662
T06
X29037Y21037
X28037Y21037
X27037Y21037
T07
X35291Y19720
X35291Y18720
X31912Y46787
X31912Y47787
T08
X31912Y31537
X39037Y28537
T09
X21072Y29033
X20072Y29033
X20072Y28033
X20072Y27033
X21072Y27033
X21072Y28033
X21072Y26033
X20072Y26033
X20072Y25033
X21072Y25033
X21072Y24033
X20072Y24033
X20072Y23033
X21072Y23033
X21072Y30033
X20072Y30033
X20072Y31033
X21072Y31033
X21072Y32033
X20072Y32033
X20072Y33033
X20072Y34033
X21072Y34033
X21072Y33033
X21072Y35033
X20072Y35033
X20072Y36033
X21072Y36033
X21072Y37033
X20072Y37033
X20072Y38033
X20072Y39033
X21072Y39033
X21072Y38033
X21072Y40033
X20072Y40033
X20072Y41033
X21072Y41033
X21072Y42033
X20072Y42033
X20072Y43033
X20072Y44033
X21072Y44033
X21072Y43033
X21072Y45033
X20072Y45033
X20072Y46033
X21072Y46033
X21072Y47033
X20072Y47033
X20072Y48033
X21072Y48033
X18537Y44037
X18537Y43037
X18537Y42037
T10
X43537Y39537
T11
X50912Y46162
T12
X49912Y45162
X49912Y47162
X51912Y47162
X51912Y45162
T13
X50494Y50494
X50494Y20572
X20572Y20572
X20572Y50494
T14
X2069Y2069
X2069Y68998
X68998Y68998
X68998Y2069
M30
