G75*
%MOIN*%
%OFA0B0*%
%FSLAX24Y24*%
%IPPOS*%
%LPD*%
%AMOC8*
5,1,8,0,0,1.08239X$1,22.5*
%
%ADD10C,0.0886*%
%ADD11C,0.1004*%
%ADD12C,0.0413*%
%ADD13R,0.0276X0.0433*%
%ADD14C,0.0600*%
%ADD15C,0.2300*%
%ADD16C,0.0531*%
%ADD17C,0.0660*%
%ADD18C,0.0850*%
%ADD19C,0.0740*%
%ADD20C,0.0257*%
%ADD21C,0.0354*%
%ADD22C,0.0039*%
%ADD23C,0.0297*%
%ADD24C,0.0160*%
%ADD25C,0.0120*%
%ADD26C,0.0218*%
%ADD27C,0.0240*%
%ADD28C,0.0100*%
%ADD29C,0.0320*%
%ADD30C,0.0591*%
%ADD31C,0.0400*%
D10*
X050912Y046162D03*
D11*
X049912Y045162D03*
X049912Y047162D03*
X051912Y047162D03*
X051912Y045162D03*
D12*
X044037Y019662D03*
X043537Y019662D03*
X043037Y019662D03*
X042537Y019662D03*
X042037Y019662D03*
X042037Y017662D03*
X042537Y017662D03*
X043037Y017662D03*
X043537Y017662D03*
X044037Y017662D03*
D13*
X035520Y022350D03*
X034929Y022350D03*
D14*
X021072Y023033D03*
X020072Y023033D03*
X020072Y024033D03*
X021072Y024033D03*
X021072Y025033D03*
X020072Y025033D03*
X020072Y026033D03*
X021072Y026033D03*
X021072Y027033D03*
X020072Y027033D03*
X020072Y028033D03*
X020072Y029033D03*
X021072Y029033D03*
X021072Y028033D03*
X021072Y030033D03*
X020072Y030033D03*
X020072Y031033D03*
X021072Y031033D03*
X021072Y032033D03*
X020072Y032033D03*
X020072Y033033D03*
X020072Y034033D03*
X021072Y034033D03*
X021072Y033033D03*
X021072Y035033D03*
X020072Y035033D03*
X020072Y036033D03*
X021072Y036033D03*
X021072Y037033D03*
X020072Y037033D03*
X020072Y038033D03*
X020072Y039033D03*
X021072Y039033D03*
X021072Y038033D03*
X021072Y040033D03*
X020072Y040033D03*
X020072Y041033D03*
X021072Y041033D03*
X021072Y042033D03*
X020072Y042033D03*
X020072Y043033D03*
X020072Y044033D03*
X021072Y044033D03*
X021072Y043033D03*
X021072Y045033D03*
X020072Y045033D03*
X020072Y046033D03*
X021072Y046033D03*
X021072Y047033D03*
X020072Y047033D03*
X020072Y048033D03*
X021072Y048033D03*
D15*
X020572Y050494D03*
X020572Y020572D03*
X050494Y020572D03*
X050494Y050494D03*
D16*
X029037Y021303D02*
X029037Y020771D01*
X028037Y020771D02*
X028037Y021303D01*
X027037Y021303D02*
X027037Y020771D01*
D17*
X035291Y019720D03*
X035291Y018720D03*
X031912Y046787D03*
X031912Y047787D03*
D18*
X043537Y039537D03*
D19*
X018537Y042037D03*
X018537Y043037D03*
X018537Y044037D03*
D20*
X033287Y035287D03*
X033287Y034912D03*
X033287Y034537D03*
X033287Y034162D03*
X033287Y033787D03*
X033662Y033787D03*
X034037Y033787D03*
X034037Y034162D03*
X033662Y034162D03*
X033662Y034537D03*
X034037Y034537D03*
X034037Y034912D03*
X033662Y034912D03*
X033662Y035287D03*
X034037Y035287D03*
X034412Y035287D03*
X034412Y034912D03*
X034412Y034537D03*
X034412Y034162D03*
X034412Y033787D03*
X034787Y033787D03*
X034787Y034162D03*
X034787Y034537D03*
X034787Y034912D03*
X034787Y035287D03*
X038162Y036162D03*
X038537Y036037D03*
X038287Y035537D03*
X039037Y035787D03*
X039037Y036537D03*
X038412Y036912D03*
X039037Y033537D03*
X039037Y033037D03*
X038537Y031537D03*
X038537Y031037D03*
X038537Y030537D03*
X038537Y030037D03*
X034162Y027662D03*
X033662Y027662D03*
X034537Y025912D03*
X038037Y020037D03*
X038475Y019850D03*
X032100Y019037D03*
X031725Y019037D03*
X023037Y022537D03*
X022537Y022537D03*
X022537Y023037D03*
X023037Y023037D03*
X045287Y029287D03*
X045287Y029662D03*
X045287Y030037D03*
X045287Y030412D03*
X045287Y030787D03*
X045662Y030787D03*
X045662Y030412D03*
X045662Y030037D03*
X045662Y029662D03*
X045662Y029287D03*
X046037Y029287D03*
X046037Y029662D03*
X046037Y030037D03*
X046037Y030412D03*
X046037Y030787D03*
X046412Y030787D03*
X046412Y030412D03*
X046412Y030037D03*
X046412Y029662D03*
X046412Y029287D03*
X046787Y029287D03*
X046787Y029662D03*
X046787Y030037D03*
X046787Y030412D03*
X046787Y030787D03*
X050037Y027537D03*
X050037Y027037D03*
X050037Y026537D03*
X050037Y026037D03*
X050537Y029037D03*
X051037Y029037D03*
X051037Y029537D03*
X050537Y029537D03*
X050537Y032037D03*
X051037Y032037D03*
X051037Y032537D03*
X036662Y047787D03*
X036225Y048662D03*
X037225Y049350D03*
D21*
X029662Y041225D03*
X026037Y041537D03*
X025537Y041537D03*
X025037Y041537D03*
X024537Y041537D03*
X024037Y041537D03*
X023537Y041537D03*
X023537Y042037D03*
X023537Y042537D03*
X024037Y042537D03*
X024037Y042037D03*
X024537Y042037D03*
X024537Y042537D03*
X025037Y042537D03*
X025037Y042037D03*
X025537Y042037D03*
X025537Y042537D03*
X026037Y042537D03*
X026037Y042037D03*
X023037Y039537D03*
X023037Y038537D03*
X023037Y037537D03*
X024037Y037537D03*
X025037Y037537D03*
X027537Y033037D03*
X027537Y032537D03*
X027537Y032037D03*
X027537Y031537D03*
X029912Y023162D03*
X033225Y018850D03*
X040225Y021412D03*
X042537Y023037D03*
X042537Y023537D03*
X042537Y024037D03*
X045037Y024537D03*
X028912Y046537D03*
X026037Y048037D03*
X025037Y048037D03*
X024037Y048037D03*
X023037Y048037D03*
X023037Y047037D03*
X023037Y046037D03*
X023037Y045037D03*
D22*
X017687Y017666D02*
X036970Y017666D01*
X036932Y017704D02*
X017649Y017704D01*
X017611Y017742D02*
X036895Y017742D01*
X036857Y017779D02*
X017587Y017779D01*
X017606Y017747D02*
X017507Y017919D01*
X017455Y018111D01*
X017449Y018210D01*
X017449Y034514D01*
X017448Y034515D01*
X017448Y036551D01*
X017449Y036552D01*
X017449Y050494D01*
X017455Y050593D01*
X017507Y050785D01*
X017606Y050957D01*
X017747Y051098D01*
X017919Y051197D01*
X018111Y051249D01*
X018210Y051255D01*
X018928Y051255D01*
X018928Y048890D01*
X018969Y048849D01*
X022176Y048849D01*
X022217Y048890D01*
X022217Y049917D01*
X022380Y049798D01*
X022743Y049680D01*
X025488Y049680D01*
X025852Y049798D01*
X025852Y049798D01*
X026161Y050023D01*
X026386Y050333D01*
X026504Y050696D01*
X026504Y053617D01*
X034514Y053617D01*
X034515Y053618D01*
X036551Y053618D01*
X036552Y053617D01*
X052856Y053617D01*
X052955Y053611D01*
X053147Y053559D01*
X053319Y053460D01*
X053460Y053319D01*
X053559Y053147D01*
X053611Y052955D01*
X053617Y052856D01*
X053617Y036552D01*
X053618Y036551D01*
X053618Y034515D01*
X053617Y034514D01*
X053617Y020572D01*
X053611Y020473D01*
X053559Y020281D01*
X053460Y020109D01*
X053319Y019968D01*
X053147Y019869D01*
X052955Y019818D01*
X052856Y019811D01*
X052138Y019811D01*
X052138Y022176D01*
X052097Y022217D01*
X048890Y022217D01*
X048849Y022176D01*
X048849Y021149D01*
X048686Y021268D01*
X048323Y021386D01*
X045578Y021386D01*
X045214Y021268D01*
X044905Y021043D01*
X044905Y021043D01*
X044905Y021043D01*
X044680Y020734D01*
X044562Y020370D01*
X044562Y017449D01*
X043954Y017449D01*
X044003Y017569D01*
X044003Y017755D01*
X043932Y017926D01*
X043801Y018057D01*
X043743Y018081D01*
X042925Y018900D01*
X042837Y018987D01*
X042724Y019034D01*
X041660Y019034D01*
X041800Y019174D01*
X041828Y019244D01*
X041944Y019196D01*
X042130Y019196D01*
X042287Y019261D01*
X042444Y019196D01*
X042630Y019196D01*
X042787Y019261D01*
X042944Y019196D01*
X043130Y019196D01*
X043287Y019261D01*
X043444Y019196D01*
X043630Y019196D01*
X043787Y019261D01*
X043944Y019196D01*
X044130Y019196D01*
X044301Y019267D01*
X044432Y019398D01*
X044503Y019569D01*
X044503Y019755D01*
X044432Y019926D01*
X044301Y020057D01*
X044130Y020128D01*
X043944Y020128D01*
X043787Y020063D01*
X043630Y020128D01*
X043444Y020128D01*
X043406Y020112D01*
X043406Y020235D01*
X043350Y020371D01*
X043246Y020475D01*
X043110Y020531D01*
X042964Y020531D01*
X042828Y020475D01*
X042825Y020472D01*
X041600Y020472D01*
X041487Y020425D01*
X041274Y020212D01*
X041227Y020099D01*
X041227Y019478D01*
X041159Y019409D01*
X038249Y019409D01*
X038246Y019412D01*
X038110Y019468D01*
X037964Y019468D01*
X037828Y019412D01*
X037724Y019308D01*
X037682Y019205D01*
X037578Y019162D01*
X037474Y019058D01*
X037418Y018923D01*
X037418Y018887D01*
X037328Y018850D01*
X037287Y018808D01*
X037246Y018850D01*
X037110Y018906D01*
X036964Y018906D01*
X036828Y018850D01*
X036787Y018808D01*
X036746Y018850D01*
X036610Y018906D01*
X036464Y018906D01*
X036328Y018850D01*
X036224Y018746D01*
X036168Y018610D01*
X036168Y018464D01*
X036224Y018328D01*
X036328Y018224D01*
X036464Y018168D01*
X036468Y018168D01*
X037187Y017449D01*
X036552Y017449D01*
X036551Y017448D01*
X034515Y017448D01*
X034514Y017449D01*
X018210Y017449D01*
X018111Y017455D01*
X017919Y017507D01*
X017747Y017606D01*
X017606Y017747D01*
X017565Y017817D02*
X036819Y017817D01*
X036781Y017855D02*
X017544Y017855D01*
X017522Y017893D02*
X036743Y017893D01*
X036705Y017931D02*
X017504Y017931D01*
X017493Y017969D02*
X036667Y017969D01*
X036629Y018007D02*
X017483Y018007D01*
X017473Y018045D02*
X036592Y018045D01*
X036554Y018082D02*
X017463Y018082D01*
X017455Y018120D02*
X036516Y018120D01*
X036478Y018158D02*
X017452Y018158D01*
X017450Y018196D02*
X036397Y018196D01*
X036319Y018234D02*
X017449Y018234D01*
X017449Y018272D02*
X036281Y018272D01*
X036243Y018310D02*
X017449Y018310D01*
X017449Y018347D02*
X036216Y018347D01*
X036201Y018385D02*
X017449Y018385D01*
X017449Y018423D02*
X036185Y018423D01*
X036169Y018461D02*
X017449Y018461D01*
X017449Y018499D02*
X036168Y018499D01*
X036168Y018537D02*
X017449Y018537D01*
X017449Y018575D02*
X036168Y018575D01*
X036169Y018613D02*
X017449Y018613D01*
X017449Y018650D02*
X036185Y018650D01*
X036201Y018688D02*
X017449Y018688D01*
X017449Y018726D02*
X036216Y018726D01*
X036243Y018764D02*
X017449Y018764D01*
X017449Y018802D02*
X036280Y018802D01*
X036318Y018840D02*
X017449Y018840D01*
X017449Y018878D02*
X036396Y018878D01*
X036678Y018878D02*
X036896Y018878D01*
X036818Y018840D02*
X036756Y018840D01*
X037178Y018878D02*
X037396Y018878D01*
X037418Y018916D02*
X017449Y018916D01*
X017449Y018953D02*
X018943Y018953D01*
X018928Y018969D02*
X018969Y018928D01*
X022176Y018928D01*
X022217Y018969D01*
X022217Y019027D01*
X022217Y022118D01*
X022217Y022176D01*
X022176Y022217D01*
X018969Y022217D01*
X018928Y022176D01*
X018928Y018969D01*
X018928Y018991D02*
X017449Y018991D01*
X017449Y019029D02*
X018928Y019029D01*
X018928Y019067D02*
X017449Y019067D01*
X017449Y019105D02*
X018928Y019105D01*
X018928Y019143D02*
X017449Y019143D01*
X017449Y019181D02*
X018928Y019181D01*
X018928Y019218D02*
X017449Y019218D01*
X017449Y019256D02*
X018928Y019256D01*
X018928Y019294D02*
X017449Y019294D01*
X017449Y019332D02*
X018928Y019332D01*
X018928Y019370D02*
X017449Y019370D01*
X017449Y019408D02*
X018928Y019408D01*
X018928Y019446D02*
X017449Y019446D01*
X017449Y019484D02*
X018928Y019484D01*
X018928Y019521D02*
X017449Y019521D01*
X017449Y019559D02*
X018928Y019559D01*
X018928Y019597D02*
X017449Y019597D01*
X017449Y019635D02*
X018928Y019635D01*
X018928Y019673D02*
X017449Y019673D01*
X017449Y019711D02*
X018928Y019711D01*
X018928Y019749D02*
X017449Y019749D01*
X017449Y019787D02*
X018928Y019787D01*
X018928Y019824D02*
X017449Y019824D01*
X017449Y019862D02*
X018928Y019862D01*
X018928Y019900D02*
X017449Y019900D01*
X017449Y019938D02*
X018928Y019938D01*
X018928Y019976D02*
X017449Y019976D01*
X017449Y020014D02*
X018928Y020014D01*
X018928Y020052D02*
X017449Y020052D01*
X017449Y020090D02*
X018928Y020090D01*
X018928Y020127D02*
X017449Y020127D01*
X017449Y020165D02*
X018928Y020165D01*
X018928Y020203D02*
X017449Y020203D01*
X017449Y020241D02*
X018928Y020241D01*
X018928Y020279D02*
X017449Y020279D01*
X017449Y020317D02*
X018928Y020317D01*
X018928Y020355D02*
X017449Y020355D01*
X017449Y020392D02*
X018928Y020392D01*
X018928Y020430D02*
X017449Y020430D01*
X017449Y020468D02*
X018928Y020468D01*
X018928Y020506D02*
X017449Y020506D01*
X017449Y020544D02*
X018928Y020544D01*
X018928Y020582D02*
X017449Y020582D01*
X017449Y020620D02*
X018928Y020620D01*
X018928Y020658D02*
X017449Y020658D01*
X017449Y020695D02*
X018928Y020695D01*
X018928Y020733D02*
X017449Y020733D01*
X017449Y020771D02*
X018928Y020771D01*
X018928Y020809D02*
X017449Y020809D01*
X017449Y020847D02*
X018928Y020847D01*
X018928Y020885D02*
X017449Y020885D01*
X017449Y020923D02*
X018928Y020923D01*
X018928Y020961D02*
X017449Y020961D01*
X017449Y020998D02*
X018928Y020998D01*
X018928Y021036D02*
X017449Y021036D01*
X017449Y021074D02*
X018928Y021074D01*
X018928Y021112D02*
X017449Y021112D01*
X017449Y021150D02*
X018928Y021150D01*
X018928Y021188D02*
X017449Y021188D01*
X017449Y021226D02*
X018928Y021226D01*
X018928Y021263D02*
X017449Y021263D01*
X017449Y021301D02*
X018928Y021301D01*
X018928Y021339D02*
X017449Y021339D01*
X017449Y021377D02*
X018928Y021377D01*
X018928Y021415D02*
X017449Y021415D01*
X017449Y021453D02*
X018928Y021453D01*
X018928Y021491D02*
X017449Y021491D01*
X017449Y021529D02*
X018928Y021529D01*
X018928Y021566D02*
X017449Y021566D01*
X017449Y021604D02*
X018928Y021604D01*
X018928Y021642D02*
X017449Y021642D01*
X017449Y021680D02*
X018928Y021680D01*
X018928Y021718D02*
X017449Y021718D01*
X017449Y021756D02*
X018928Y021756D01*
X018928Y021794D02*
X017449Y021794D01*
X017449Y021832D02*
X018928Y021832D01*
X018928Y021869D02*
X017449Y021869D01*
X017449Y021907D02*
X018928Y021907D01*
X018928Y021945D02*
X017449Y021945D01*
X017449Y021983D02*
X018928Y021983D01*
X018928Y022021D02*
X017449Y022021D01*
X017449Y022059D02*
X018928Y022059D01*
X018928Y022097D02*
X017449Y022097D01*
X017449Y022135D02*
X018928Y022135D01*
X018928Y022172D02*
X017449Y022172D01*
X017449Y022210D02*
X018962Y022210D01*
X017449Y022248D02*
X031279Y022248D01*
X031315Y022210D02*
X022183Y022210D01*
X022217Y022172D02*
X031351Y022172D01*
X031388Y022135D02*
X022217Y022135D01*
X022217Y022097D02*
X031424Y022097D01*
X031461Y022059D02*
X022217Y022059D01*
X022217Y022021D02*
X031497Y022021D01*
X031534Y021983D02*
X022217Y021983D01*
X022217Y021945D02*
X031570Y021945D01*
X031607Y021907D02*
X022217Y021907D01*
X022217Y021869D02*
X031643Y021869D01*
X031648Y021864D02*
X031649Y021862D01*
X031691Y021820D01*
X031732Y021778D01*
X031734Y021777D01*
X031987Y021524D01*
X032100Y021477D01*
X036349Y021477D01*
X036462Y021524D01*
X036550Y021612D01*
X037165Y022227D01*
X037825Y022227D01*
X037828Y022224D01*
X037964Y022168D01*
X038110Y022168D01*
X038246Y022224D01*
X038350Y022328D01*
X038406Y022464D01*
X038406Y022610D01*
X038350Y022746D01*
X038246Y022850D01*
X038110Y022906D01*
X037964Y022906D01*
X037828Y022850D01*
X037825Y022847D01*
X036975Y022847D01*
X036862Y022800D01*
X036774Y022712D01*
X036406Y022344D01*
X036406Y022485D01*
X036350Y022621D01*
X036246Y022725D01*
X036110Y022781D01*
X035964Y022781D01*
X035855Y022736D01*
X035805Y022786D01*
X035748Y022810D01*
X036165Y023227D01*
X037974Y023227D01*
X038087Y023274D01*
X038665Y023852D01*
X039724Y023852D01*
X039837Y023899D01*
X039925Y023987D01*
X040665Y024727D01*
X042349Y024727D01*
X042462Y024774D01*
X042550Y024862D01*
X042800Y025112D01*
X042829Y025182D01*
X042850Y025203D01*
X042906Y025339D01*
X042906Y025485D01*
X042850Y025621D01*
X042746Y025725D01*
X042610Y025781D01*
X042464Y025781D01*
X042328Y025725D01*
X042224Y025621D01*
X042168Y025485D01*
X042168Y025356D01*
X042159Y025347D01*
X040475Y025347D01*
X040362Y025300D01*
X039534Y024472D01*
X038475Y024472D01*
X038362Y024425D01*
X037784Y023847D01*
X035975Y023847D01*
X035862Y023800D01*
X035284Y023222D01*
X033625Y023222D01*
X033601Y023232D01*
X032297Y023232D01*
X032180Y023352D01*
X032825Y023352D01*
X032855Y023323D01*
X032990Y023267D01*
X033137Y023267D01*
X033272Y023323D01*
X033376Y023427D01*
X033432Y023562D01*
X033432Y023709D01*
X033376Y023844D01*
X033272Y023948D01*
X033137Y024004D01*
X032990Y024004D01*
X032912Y023972D01*
X032045Y023972D01*
X029418Y026740D01*
X029472Y026718D01*
X029473Y026718D01*
X029473Y026717D01*
X029536Y026717D01*
X029599Y026717D01*
X029600Y026717D01*
X029905Y026717D01*
X029440Y026717D01*
X029476Y026679D02*
X029943Y026679D01*
X029981Y026641D02*
X029512Y026641D01*
X029548Y026603D02*
X030019Y026603D01*
X030057Y026565D02*
X029584Y026565D01*
X029620Y026527D02*
X030094Y026527D01*
X030132Y026490D02*
X029656Y026490D01*
X029692Y026452D02*
X030170Y026452D01*
X030208Y026414D02*
X029728Y026414D01*
X029763Y026376D02*
X030246Y026376D01*
X030284Y026338D02*
X029799Y026338D01*
X029835Y026300D02*
X030322Y026300D01*
X030360Y026262D02*
X029871Y026262D01*
X029907Y026225D02*
X030397Y026225D01*
X030435Y026187D02*
X029943Y026187D01*
X029979Y026149D02*
X030473Y026149D01*
X030511Y026111D02*
X030015Y026111D01*
X030051Y026073D02*
X030549Y026073D01*
X030587Y026035D02*
X030087Y026035D01*
X030123Y025997D02*
X030625Y025997D01*
X030663Y025959D02*
X030159Y025959D01*
X030195Y025922D02*
X030700Y025922D01*
X030738Y025884D02*
X030231Y025884D01*
X030267Y025846D02*
X030776Y025846D01*
X030814Y025808D02*
X030303Y025808D01*
X030338Y025770D02*
X030852Y025770D01*
X030890Y025732D02*
X030374Y025732D01*
X030410Y025694D02*
X030926Y025694D01*
X030925Y025697D02*
X030974Y025578D01*
X031078Y025474D01*
X031214Y025418D01*
X031360Y025418D01*
X031496Y025474D01*
X031600Y025578D01*
X031656Y025714D01*
X031656Y025860D01*
X031600Y025996D01*
X031496Y026100D01*
X031377Y026149D01*
X034224Y026149D01*
X034227Y026152D02*
X034208Y026132D01*
X034149Y025989D01*
X034149Y025835D01*
X034208Y025692D01*
X034317Y025583D01*
X034460Y025524D01*
X034614Y025524D01*
X034727Y025570D01*
X034727Y024874D01*
X034724Y024871D01*
X034668Y024735D01*
X034668Y024589D01*
X034724Y024453D01*
X034828Y024349D01*
X034964Y024293D01*
X035110Y024293D01*
X035246Y024349D01*
X035350Y024453D01*
X035406Y024589D01*
X035406Y024735D01*
X035350Y024871D01*
X035347Y024874D01*
X035347Y026725D01*
X035347Y026849D01*
X035300Y026962D01*
X034550Y027712D01*
X034550Y027739D01*
X034491Y027882D01*
X034382Y027991D01*
X034239Y028050D01*
X034085Y028050D01*
X033942Y027991D01*
X033912Y027961D01*
X033882Y027991D01*
X033739Y028050D01*
X033585Y028050D01*
X033442Y027991D01*
X033333Y027882D01*
X033274Y027739D01*
X033274Y027585D01*
X033333Y027442D01*
X033442Y027333D01*
X033585Y027274D01*
X033612Y027274D01*
X034227Y026659D01*
X034227Y026152D01*
X034227Y026187D02*
X031339Y026187D01*
X031302Y026225D02*
X034227Y026225D01*
X034227Y026262D02*
X031264Y026262D01*
X031226Y026300D02*
X034227Y026300D01*
X034227Y026338D02*
X031188Y026338D01*
X031150Y026376D02*
X034227Y026376D01*
X034227Y026414D02*
X031112Y026414D01*
X031074Y026452D02*
X034227Y026452D01*
X034227Y026490D02*
X031037Y026490D01*
X030999Y026527D02*
X034227Y026527D01*
X034227Y026565D02*
X030961Y026565D01*
X030923Y026603D02*
X034227Y026603D01*
X034227Y026641D02*
X030885Y026641D01*
X030847Y026679D02*
X034207Y026679D01*
X034169Y026717D02*
X030809Y026717D01*
X030771Y026755D02*
X034131Y026755D01*
X034093Y026793D02*
X030734Y026793D01*
X030696Y026830D02*
X034056Y026830D01*
X034018Y026868D02*
X030658Y026868D01*
X030620Y026906D02*
X033980Y026906D01*
X033942Y026944D02*
X030582Y026944D01*
X030544Y026982D02*
X033904Y026982D01*
X033866Y027020D02*
X030506Y027020D01*
X030468Y027058D02*
X033828Y027058D01*
X033791Y027096D02*
X030431Y027096D01*
X030393Y027133D02*
X033753Y027133D01*
X033715Y027171D02*
X030355Y027171D01*
X030317Y027209D02*
X033677Y027209D01*
X033639Y027247D02*
X030279Y027247D01*
X030308Y027218D02*
X030218Y027308D01*
X030135Y027342D01*
X030226Y027342D01*
X030343Y027391D01*
X030419Y027467D01*
X030845Y027467D01*
X030964Y027418D01*
X031110Y027418D01*
X031246Y027474D01*
X031350Y027578D01*
X031406Y027714D01*
X031406Y027860D01*
X031350Y027996D01*
X031246Y028100D01*
X031110Y028156D01*
X030964Y028156D01*
X030845Y028107D01*
X030223Y028107D01*
X030106Y028058D01*
X030030Y027982D01*
X029670Y027982D01*
X029485Y028168D01*
X029610Y028168D01*
X029746Y028224D01*
X029850Y028328D01*
X029906Y028464D01*
X029906Y028610D01*
X034314Y028610D01*
X034351Y028572D02*
X029906Y028572D01*
X029906Y028535D02*
X034389Y028535D01*
X034427Y028497D02*
X029906Y028497D01*
X029904Y028459D02*
X034465Y028459D01*
X034503Y028421D02*
X029888Y028421D01*
X029872Y028383D02*
X034541Y028383D01*
X034579Y028345D02*
X029857Y028345D01*
X029829Y028307D02*
X034617Y028307D01*
X034654Y028269D02*
X029791Y028269D01*
X029753Y028232D02*
X034692Y028232D01*
X034730Y028194D02*
X029672Y028194D01*
X029573Y028080D02*
X030159Y028080D01*
X030090Y028042D02*
X029610Y028042D01*
X029648Y028004D02*
X030052Y028004D01*
X029535Y028118D02*
X030873Y028118D01*
X031201Y028118D02*
X034806Y028118D01*
X034844Y028080D02*
X031265Y028080D01*
X031303Y028042D02*
X033565Y028042D01*
X033474Y028004D02*
X031341Y028004D01*
X031362Y027967D02*
X033417Y027967D01*
X033379Y027929D02*
X031377Y027929D01*
X031393Y027891D02*
X033341Y027891D01*
X033321Y027853D02*
X031406Y027853D01*
X031406Y027815D02*
X033305Y027815D01*
X033289Y027777D02*
X031406Y027777D01*
X031406Y027739D02*
X033274Y027739D01*
X033274Y027701D02*
X031401Y027701D01*
X031385Y027664D02*
X033274Y027664D01*
X033274Y027626D02*
X031369Y027626D01*
X031354Y027588D02*
X033274Y027588D01*
X033288Y027550D02*
X031321Y027550D01*
X031284Y027512D02*
X033304Y027512D01*
X033319Y027474D02*
X031245Y027474D01*
X031154Y027436D02*
X033338Y027436D01*
X033376Y027398D02*
X030351Y027398D01*
X030388Y027436D02*
X030920Y027436D01*
X030308Y027218D02*
X031377Y026149D01*
X031469Y026111D02*
X034199Y026111D01*
X034183Y026073D02*
X031522Y026073D01*
X031560Y026035D02*
X034168Y026035D01*
X034152Y025997D02*
X031598Y025997D01*
X031615Y025959D02*
X034149Y025959D01*
X034149Y025922D02*
X031630Y025922D01*
X031646Y025884D02*
X034149Y025884D01*
X034149Y025846D02*
X031656Y025846D01*
X031656Y025808D02*
X034160Y025808D01*
X034175Y025770D02*
X031656Y025770D01*
X031656Y025732D02*
X034191Y025732D01*
X034207Y025694D02*
X031648Y025694D01*
X031632Y025656D02*
X034243Y025656D01*
X034281Y025619D02*
X031616Y025619D01*
X031601Y025581D02*
X034322Y025581D01*
X034413Y025543D02*
X031564Y025543D01*
X031526Y025505D02*
X034727Y025505D01*
X034727Y025543D02*
X034661Y025543D01*
X034727Y025467D02*
X031478Y025467D01*
X031387Y025429D02*
X034727Y025429D01*
X034727Y025391D02*
X030698Y025391D01*
X030734Y025353D02*
X034727Y025353D01*
X034727Y025316D02*
X030770Y025316D01*
X030806Y025278D02*
X034727Y025278D01*
X034727Y025240D02*
X030842Y025240D01*
X030878Y025202D02*
X034727Y025202D01*
X034727Y025164D02*
X030913Y025164D01*
X030949Y025126D02*
X034727Y025126D01*
X034727Y025088D02*
X030985Y025088D01*
X031021Y025051D02*
X034727Y025051D01*
X034727Y025013D02*
X031057Y025013D01*
X031093Y024975D02*
X034727Y024975D01*
X034727Y024937D02*
X031129Y024937D01*
X031165Y024899D02*
X034727Y024899D01*
X034720Y024861D02*
X031201Y024861D01*
X031237Y024823D02*
X034705Y024823D01*
X034689Y024785D02*
X031273Y024785D01*
X031309Y024748D02*
X034673Y024748D01*
X034668Y024710D02*
X031345Y024710D01*
X031381Y024672D02*
X034668Y024672D01*
X034668Y024634D02*
X031417Y024634D01*
X031453Y024596D02*
X034668Y024596D01*
X034681Y024558D02*
X031488Y024558D01*
X031524Y024520D02*
X034697Y024520D01*
X034712Y024482D02*
X031560Y024482D01*
X031596Y024445D02*
X034733Y024445D01*
X034771Y024407D02*
X031632Y024407D01*
X031668Y024369D02*
X034809Y024369D01*
X034873Y024331D02*
X031704Y024331D01*
X031740Y024293D02*
X038230Y024293D01*
X038192Y024255D02*
X031776Y024255D01*
X031812Y024217D02*
X038154Y024217D01*
X038117Y024180D02*
X031848Y024180D01*
X031884Y024142D02*
X038079Y024142D01*
X038041Y024104D02*
X031920Y024104D01*
X031956Y024066D02*
X038003Y024066D01*
X037965Y024028D02*
X031992Y024028D01*
X032028Y023990D02*
X032956Y023990D01*
X033171Y023990D02*
X037927Y023990D01*
X037889Y023952D02*
X033262Y023952D01*
X033306Y023914D02*
X037851Y023914D01*
X037814Y023877D02*
X033344Y023877D01*
X033379Y023839D02*
X035956Y023839D01*
X035865Y023801D02*
X033394Y023801D01*
X033410Y023763D02*
X035825Y023763D01*
X035787Y023725D02*
X033426Y023725D01*
X033432Y023687D02*
X035749Y023687D01*
X035711Y023649D02*
X033432Y023649D01*
X033432Y023611D02*
X035673Y023611D01*
X035636Y023574D02*
X033432Y023574D01*
X033421Y023536D02*
X035598Y023536D01*
X035560Y023498D02*
X033406Y023498D01*
X033390Y023460D02*
X035522Y023460D01*
X035484Y023422D02*
X033372Y023422D01*
X033334Y023384D02*
X035446Y023384D01*
X035408Y023346D02*
X033296Y023346D01*
X033238Y023308D02*
X035371Y023308D01*
X035333Y023271D02*
X033146Y023271D01*
X032981Y023271D02*
X032259Y023271D01*
X032223Y023308D02*
X032889Y023308D01*
X032831Y023346D02*
X032186Y023346D01*
X032296Y023233D02*
X035295Y023233D01*
X035754Y022816D02*
X036902Y022816D01*
X036840Y022778D02*
X036116Y022778D01*
X036208Y022740D02*
X036802Y022740D01*
X036774Y022712D02*
X036774Y022712D01*
X036765Y022703D02*
X036268Y022703D01*
X036306Y022665D02*
X036727Y022665D01*
X036689Y022627D02*
X036344Y022627D01*
X036363Y022589D02*
X036651Y022589D01*
X036613Y022551D02*
X036379Y022551D01*
X036394Y022513D02*
X036575Y022513D01*
X036537Y022475D02*
X036406Y022475D01*
X036406Y022437D02*
X036500Y022437D01*
X036462Y022400D02*
X036406Y022400D01*
X036406Y022362D02*
X036424Y022362D01*
X036845Y021907D02*
X048849Y021907D01*
X048849Y021869D02*
X036807Y021869D01*
X036770Y021832D02*
X048849Y021832D01*
X048849Y021794D02*
X036732Y021794D01*
X036694Y021756D02*
X048849Y021756D01*
X048849Y021718D02*
X036656Y021718D01*
X036618Y021680D02*
X048849Y021680D01*
X048849Y021642D02*
X036580Y021642D01*
X036550Y021612D02*
X036550Y021612D01*
X036542Y021604D02*
X048849Y021604D01*
X048849Y021566D02*
X036504Y021566D01*
X036467Y021529D02*
X048849Y021529D01*
X048849Y021491D02*
X036381Y021491D01*
X036883Y021945D02*
X048849Y021945D01*
X048849Y021983D02*
X036921Y021983D01*
X036959Y022021D02*
X048849Y022021D01*
X048849Y022059D02*
X036997Y022059D01*
X037035Y022097D02*
X048849Y022097D01*
X048849Y022135D02*
X037072Y022135D01*
X037110Y022172D02*
X037954Y022172D01*
X037862Y022210D02*
X037148Y022210D01*
X037839Y022854D02*
X035792Y022854D01*
X035830Y022892D02*
X037930Y022892D01*
X038144Y022892D02*
X053617Y022892D01*
X053617Y022930D02*
X035868Y022930D01*
X035906Y022968D02*
X053617Y022968D01*
X053617Y023006D02*
X035943Y023006D01*
X035981Y023043D02*
X053617Y023043D01*
X053617Y023081D02*
X036019Y023081D01*
X036057Y023119D02*
X053617Y023119D01*
X053617Y023157D02*
X036095Y023157D01*
X036133Y023195D02*
X053617Y023195D01*
X053617Y023233D02*
X037987Y023233D01*
X038078Y023271D02*
X053617Y023271D01*
X053617Y023308D02*
X038121Y023308D01*
X038159Y023346D02*
X053617Y023346D01*
X053617Y023384D02*
X038197Y023384D01*
X038235Y023422D02*
X053617Y023422D01*
X053617Y023460D02*
X038273Y023460D01*
X038311Y023498D02*
X053617Y023498D01*
X053617Y023536D02*
X038349Y023536D01*
X038387Y023574D02*
X053617Y023574D01*
X053617Y023611D02*
X038424Y023611D01*
X038462Y023649D02*
X053617Y023649D01*
X053617Y023687D02*
X038500Y023687D01*
X038538Y023725D02*
X053617Y023725D01*
X053617Y023763D02*
X038576Y023763D01*
X038614Y023801D02*
X053617Y023801D01*
X053617Y023839D02*
X038652Y023839D01*
X038268Y024331D02*
X035201Y024331D01*
X035265Y024369D02*
X038306Y024369D01*
X038344Y024407D02*
X035303Y024407D01*
X035341Y024445D02*
X038410Y024445D01*
X038235Y024793D02*
X038371Y024849D01*
X038475Y024953D01*
X038531Y025089D01*
X038531Y025093D01*
X040425Y026987D01*
X040472Y027100D01*
X040472Y027700D01*
X040475Y027703D01*
X040531Y027839D01*
X040531Y027985D01*
X040493Y028077D01*
X041367Y028077D01*
X044577Y025326D01*
X044577Y024446D01*
X044647Y024277D01*
X044777Y024147D01*
X044946Y024077D01*
X045128Y024077D01*
X045297Y024147D01*
X045427Y024277D01*
X045497Y024446D01*
X045497Y024727D01*
X045599Y024727D01*
X045712Y024774D01*
X045800Y024862D01*
X046300Y025362D01*
X046347Y025475D01*
X046347Y027325D01*
X046350Y027328D01*
X046406Y027464D01*
X046406Y027610D01*
X046350Y027746D01*
X046246Y027850D01*
X046110Y027906D01*
X045964Y027906D01*
X045828Y027850D01*
X045825Y027847D01*
X045228Y027847D01*
X044659Y028415D01*
X044659Y031349D01*
X044612Y031462D01*
X044525Y031550D01*
X043659Y032415D01*
X043659Y032575D01*
X043662Y032578D01*
X043718Y032714D01*
X043718Y032860D01*
X043662Y032996D01*
X043558Y033100D01*
X043423Y033156D01*
X043276Y033156D01*
X043141Y033100D01*
X043037Y032996D01*
X042981Y032860D01*
X042981Y032714D01*
X043037Y032578D01*
X043040Y032575D01*
X043040Y032225D01*
X043087Y032112D01*
X044040Y031159D01*
X044040Y028225D01*
X044087Y028112D01*
X044837Y027362D01*
X044924Y027274D01*
X045038Y027227D01*
X045727Y027227D01*
X045727Y025665D01*
X045497Y025435D01*
X045497Y025464D01*
X045502Y025481D01*
X045497Y025555D01*
X045497Y025628D01*
X045490Y025645D01*
X045488Y025663D01*
X045455Y025729D01*
X045427Y025797D01*
X045414Y025810D01*
X045406Y025827D01*
X045350Y025875D01*
X045297Y025927D01*
X045281Y025934D01*
X041850Y028875D01*
X041797Y028927D01*
X041781Y028934D01*
X041767Y028946D01*
X041697Y028968D01*
X041628Y028997D01*
X041610Y028997D01*
X041593Y029002D01*
X041519Y028997D01*
X039362Y028997D01*
X039351Y029007D01*
X039147Y029092D01*
X038927Y029092D01*
X038723Y029007D01*
X038567Y028851D01*
X038482Y028647D01*
X038482Y028632D01*
X038347Y028497D01*
X035727Y028497D01*
X032818Y031406D01*
X032847Y031475D01*
X032847Y037599D01*
X032800Y037712D01*
X032712Y037800D01*
X032587Y037925D01*
X032474Y037972D01*
X032249Y037972D01*
X032246Y037975D01*
X032110Y038031D01*
X031964Y038031D01*
X031828Y037975D01*
X031724Y037871D01*
X031668Y037735D01*
X031668Y037589D01*
X031724Y037453D01*
X031828Y037349D01*
X031964Y037293D01*
X032110Y037293D01*
X032227Y037342D01*
X032227Y032007D01*
X032226Y032007D01*
X032022Y032092D01*
X031802Y032092D01*
X031598Y032007D01*
X031442Y031851D01*
X031357Y031647D01*
X031357Y031427D01*
X031442Y031223D01*
X031598Y031067D01*
X031802Y030982D01*
X031942Y030982D01*
X035147Y027777D01*
X034535Y027777D01*
X034550Y027739D02*
X035185Y027739D01*
X035222Y027701D02*
X034561Y027701D01*
X034598Y027664D02*
X035260Y027664D01*
X035277Y027647D02*
X035446Y027577D01*
X038628Y027577D01*
X038797Y027647D01*
X039132Y027982D01*
X039147Y027982D01*
X039351Y028067D01*
X039362Y028077D01*
X039831Y028077D01*
X039793Y027985D01*
X039793Y027839D01*
X039849Y027703D01*
X039852Y027700D01*
X039852Y027290D01*
X038093Y025531D01*
X038089Y025531D01*
X037953Y025475D01*
X037849Y025371D01*
X037793Y025235D01*
X037793Y025089D01*
X037849Y024953D01*
X037953Y024849D01*
X038089Y024793D01*
X038235Y024793D01*
X038308Y024823D02*
X039885Y024823D01*
X039847Y024785D02*
X035385Y024785D01*
X035401Y024748D02*
X039810Y024748D01*
X039772Y024710D02*
X035406Y024710D01*
X035406Y024672D02*
X039734Y024672D01*
X039696Y024634D02*
X035406Y024634D01*
X035406Y024596D02*
X039658Y024596D01*
X039620Y024558D02*
X035393Y024558D01*
X035377Y024520D02*
X039582Y024520D01*
X039545Y024482D02*
X035362Y024482D01*
X035369Y024823D02*
X038016Y024823D01*
X037941Y024861D02*
X035354Y024861D01*
X035347Y024899D02*
X037903Y024899D01*
X037866Y024937D02*
X035347Y024937D01*
X035347Y024975D02*
X037840Y024975D01*
X037825Y025013D02*
X035347Y025013D01*
X035347Y025051D02*
X037809Y025051D01*
X037793Y025088D02*
X035347Y025088D01*
X035347Y025126D02*
X037793Y025126D01*
X037793Y025164D02*
X035347Y025164D01*
X035347Y025202D02*
X037793Y025202D01*
X037795Y025240D02*
X035347Y025240D01*
X035347Y025278D02*
X037811Y025278D01*
X037827Y025316D02*
X035347Y025316D01*
X035347Y025353D02*
X037842Y025353D01*
X037870Y025391D02*
X035347Y025391D01*
X035347Y025429D02*
X037908Y025429D01*
X037946Y025467D02*
X035347Y025467D01*
X035347Y025505D02*
X038026Y025505D01*
X038105Y025543D02*
X035347Y025543D01*
X035347Y025581D02*
X038143Y025581D01*
X038181Y025619D02*
X035347Y025619D01*
X035347Y025656D02*
X038218Y025656D01*
X038256Y025694D02*
X035347Y025694D01*
X035347Y025732D02*
X038294Y025732D01*
X038332Y025770D02*
X035347Y025770D01*
X035347Y025808D02*
X038370Y025808D01*
X038408Y025846D02*
X035347Y025846D01*
X035347Y025884D02*
X038446Y025884D01*
X038484Y025922D02*
X035347Y025922D01*
X035347Y025959D02*
X038521Y025959D01*
X038559Y025997D02*
X035347Y025997D01*
X035347Y026035D02*
X038597Y026035D01*
X038635Y026073D02*
X035347Y026073D01*
X035347Y026111D02*
X038673Y026111D01*
X038711Y026149D02*
X035347Y026149D01*
X035347Y026187D02*
X038749Y026187D01*
X038787Y026225D02*
X035347Y026225D01*
X035347Y026262D02*
X038824Y026262D01*
X038862Y026300D02*
X035347Y026300D01*
X035347Y026338D02*
X038900Y026338D01*
X038938Y026376D02*
X035347Y026376D01*
X035347Y026414D02*
X038976Y026414D01*
X039014Y026452D02*
X035347Y026452D01*
X035347Y026490D02*
X039052Y026490D01*
X039090Y026527D02*
X035347Y026527D01*
X035347Y026565D02*
X039127Y026565D01*
X039165Y026603D02*
X035347Y026603D01*
X035347Y026641D02*
X039203Y026641D01*
X039241Y026679D02*
X035347Y026679D01*
X035347Y026717D02*
X039279Y026717D01*
X039317Y026755D02*
X035347Y026755D01*
X035347Y026793D02*
X039355Y026793D01*
X039392Y026830D02*
X035347Y026830D01*
X035339Y026868D02*
X039430Y026868D01*
X039468Y026906D02*
X035323Y026906D01*
X035307Y026944D02*
X039506Y026944D01*
X039544Y026982D02*
X035280Y026982D01*
X035242Y027020D02*
X039582Y027020D01*
X039620Y027058D02*
X035204Y027058D01*
X035166Y027096D02*
X039658Y027096D01*
X039695Y027133D02*
X035129Y027133D01*
X035091Y027171D02*
X039733Y027171D01*
X039771Y027209D02*
X035053Y027209D01*
X035015Y027247D02*
X039809Y027247D01*
X039847Y027285D02*
X034977Y027285D01*
X034939Y027323D02*
X039852Y027323D01*
X039852Y027361D02*
X034901Y027361D01*
X034863Y027398D02*
X039852Y027398D01*
X039852Y027436D02*
X034826Y027436D01*
X034788Y027474D02*
X039852Y027474D01*
X039852Y027512D02*
X034750Y027512D01*
X034712Y027550D02*
X039852Y027550D01*
X039852Y027588D02*
X038654Y027588D01*
X038745Y027626D02*
X039852Y027626D01*
X039852Y027664D02*
X038814Y027664D01*
X038852Y027701D02*
X039851Y027701D01*
X039834Y027739D02*
X038889Y027739D01*
X038927Y027777D02*
X039819Y027777D01*
X039803Y027815D02*
X038965Y027815D01*
X039003Y027853D02*
X039793Y027853D01*
X039793Y027891D02*
X039041Y027891D01*
X039079Y027929D02*
X039793Y027929D01*
X039793Y027967D02*
X039117Y027967D01*
X039201Y028004D02*
X039801Y028004D01*
X039817Y028042D02*
X039293Y028042D01*
X039304Y029027D02*
X044040Y029027D01*
X044040Y029065D02*
X039213Y029065D01*
X038861Y029065D02*
X036412Y029065D01*
X036360Y029043D02*
X036496Y029099D01*
X036600Y029203D01*
X036656Y029339D01*
X036656Y029485D01*
X036600Y029621D01*
X036597Y029624D01*
X036597Y029974D01*
X044040Y029974D01*
X044040Y030012D02*
X036581Y030012D01*
X036565Y030049D02*
X044040Y030049D01*
X044040Y030087D02*
X036550Y030087D01*
X036462Y030175D01*
X034472Y032165D01*
X034472Y032200D01*
X034475Y032203D01*
X034531Y032339D01*
X034531Y032485D01*
X034475Y032621D01*
X034371Y032725D01*
X034235Y032781D01*
X034089Y032781D01*
X033953Y032725D01*
X033849Y032621D01*
X033793Y032485D01*
X033793Y032339D01*
X033849Y032203D01*
X033852Y032200D01*
X033852Y031975D01*
X033899Y031862D01*
X035977Y029784D01*
X034440Y029784D01*
X034478Y029746D02*
X035977Y029746D01*
X035977Y029709D02*
X034516Y029709D01*
X034553Y029671D02*
X035977Y029671D01*
X035977Y029633D02*
X034591Y029633D01*
X034629Y029595D02*
X035964Y029595D01*
X035974Y029621D02*
X035918Y029485D01*
X035918Y029339D01*
X035974Y029203D01*
X036078Y029099D01*
X036214Y029043D01*
X036360Y029043D01*
X036499Y029103D02*
X044040Y029103D01*
X044040Y029141D02*
X036537Y029141D01*
X036575Y029178D02*
X044040Y029178D01*
X044040Y029216D02*
X036605Y029216D01*
X036621Y029254D02*
X044040Y029254D01*
X044040Y029292D02*
X036636Y029292D01*
X036652Y029330D02*
X044040Y029330D01*
X044040Y029368D02*
X036656Y029368D01*
X036656Y029406D02*
X044040Y029406D01*
X044040Y029443D02*
X036656Y029443D01*
X036656Y029481D02*
X044040Y029481D01*
X044040Y029519D02*
X036642Y029519D01*
X036626Y029557D02*
X044040Y029557D01*
X044040Y029595D02*
X036610Y029595D01*
X036597Y029633D02*
X044040Y029633D01*
X044040Y029671D02*
X036597Y029671D01*
X036597Y029709D02*
X044040Y029709D01*
X044040Y029746D02*
X036597Y029746D01*
X036597Y029784D02*
X044040Y029784D01*
X044040Y029822D02*
X036597Y029822D01*
X036597Y029860D02*
X044040Y029860D01*
X044040Y029898D02*
X036597Y029898D01*
X036597Y029936D02*
X044040Y029936D01*
X044040Y030125D02*
X036512Y030125D01*
X036550Y030087D02*
X036597Y029974D01*
X036474Y030163D02*
X044040Y030163D01*
X044040Y030201D02*
X036436Y030201D01*
X036398Y030239D02*
X044040Y030239D01*
X044040Y030277D02*
X036360Y030277D01*
X036322Y030314D02*
X044040Y030314D01*
X044040Y030352D02*
X036285Y030352D01*
X036247Y030390D02*
X044040Y030390D01*
X044040Y030428D02*
X036209Y030428D01*
X036171Y030466D02*
X044040Y030466D01*
X044040Y030504D02*
X036133Y030504D01*
X036095Y030542D02*
X044040Y030542D01*
X044040Y030580D02*
X036057Y030580D01*
X036020Y030617D02*
X044040Y030617D01*
X044040Y030655D02*
X035982Y030655D01*
X035944Y030693D02*
X044040Y030693D01*
X044040Y030731D02*
X035906Y030731D01*
X035868Y030769D02*
X044040Y030769D01*
X044040Y030807D02*
X035830Y030807D01*
X035792Y030845D02*
X044040Y030845D01*
X044040Y030883D02*
X035754Y030883D01*
X035717Y030920D02*
X044040Y030920D01*
X044040Y030958D02*
X035679Y030958D01*
X035641Y030996D02*
X044040Y030996D01*
X044040Y031034D02*
X035603Y031034D01*
X035565Y031072D02*
X044040Y031072D01*
X044040Y031110D02*
X035527Y031110D01*
X035489Y031148D02*
X044040Y031148D01*
X044013Y031186D02*
X035451Y031186D01*
X035414Y031223D02*
X043975Y031223D01*
X043937Y031261D02*
X035376Y031261D01*
X035338Y031299D02*
X043899Y031299D01*
X043862Y031337D02*
X035300Y031337D01*
X035262Y031375D02*
X043824Y031375D01*
X043786Y031413D02*
X035224Y031413D01*
X035186Y031451D02*
X043748Y031451D01*
X043710Y031488D02*
X035148Y031488D01*
X035111Y031526D02*
X043672Y031526D01*
X043634Y031564D02*
X035073Y031564D01*
X035035Y031602D02*
X043596Y031602D01*
X043559Y031640D02*
X034997Y031640D01*
X034959Y031678D02*
X043521Y031678D01*
X043483Y031716D02*
X034921Y031716D01*
X034883Y031754D02*
X043445Y031754D01*
X043407Y031791D02*
X034846Y031791D01*
X034808Y031829D02*
X043369Y031829D01*
X043331Y031867D02*
X034770Y031867D01*
X034732Y031905D02*
X043294Y031905D01*
X043256Y031943D02*
X034694Y031943D01*
X034656Y031981D02*
X043218Y031981D01*
X043180Y032019D02*
X034618Y032019D01*
X034580Y032057D02*
X043142Y032057D01*
X043104Y032094D02*
X034543Y032094D01*
X034505Y032132D02*
X043078Y032132D01*
X043063Y032170D02*
X034472Y032170D01*
X034477Y032208D02*
X043047Y032208D01*
X043040Y032246D02*
X034492Y032246D01*
X034508Y032284D02*
X043040Y032284D01*
X043040Y032322D02*
X034524Y032322D01*
X034531Y032359D02*
X043040Y032359D01*
X043040Y032397D02*
X034531Y032397D01*
X034531Y032435D02*
X043040Y032435D01*
X043040Y032473D02*
X034531Y032473D01*
X034520Y032511D02*
X043040Y032511D01*
X043040Y032549D02*
X034504Y032549D01*
X034489Y032587D02*
X043033Y032587D01*
X043018Y032625D02*
X034471Y032625D01*
X034433Y032662D02*
X043002Y032662D01*
X042986Y032700D02*
X034395Y032700D01*
X034338Y032738D02*
X042981Y032738D01*
X042981Y032776D02*
X034247Y032776D01*
X034077Y032776D02*
X032847Y032776D01*
X032847Y032738D02*
X033986Y032738D01*
X033929Y032700D02*
X032847Y032700D01*
X032847Y032662D02*
X033891Y032662D01*
X033853Y032625D02*
X032847Y032625D01*
X032847Y032587D02*
X033835Y032587D01*
X033820Y032549D02*
X032847Y032549D01*
X032847Y032511D02*
X033804Y032511D01*
X033793Y032473D02*
X032847Y032473D01*
X032847Y032435D02*
X033793Y032435D01*
X033793Y032397D02*
X032847Y032397D01*
X032847Y032359D02*
X033793Y032359D01*
X033800Y032322D02*
X032847Y032322D01*
X032847Y032284D02*
X033816Y032284D01*
X033832Y032246D02*
X032847Y032246D01*
X032847Y032208D02*
X033847Y032208D01*
X033852Y032170D02*
X032847Y032170D01*
X032847Y032132D02*
X033852Y032132D01*
X033852Y032094D02*
X032847Y032094D01*
X032847Y032057D02*
X033852Y032057D01*
X033852Y032019D02*
X032847Y032019D01*
X032847Y031981D02*
X033852Y031981D01*
X033866Y031943D02*
X032847Y031943D01*
X032847Y031905D02*
X033881Y031905D01*
X033897Y031867D02*
X032847Y031867D01*
X032847Y031829D02*
X033932Y031829D01*
X033970Y031791D02*
X032847Y031791D01*
X032847Y031754D02*
X034007Y031754D01*
X034045Y031716D02*
X032847Y031716D01*
X032847Y031678D02*
X034083Y031678D01*
X034121Y031640D02*
X032847Y031640D01*
X032847Y031602D02*
X034159Y031602D01*
X034197Y031564D02*
X032847Y031564D01*
X032847Y031526D02*
X034235Y031526D01*
X034273Y031488D02*
X032847Y031488D01*
X032836Y031451D02*
X034310Y031451D01*
X034348Y031413D02*
X032821Y031413D01*
X032849Y031375D02*
X034386Y031375D01*
X034424Y031337D02*
X032887Y031337D01*
X032925Y031299D02*
X034462Y031299D01*
X034500Y031261D02*
X032963Y031261D01*
X033001Y031223D02*
X034538Y031223D01*
X034576Y031186D02*
X033039Y031186D01*
X033076Y031148D02*
X034613Y031148D01*
X034651Y031110D02*
X033114Y031110D01*
X033152Y031072D02*
X034689Y031072D01*
X034727Y031034D02*
X033190Y031034D01*
X033228Y030996D02*
X034765Y030996D01*
X034803Y030958D02*
X033266Y030958D01*
X033304Y030920D02*
X034841Y030920D01*
X034879Y030883D02*
X033342Y030883D01*
X033379Y030845D02*
X034916Y030845D01*
X034954Y030807D02*
X033417Y030807D01*
X033455Y030769D02*
X034992Y030769D01*
X035030Y030731D02*
X033493Y030731D01*
X033531Y030693D02*
X035068Y030693D01*
X035106Y030655D02*
X033569Y030655D01*
X033607Y030617D02*
X035144Y030617D01*
X035181Y030580D02*
X033645Y030580D01*
X033682Y030542D02*
X035219Y030542D01*
X035257Y030504D02*
X033720Y030504D01*
X033758Y030466D02*
X035295Y030466D01*
X035333Y030428D02*
X033796Y030428D01*
X033834Y030390D02*
X035371Y030390D01*
X035409Y030352D02*
X033872Y030352D01*
X033910Y030314D02*
X035447Y030314D01*
X035484Y030277D02*
X033947Y030277D01*
X033985Y030239D02*
X035522Y030239D01*
X035560Y030201D02*
X034023Y030201D01*
X034061Y030163D02*
X035598Y030163D01*
X035636Y030125D02*
X034099Y030125D01*
X034137Y030087D02*
X035674Y030087D01*
X035712Y030049D02*
X034175Y030049D01*
X034213Y030012D02*
X035750Y030012D01*
X035787Y029974D02*
X034250Y029974D01*
X034288Y029936D02*
X035825Y029936D01*
X035863Y029898D02*
X034326Y029898D01*
X034364Y029860D02*
X035901Y029860D01*
X035939Y029822D02*
X034402Y029822D01*
X034667Y029557D02*
X035948Y029557D01*
X035932Y029519D02*
X034705Y029519D01*
X034743Y029481D02*
X035918Y029481D01*
X035918Y029443D02*
X034781Y029443D01*
X034818Y029406D02*
X035918Y029406D01*
X035918Y029368D02*
X034856Y029368D01*
X034894Y029330D02*
X035922Y029330D01*
X035938Y029292D02*
X034932Y029292D01*
X034970Y029254D02*
X035953Y029254D01*
X035969Y029216D02*
X035008Y029216D01*
X035046Y029178D02*
X035999Y029178D01*
X036037Y029141D02*
X035084Y029141D01*
X035121Y029103D02*
X036075Y029103D01*
X036162Y029065D02*
X035159Y029065D01*
X035197Y029027D02*
X038770Y029027D01*
X038704Y028989D02*
X035235Y028989D01*
X035273Y028951D02*
X038666Y028951D01*
X038628Y028913D02*
X035311Y028913D01*
X035349Y028875D02*
X038591Y028875D01*
X038561Y028838D02*
X035387Y028838D01*
X035424Y028800D02*
X038545Y028800D01*
X038529Y028762D02*
X035462Y028762D01*
X035500Y028724D02*
X038514Y028724D01*
X038498Y028686D02*
X035538Y028686D01*
X035576Y028648D02*
X038482Y028648D01*
X038460Y028610D02*
X035614Y028610D01*
X035652Y028572D02*
X038422Y028572D01*
X038384Y028535D02*
X035690Y028535D01*
X035727Y028497D02*
X038347Y028497D01*
X040507Y028042D02*
X041408Y028042D01*
X041452Y028004D02*
X040523Y028004D01*
X040531Y027967D02*
X041496Y027967D01*
X041540Y027929D02*
X040531Y027929D01*
X040531Y027891D02*
X041585Y027891D01*
X041629Y027853D02*
X040531Y027853D01*
X040521Y027815D02*
X041673Y027815D01*
X041717Y027777D02*
X040505Y027777D01*
X040490Y027739D02*
X041761Y027739D01*
X041805Y027701D02*
X040473Y027701D01*
X040472Y027664D02*
X041850Y027664D01*
X041894Y027626D02*
X040472Y027626D01*
X040472Y027588D02*
X041938Y027588D01*
X041982Y027550D02*
X040472Y027550D01*
X040472Y027512D02*
X042026Y027512D01*
X042071Y027474D02*
X040472Y027474D01*
X040472Y027436D02*
X042115Y027436D01*
X042159Y027398D02*
X040472Y027398D01*
X040472Y027361D02*
X042203Y027361D01*
X042247Y027323D02*
X040472Y027323D01*
X040472Y027285D02*
X042291Y027285D01*
X042336Y027247D02*
X040472Y027247D01*
X040472Y027209D02*
X042380Y027209D01*
X042424Y027171D02*
X040472Y027171D01*
X040472Y027133D02*
X042468Y027133D01*
X042512Y027096D02*
X040470Y027096D01*
X040454Y027058D02*
X042557Y027058D01*
X042601Y027020D02*
X040438Y027020D01*
X040420Y026982D02*
X042645Y026982D01*
X042689Y026944D02*
X040382Y026944D01*
X040344Y026906D02*
X042733Y026906D01*
X042777Y026868D02*
X040306Y026868D01*
X040268Y026830D02*
X042822Y026830D01*
X042866Y026793D02*
X040231Y026793D01*
X040193Y026755D02*
X042910Y026755D01*
X042954Y026717D02*
X040155Y026717D01*
X040117Y026679D02*
X042998Y026679D01*
X043043Y026641D02*
X040079Y026641D01*
X040041Y026603D02*
X043087Y026603D01*
X043131Y026565D02*
X040003Y026565D01*
X039965Y026527D02*
X043175Y026527D01*
X043219Y026490D02*
X039928Y026490D01*
X039890Y026452D02*
X043263Y026452D01*
X043308Y026414D02*
X039852Y026414D01*
X039814Y026376D02*
X043352Y026376D01*
X043396Y026338D02*
X039776Y026338D01*
X039738Y026300D02*
X043440Y026300D01*
X043484Y026262D02*
X039700Y026262D01*
X039662Y026225D02*
X043529Y026225D01*
X043573Y026187D02*
X039625Y026187D01*
X039587Y026149D02*
X043617Y026149D01*
X043661Y026111D02*
X039549Y026111D01*
X039511Y026073D02*
X043705Y026073D01*
X043749Y026035D02*
X039473Y026035D01*
X039435Y025997D02*
X043794Y025997D01*
X043838Y025959D02*
X039397Y025959D01*
X039359Y025922D02*
X043882Y025922D01*
X043926Y025884D02*
X039322Y025884D01*
X039284Y025846D02*
X043970Y025846D01*
X044015Y025808D02*
X039246Y025808D01*
X039208Y025770D02*
X042438Y025770D01*
X042346Y025732D02*
X039170Y025732D01*
X039132Y025694D02*
X042298Y025694D01*
X042260Y025656D02*
X039094Y025656D01*
X039057Y025619D02*
X042223Y025619D01*
X042208Y025581D02*
X039019Y025581D01*
X038981Y025543D02*
X042192Y025543D01*
X042176Y025505D02*
X038943Y025505D01*
X038905Y025467D02*
X042168Y025467D01*
X042168Y025429D02*
X038867Y025429D01*
X038829Y025391D02*
X042168Y025391D01*
X042166Y025353D02*
X038791Y025353D01*
X038754Y025316D02*
X040400Y025316D01*
X040340Y025278D02*
X038716Y025278D01*
X038678Y025240D02*
X040302Y025240D01*
X040264Y025202D02*
X038640Y025202D01*
X038602Y025164D02*
X040226Y025164D01*
X040188Y025126D02*
X038564Y025126D01*
X038531Y025088D02*
X040150Y025088D01*
X040113Y025051D02*
X038515Y025051D01*
X038499Y025013D02*
X040075Y025013D01*
X040037Y024975D02*
X038484Y024975D01*
X038458Y024937D02*
X039999Y024937D01*
X039961Y024899D02*
X038421Y024899D01*
X038383Y024861D02*
X039923Y024861D01*
X040345Y024407D02*
X044593Y024407D01*
X044578Y024445D02*
X040383Y024445D01*
X040420Y024482D02*
X044577Y024482D01*
X044577Y024520D02*
X040458Y024520D01*
X040496Y024558D02*
X044577Y024558D01*
X044577Y024596D02*
X040534Y024596D01*
X040572Y024634D02*
X044577Y024634D01*
X044577Y024672D02*
X040610Y024672D01*
X040648Y024710D02*
X044577Y024710D01*
X044577Y024748D02*
X042397Y024748D01*
X042473Y024785D02*
X044577Y024785D01*
X044577Y024823D02*
X042511Y024823D01*
X042549Y024861D02*
X044577Y024861D01*
X044577Y024899D02*
X042587Y024899D01*
X042625Y024937D02*
X044577Y024937D01*
X044577Y024975D02*
X042663Y024975D01*
X042701Y025013D02*
X044577Y025013D01*
X044577Y025051D02*
X042738Y025051D01*
X042776Y025088D02*
X044577Y025088D01*
X044577Y025126D02*
X042806Y025126D01*
X042821Y025164D02*
X044577Y025164D01*
X044577Y025202D02*
X042848Y025202D01*
X042865Y025240D02*
X044577Y025240D01*
X044577Y025278D02*
X042881Y025278D01*
X042896Y025316D02*
X044577Y025316D01*
X044545Y025353D02*
X042906Y025353D01*
X042906Y025391D02*
X044501Y025391D01*
X044456Y025429D02*
X042906Y025429D01*
X042906Y025467D02*
X044412Y025467D01*
X044368Y025505D02*
X042898Y025505D01*
X042882Y025543D02*
X044324Y025543D01*
X044280Y025581D02*
X042866Y025581D01*
X042851Y025619D02*
X044235Y025619D01*
X044191Y025656D02*
X042814Y025656D01*
X042776Y025694D02*
X044147Y025694D01*
X044103Y025732D02*
X042728Y025732D01*
X042636Y025770D02*
X044059Y025770D01*
X044676Y026452D02*
X045727Y026452D01*
X045727Y026490D02*
X044632Y026490D01*
X044588Y026527D02*
X045727Y026527D01*
X045727Y026565D02*
X044544Y026565D01*
X044499Y026603D02*
X045727Y026603D01*
X045727Y026641D02*
X044455Y026641D01*
X044411Y026679D02*
X045727Y026679D01*
X045727Y026717D02*
X044367Y026717D01*
X044323Y026755D02*
X045727Y026755D01*
X045727Y026793D02*
X044279Y026793D01*
X044234Y026830D02*
X045727Y026830D01*
X045727Y026868D02*
X044190Y026868D01*
X044146Y026906D02*
X045727Y026906D01*
X045727Y026944D02*
X044102Y026944D01*
X044058Y026982D02*
X045727Y026982D01*
X045727Y027020D02*
X044013Y027020D01*
X043969Y027058D02*
X045727Y027058D01*
X045727Y027096D02*
X043925Y027096D01*
X043881Y027133D02*
X045727Y027133D01*
X045727Y027171D02*
X043837Y027171D01*
X043793Y027209D02*
X045727Y027209D01*
X046347Y027209D02*
X053617Y027209D01*
X053617Y027171D02*
X046347Y027171D01*
X046347Y027133D02*
X053617Y027133D01*
X053617Y027096D02*
X046347Y027096D01*
X046347Y027058D02*
X053617Y027058D01*
X053617Y027020D02*
X046347Y027020D01*
X046347Y026982D02*
X053617Y026982D01*
X053617Y026944D02*
X046347Y026944D01*
X046347Y026906D02*
X053617Y026906D01*
X053617Y026868D02*
X046347Y026868D01*
X046347Y026830D02*
X053617Y026830D01*
X053617Y026793D02*
X046347Y026793D01*
X046347Y026755D02*
X053617Y026755D01*
X053617Y026717D02*
X046347Y026717D01*
X046347Y026679D02*
X053617Y026679D01*
X053617Y026641D02*
X046347Y026641D01*
X046347Y026603D02*
X053617Y026603D01*
X053617Y026565D02*
X046347Y026565D01*
X046347Y026527D02*
X053617Y026527D01*
X053617Y026490D02*
X046347Y026490D01*
X046347Y026452D02*
X053617Y026452D01*
X053617Y026414D02*
X046347Y026414D01*
X046347Y026376D02*
X053617Y026376D01*
X053617Y026338D02*
X046347Y026338D01*
X046347Y026300D02*
X053617Y026300D01*
X053617Y026262D02*
X046347Y026262D01*
X046347Y026225D02*
X053617Y026225D01*
X053617Y026187D02*
X046347Y026187D01*
X046347Y026149D02*
X053617Y026149D01*
X053617Y026111D02*
X046347Y026111D01*
X046347Y026073D02*
X053617Y026073D01*
X053617Y026035D02*
X046347Y026035D01*
X046347Y025997D02*
X053617Y025997D01*
X053617Y025959D02*
X046347Y025959D01*
X046347Y025922D02*
X053617Y025922D01*
X053617Y025884D02*
X046347Y025884D01*
X046347Y025846D02*
X053617Y025846D01*
X053617Y025808D02*
X046347Y025808D01*
X046347Y025770D02*
X053617Y025770D01*
X053617Y025732D02*
X046347Y025732D01*
X046347Y025694D02*
X053617Y025694D01*
X053617Y025656D02*
X046347Y025656D01*
X046347Y025619D02*
X053617Y025619D01*
X053617Y025581D02*
X046347Y025581D01*
X046347Y025543D02*
X053617Y025543D01*
X053617Y025505D02*
X046347Y025505D01*
X046343Y025467D02*
X053617Y025467D01*
X053617Y025429D02*
X046328Y025429D01*
X046312Y025391D02*
X053617Y025391D01*
X053617Y025353D02*
X046291Y025353D01*
X046254Y025316D02*
X053617Y025316D01*
X053617Y025278D02*
X046216Y025278D01*
X046178Y025240D02*
X053617Y025240D01*
X053617Y025202D02*
X046140Y025202D01*
X046102Y025164D02*
X053617Y025164D01*
X053617Y025126D02*
X046064Y025126D01*
X046026Y025088D02*
X053617Y025088D01*
X053617Y025051D02*
X045988Y025051D01*
X045951Y025013D02*
X053617Y025013D01*
X053617Y024975D02*
X045913Y024975D01*
X045875Y024937D02*
X053617Y024937D01*
X053617Y024899D02*
X045837Y024899D01*
X045799Y024861D02*
X053617Y024861D01*
X053617Y024823D02*
X045761Y024823D01*
X045723Y024785D02*
X053617Y024785D01*
X053617Y024748D02*
X045647Y024748D01*
X045497Y024710D02*
X053617Y024710D01*
X053617Y024672D02*
X045497Y024672D01*
X045497Y024634D02*
X053617Y024634D01*
X053617Y024596D02*
X045497Y024596D01*
X045497Y024558D02*
X053617Y024558D01*
X053617Y024520D02*
X045497Y024520D01*
X045497Y024482D02*
X053617Y024482D01*
X053617Y024445D02*
X045496Y024445D01*
X045481Y024407D02*
X053617Y024407D01*
X053617Y024369D02*
X045465Y024369D01*
X045449Y024331D02*
X053617Y024331D01*
X053617Y024293D02*
X045434Y024293D01*
X045405Y024255D02*
X053617Y024255D01*
X053617Y024217D02*
X045367Y024217D01*
X045330Y024180D02*
X053617Y024180D01*
X053617Y024142D02*
X045284Y024142D01*
X045192Y024104D02*
X053617Y024104D01*
X053617Y024066D02*
X040004Y024066D01*
X040042Y024104D02*
X044882Y024104D01*
X044790Y024142D02*
X040080Y024142D01*
X040117Y024180D02*
X044744Y024180D01*
X044707Y024217D02*
X040155Y024217D01*
X040193Y024255D02*
X044669Y024255D01*
X044640Y024293D02*
X040231Y024293D01*
X040269Y024331D02*
X044625Y024331D01*
X044609Y024369D02*
X040307Y024369D01*
X039966Y024028D02*
X053617Y024028D01*
X053617Y023990D02*
X039928Y023990D01*
X039890Y023952D02*
X053617Y023952D01*
X053617Y023914D02*
X039852Y023914D01*
X039782Y023877D02*
X053617Y023877D01*
X053617Y022854D02*
X038235Y022854D01*
X038279Y022816D02*
X053617Y022816D01*
X053617Y022778D02*
X038317Y022778D01*
X038352Y022740D02*
X053617Y022740D01*
X053617Y022703D02*
X038368Y022703D01*
X038383Y022665D02*
X053617Y022665D01*
X053617Y022627D02*
X038399Y022627D01*
X038406Y022589D02*
X053617Y022589D01*
X053617Y022551D02*
X038406Y022551D01*
X038406Y022513D02*
X053617Y022513D01*
X053617Y022475D02*
X038406Y022475D01*
X038395Y022437D02*
X053617Y022437D01*
X053617Y022400D02*
X038379Y022400D01*
X038364Y022362D02*
X053617Y022362D01*
X053617Y022324D02*
X038345Y022324D01*
X038307Y022286D02*
X053617Y022286D01*
X053617Y022248D02*
X038270Y022248D01*
X038212Y022210D02*
X048883Y022210D01*
X048849Y022172D02*
X038120Y022172D01*
X035958Y022778D02*
X035813Y022778D01*
X035850Y022740D02*
X035866Y022740D01*
X035408Y020310D02*
X035174Y020310D01*
X034957Y020220D01*
X034791Y020054D01*
X034701Y019837D01*
X034701Y019603D01*
X034791Y019386D01*
X034957Y019220D01*
X035174Y019130D01*
X035408Y019130D01*
X035625Y019220D01*
X035791Y019386D01*
X035881Y019603D01*
X035881Y019837D01*
X035791Y020054D01*
X035625Y020220D01*
X035408Y020310D01*
X035483Y020279D02*
X041341Y020279D01*
X041379Y020317D02*
X029313Y020317D01*
X029335Y020326D02*
X029482Y020474D01*
X029562Y020667D01*
X029562Y021407D01*
X029482Y021600D01*
X029335Y021748D01*
X029142Y021828D01*
X028932Y021828D01*
X028739Y021748D01*
X028592Y021600D01*
X028537Y021469D01*
X028482Y021600D01*
X028335Y021748D01*
X028142Y021828D01*
X027932Y021828D01*
X027739Y021748D01*
X027592Y021600D01*
X027512Y021407D01*
X027512Y020667D01*
X027592Y020474D01*
X027739Y020326D01*
X027932Y020246D01*
X028142Y020246D01*
X028335Y020326D01*
X028482Y020474D01*
X028537Y020605D01*
X028592Y020474D01*
X028739Y020326D01*
X028932Y020246D01*
X029142Y020246D01*
X029335Y020326D01*
X029363Y020355D02*
X041417Y020355D01*
X041455Y020392D02*
X029401Y020392D01*
X029439Y020430D02*
X041501Y020430D01*
X041592Y020468D02*
X029477Y020468D01*
X029496Y020506D02*
X042904Y020506D01*
X043170Y020506D02*
X044606Y020506D01*
X044594Y020468D02*
X043252Y020468D01*
X043290Y020430D02*
X044582Y020430D01*
X044570Y020392D02*
X043328Y020392D01*
X043356Y020355D02*
X044562Y020355D01*
X044562Y020317D02*
X043372Y020317D01*
X043388Y020279D02*
X044562Y020279D01*
X044562Y020241D02*
X043403Y020241D01*
X043406Y020203D02*
X044562Y020203D01*
X044562Y020165D02*
X043406Y020165D01*
X043406Y020127D02*
X043442Y020127D01*
X043632Y020127D02*
X043942Y020127D01*
X043850Y020090D02*
X043724Y020090D01*
X044132Y020127D02*
X044562Y020127D01*
X044562Y020090D02*
X044224Y020090D01*
X044307Y020052D02*
X044562Y020052D01*
X044562Y020014D02*
X044345Y020014D01*
X044383Y019976D02*
X044562Y019976D01*
X044562Y019938D02*
X044421Y019938D01*
X044443Y019900D02*
X044562Y019900D01*
X044562Y019862D02*
X044459Y019862D01*
X044475Y019824D02*
X044562Y019824D01*
X044562Y019787D02*
X044490Y019787D01*
X044503Y019749D02*
X044562Y019749D01*
X044562Y019711D02*
X044503Y019711D01*
X044503Y019673D02*
X044562Y019673D01*
X044562Y019635D02*
X044503Y019635D01*
X044503Y019597D02*
X044562Y019597D01*
X044562Y019559D02*
X044499Y019559D01*
X044484Y019521D02*
X044562Y019521D01*
X044562Y019484D02*
X044468Y019484D01*
X044452Y019446D02*
X044562Y019446D01*
X044562Y019408D02*
X044437Y019408D01*
X044405Y019370D02*
X044562Y019370D01*
X044562Y019332D02*
X044367Y019332D01*
X044329Y019294D02*
X044562Y019294D01*
X044562Y019256D02*
X044276Y019256D01*
X044185Y019218D02*
X044562Y019218D01*
X044562Y019181D02*
X041802Y019181D01*
X041818Y019218D02*
X041889Y019218D01*
X041768Y019143D02*
X044562Y019143D01*
X044562Y019105D02*
X041730Y019105D01*
X041692Y019067D02*
X044562Y019067D01*
X044562Y019029D02*
X042736Y019029D01*
X042827Y018991D02*
X044562Y018991D01*
X044562Y018953D02*
X042871Y018953D01*
X042909Y018916D02*
X044562Y018916D01*
X044562Y018878D02*
X042947Y018878D01*
X042985Y018840D02*
X044562Y018840D01*
X044562Y018802D02*
X043023Y018802D01*
X043060Y018764D02*
X044562Y018764D01*
X044562Y018726D02*
X043098Y018726D01*
X043136Y018688D02*
X044562Y018688D01*
X044562Y018650D02*
X043174Y018650D01*
X043212Y018613D02*
X044562Y018613D01*
X044562Y018575D02*
X043250Y018575D01*
X043288Y018537D02*
X044562Y018537D01*
X044562Y018499D02*
X043326Y018499D01*
X043363Y018461D02*
X044562Y018461D01*
X044562Y018423D02*
X043401Y018423D01*
X043439Y018385D02*
X044562Y018385D01*
X044562Y018347D02*
X043477Y018347D01*
X043515Y018310D02*
X044562Y018310D01*
X044562Y018272D02*
X043553Y018272D01*
X043591Y018234D02*
X044562Y018234D01*
X044562Y018196D02*
X043628Y018196D01*
X043666Y018158D02*
X044562Y018158D01*
X044562Y018120D02*
X043704Y018120D01*
X043742Y018082D02*
X044562Y018082D01*
X044562Y018045D02*
X043814Y018045D01*
X043852Y018007D02*
X044562Y018007D01*
X044562Y017969D02*
X043890Y017969D01*
X043928Y017931D02*
X044562Y017931D01*
X044562Y017893D02*
X043946Y017893D01*
X043962Y017855D02*
X044562Y017855D01*
X044562Y017817D02*
X043977Y017817D01*
X043993Y017779D02*
X044562Y017779D01*
X044562Y017742D02*
X044003Y017742D01*
X044003Y017704D02*
X044562Y017704D01*
X044562Y017666D02*
X044003Y017666D01*
X044003Y017628D02*
X044562Y017628D01*
X044562Y017590D02*
X044003Y017590D01*
X043996Y017552D02*
X044562Y017552D01*
X044562Y017514D02*
X043981Y017514D01*
X043965Y017476D02*
X044562Y017476D01*
X043889Y019218D02*
X043685Y019218D01*
X043776Y019256D02*
X043798Y019256D01*
X043389Y019218D02*
X043185Y019218D01*
X043276Y019256D02*
X043298Y019256D01*
X042889Y019218D02*
X042685Y019218D01*
X042776Y019256D02*
X042798Y019256D01*
X042389Y019218D02*
X042185Y019218D01*
X042276Y019256D02*
X042298Y019256D01*
X041227Y019484D02*
X035831Y019484D01*
X035847Y019521D02*
X041227Y019521D01*
X041227Y019559D02*
X035863Y019559D01*
X035878Y019597D02*
X041227Y019597D01*
X041227Y019635D02*
X035881Y019635D01*
X035881Y019673D02*
X041227Y019673D01*
X041227Y019711D02*
X035881Y019711D01*
X035881Y019749D02*
X041227Y019749D01*
X041227Y019787D02*
X035881Y019787D01*
X035881Y019824D02*
X041227Y019824D01*
X041227Y019862D02*
X035870Y019862D01*
X035855Y019900D02*
X041227Y019900D01*
X041227Y019938D02*
X035839Y019938D01*
X035823Y019976D02*
X041227Y019976D01*
X041227Y020014D02*
X035808Y020014D01*
X035792Y020052D02*
X041227Y020052D01*
X041227Y020090D02*
X035755Y020090D01*
X035718Y020127D02*
X041239Y020127D01*
X041255Y020165D02*
X035680Y020165D01*
X035642Y020203D02*
X041271Y020203D01*
X041303Y020241D02*
X035574Y020241D01*
X035099Y020279D02*
X029221Y020279D01*
X028853Y020279D02*
X028221Y020279D01*
X028313Y020317D02*
X028761Y020317D01*
X028711Y020355D02*
X028363Y020355D01*
X028401Y020392D02*
X028673Y020392D01*
X028635Y020430D02*
X028439Y020430D01*
X028477Y020468D02*
X028597Y020468D01*
X028578Y020506D02*
X028496Y020506D01*
X028512Y020544D02*
X028562Y020544D01*
X028547Y020582D02*
X028527Y020582D01*
X027853Y020279D02*
X022217Y020279D01*
X022217Y020317D02*
X027761Y020317D01*
X027711Y020355D02*
X022217Y020355D01*
X022217Y020392D02*
X027673Y020392D01*
X027635Y020430D02*
X022217Y020430D01*
X022217Y020468D02*
X027597Y020468D01*
X027578Y020506D02*
X022217Y020506D01*
X022217Y020544D02*
X027562Y020544D01*
X027547Y020582D02*
X022217Y020582D01*
X022217Y020620D02*
X027531Y020620D01*
X027515Y020658D02*
X022217Y020658D01*
X022217Y020695D02*
X027512Y020695D01*
X027512Y020733D02*
X022217Y020733D01*
X022217Y020771D02*
X027512Y020771D01*
X027512Y020809D02*
X022217Y020809D01*
X022217Y020847D02*
X027512Y020847D01*
X027512Y020885D02*
X022217Y020885D01*
X022217Y020923D02*
X027512Y020923D01*
X027512Y020961D02*
X022217Y020961D01*
X022217Y020998D02*
X027512Y020998D01*
X027512Y021036D02*
X022217Y021036D01*
X022217Y021074D02*
X027512Y021074D01*
X027512Y021112D02*
X022217Y021112D01*
X022217Y021150D02*
X027512Y021150D01*
X027512Y021188D02*
X022217Y021188D01*
X022217Y021226D02*
X027512Y021226D01*
X027512Y021263D02*
X022217Y021263D01*
X022217Y021301D02*
X027512Y021301D01*
X027512Y021339D02*
X022217Y021339D01*
X022217Y021377D02*
X027512Y021377D01*
X027515Y021415D02*
X022217Y021415D01*
X022217Y021453D02*
X027530Y021453D01*
X027546Y021491D02*
X022217Y021491D01*
X022217Y021529D02*
X027562Y021529D01*
X027578Y021566D02*
X022217Y021566D01*
X022217Y021604D02*
X027595Y021604D01*
X027633Y021642D02*
X022217Y021642D01*
X022217Y021680D02*
X027671Y021680D01*
X027709Y021718D02*
X022217Y021718D01*
X022217Y021756D02*
X027758Y021756D01*
X027849Y021794D02*
X022217Y021794D01*
X022217Y021832D02*
X031680Y021832D01*
X031648Y021864D02*
X028524Y025107D01*
X028391Y025162D01*
X028287Y025266D01*
X028231Y025401D01*
X028231Y025548D01*
X028287Y025683D01*
X028391Y025787D01*
X028438Y025807D01*
X026390Y027926D01*
X026350Y027828D01*
X026246Y027724D01*
X026110Y027668D01*
X025964Y027668D01*
X025828Y027724D01*
X025724Y027828D01*
X025675Y027947D01*
X023905Y029717D01*
X022473Y029717D01*
X022356Y029766D01*
X021947Y030175D01*
X021828Y030224D01*
X021724Y030328D01*
X021668Y030464D01*
X021668Y030610D01*
X021724Y030746D01*
X021828Y030850D01*
X021964Y030906D01*
X022110Y030906D01*
X022246Y030850D01*
X022350Y030746D01*
X022399Y030627D01*
X022669Y030357D01*
X024041Y030357D01*
X021611Y032871D01*
X021547Y032716D01*
X021389Y032559D01*
X021328Y032533D01*
X021389Y032508D01*
X021547Y032350D01*
X021632Y032144D01*
X021632Y031922D01*
X021547Y031716D01*
X021389Y031559D01*
X021328Y031533D01*
X021389Y031508D01*
X021547Y031350D01*
X021632Y031144D01*
X021632Y030922D01*
X021547Y030716D01*
X021389Y030559D01*
X021328Y030533D01*
X021389Y030508D01*
X021547Y030350D01*
X021632Y030144D01*
X021632Y029922D01*
X021547Y029716D01*
X021389Y029559D01*
X021328Y029533D01*
X021389Y029508D01*
X021547Y029350D01*
X021632Y029144D01*
X021632Y028922D01*
X021547Y028716D01*
X021389Y028559D01*
X021328Y028533D01*
X021389Y028508D01*
X021547Y028350D01*
X021632Y028144D01*
X021632Y027922D01*
X021547Y027716D01*
X021389Y027559D01*
X021328Y027533D01*
X021389Y027508D01*
X021547Y027350D01*
X021632Y027144D01*
X021632Y026922D01*
X021547Y026716D01*
X021389Y026559D01*
X021328Y026533D01*
X021389Y026508D01*
X021547Y026350D01*
X021632Y026144D01*
X021632Y025922D01*
X021547Y025716D01*
X021389Y025559D01*
X021328Y025533D01*
X021389Y025508D01*
X021547Y025350D01*
X021632Y025144D01*
X021632Y024922D01*
X021547Y024716D01*
X021389Y024559D01*
X021328Y024533D01*
X021389Y024508D01*
X021547Y024350D01*
X021632Y024144D01*
X021632Y023922D01*
X021547Y023716D01*
X021389Y023559D01*
X021184Y023473D01*
X020961Y023473D01*
X020755Y023559D01*
X020598Y023716D01*
X020572Y023778D01*
X020547Y023716D01*
X020389Y023559D01*
X020184Y023473D01*
X019961Y023473D01*
X019755Y023559D01*
X019598Y023716D01*
X019513Y023922D01*
X019513Y024144D01*
X019598Y024350D01*
X019755Y024508D01*
X019817Y024533D01*
X019755Y024559D01*
X019598Y024716D01*
X019513Y024922D01*
X019513Y025144D01*
X019598Y025350D01*
X019755Y025508D01*
X019817Y025533D01*
X019755Y025559D01*
X019598Y025716D01*
X019513Y025922D01*
X019513Y026144D01*
X019598Y026350D01*
X019755Y026508D01*
X019817Y026533D01*
X019755Y026559D01*
X019598Y026716D01*
X019513Y026922D01*
X019513Y027144D01*
X019598Y027350D01*
X019755Y027508D01*
X019817Y027533D01*
X019755Y027559D01*
X019598Y027716D01*
X019513Y027922D01*
X019513Y028144D01*
X019598Y028350D01*
X019755Y028508D01*
X019817Y028533D01*
X019755Y028559D01*
X019598Y028716D01*
X019513Y028922D01*
X019513Y029144D01*
X019598Y029350D01*
X019755Y029508D01*
X019817Y029533D01*
X019755Y029559D01*
X019598Y029716D01*
X019513Y029922D01*
X019513Y030144D01*
X019598Y030350D01*
X019755Y030508D01*
X019817Y030533D01*
X019755Y030559D01*
X019598Y030716D01*
X019513Y030922D01*
X019513Y031144D01*
X019598Y031350D01*
X019755Y031508D01*
X019817Y031533D01*
X019755Y031559D01*
X019598Y031716D01*
X019513Y031922D01*
X019513Y032144D01*
X019598Y032350D01*
X019755Y032508D01*
X019817Y032533D01*
X019755Y032559D01*
X019598Y032716D01*
X019513Y032922D01*
X019513Y033144D01*
X019598Y033350D01*
X019755Y033508D01*
X019817Y033533D01*
X019755Y033559D01*
X019598Y033716D01*
X019513Y033922D01*
X019513Y034144D01*
X019598Y034350D01*
X019755Y034508D01*
X019817Y034533D01*
X019755Y034559D01*
X019598Y034716D01*
X019513Y034922D01*
X019513Y035144D01*
X019598Y035350D01*
X019755Y035508D01*
X019817Y035533D01*
X019755Y035559D01*
X019598Y035716D01*
X019513Y035922D01*
X019513Y036144D01*
X019598Y036350D01*
X019755Y036508D01*
X019817Y036533D01*
X019755Y036559D01*
X019598Y036716D01*
X019513Y036922D01*
X019513Y037144D01*
X019598Y037350D01*
X019755Y037508D01*
X019817Y037533D01*
X019755Y037559D01*
X019598Y037716D01*
X019513Y037922D01*
X019513Y038144D01*
X019598Y038350D01*
X019755Y038508D01*
X019817Y038533D01*
X019755Y038559D01*
X019598Y038716D01*
X019513Y038922D01*
X019513Y039144D01*
X019598Y039350D01*
X019755Y039508D01*
X019817Y039533D01*
X019755Y039559D01*
X019598Y039716D01*
X019513Y039922D01*
X019513Y040144D01*
X019598Y040350D01*
X019755Y040508D01*
X019817Y040533D01*
X019755Y040559D01*
X019598Y040716D01*
X019513Y040922D01*
X019513Y041144D01*
X019598Y041350D01*
X019755Y041508D01*
X019817Y041533D01*
X019755Y041559D01*
X019598Y041716D01*
X019513Y041922D01*
X019513Y042144D01*
X019598Y042350D01*
X019755Y042508D01*
X019817Y042533D01*
X019755Y042559D01*
X019598Y042716D01*
X019513Y042922D01*
X019513Y043144D01*
X019598Y043350D01*
X019755Y043508D01*
X019817Y043533D01*
X019755Y043559D01*
X019598Y043716D01*
X019513Y043922D01*
X019513Y044144D01*
X019598Y044350D01*
X019755Y044508D01*
X019817Y044533D01*
X019755Y044559D01*
X019598Y044716D01*
X019513Y044922D01*
X019513Y045144D01*
X019598Y045350D01*
X019755Y045508D01*
X019817Y045533D01*
X019755Y045559D01*
X019598Y045716D01*
X019513Y045922D01*
X019513Y046144D01*
X017449Y046144D01*
X017449Y046106D02*
X019513Y046106D01*
X019513Y046069D02*
X017449Y046069D01*
X017449Y046031D02*
X019513Y046031D01*
X019513Y045993D02*
X017449Y045993D01*
X017449Y045955D02*
X019513Y045955D01*
X019515Y045917D02*
X017449Y045917D01*
X017449Y045879D02*
X019530Y045879D01*
X019546Y045841D02*
X017449Y045841D01*
X017449Y045803D02*
X019562Y045803D01*
X019577Y045766D02*
X017449Y045766D01*
X017449Y045728D02*
X019593Y045728D01*
X019624Y045690D02*
X017449Y045690D01*
X017449Y045652D02*
X019662Y045652D01*
X019700Y045614D02*
X017449Y045614D01*
X017449Y045576D02*
X019738Y045576D01*
X019804Y045538D02*
X017449Y045538D01*
X017449Y045500D02*
X019748Y045500D01*
X019710Y045463D02*
X017449Y045463D01*
X017449Y045425D02*
X019673Y045425D01*
X019635Y045387D02*
X017449Y045387D01*
X017449Y045349D02*
X019598Y045349D01*
X019582Y045311D02*
X017449Y045311D01*
X017449Y045273D02*
X019566Y045273D01*
X019550Y045235D02*
X017449Y045235D01*
X017449Y045198D02*
X019535Y045198D01*
X019519Y045160D02*
X017449Y045160D01*
X017449Y045122D02*
X019513Y045122D01*
X019513Y045084D02*
X017449Y045084D01*
X017449Y045046D02*
X019513Y045046D01*
X019513Y045008D02*
X017449Y045008D01*
X017449Y044970D02*
X019513Y044970D01*
X019513Y044932D02*
X017449Y044932D01*
X017449Y044895D02*
X019524Y044895D01*
X019540Y044857D02*
X017449Y044857D01*
X017449Y044819D02*
X019555Y044819D01*
X019571Y044781D02*
X017449Y044781D01*
X017449Y044743D02*
X019587Y044743D01*
X019609Y044705D02*
X017449Y044705D01*
X017449Y044667D02*
X019647Y044667D01*
X019685Y044629D02*
X018752Y044629D01*
X018662Y044667D02*
X018412Y044667D01*
X018180Y044571D01*
X018003Y044394D01*
X017907Y044162D01*
X017907Y043912D01*
X018003Y043680D01*
X018146Y043537D01*
X018003Y043394D01*
X017907Y043162D01*
X017907Y042912D01*
X018003Y042680D01*
X018180Y042503D01*
X018412Y042407D01*
X018662Y042407D01*
X018894Y042503D01*
X019071Y042680D01*
X019167Y042912D01*
X019167Y043162D01*
X019071Y043394D01*
X018928Y043537D01*
X019071Y043680D01*
X019167Y043912D01*
X019167Y044162D01*
X019071Y044394D01*
X018894Y044571D01*
X018662Y044667D01*
X018844Y044592D02*
X019722Y044592D01*
X019767Y044554D02*
X018911Y044554D01*
X018949Y044516D02*
X019775Y044516D01*
X019726Y044478D02*
X018987Y044478D01*
X019024Y044440D02*
X019688Y044440D01*
X019650Y044402D02*
X019062Y044402D01*
X019083Y044364D02*
X019612Y044364D01*
X019588Y044327D02*
X019099Y044327D01*
X019114Y044289D02*
X019573Y044289D01*
X019557Y044251D02*
X019130Y044251D01*
X019146Y044213D02*
X019541Y044213D01*
X019525Y044175D02*
X019161Y044175D01*
X019167Y044137D02*
X019513Y044137D01*
X019513Y044099D02*
X019167Y044099D01*
X019167Y044061D02*
X019513Y044061D01*
X019513Y044024D02*
X019167Y044024D01*
X019167Y043986D02*
X019513Y043986D01*
X019513Y043948D02*
X019167Y043948D01*
X019166Y043910D02*
X019518Y043910D01*
X019533Y043872D02*
X019150Y043872D01*
X019135Y043834D02*
X019549Y043834D01*
X019565Y043796D02*
X019119Y043796D01*
X019103Y043758D02*
X019580Y043758D01*
X019596Y043721D02*
X019088Y043721D01*
X019072Y043683D02*
X019631Y043683D01*
X019669Y043645D02*
X019035Y043645D01*
X018997Y043607D02*
X019707Y043607D01*
X019745Y043569D02*
X018960Y043569D01*
X018933Y043531D02*
X019813Y043531D01*
X019741Y043493D02*
X018971Y043493D01*
X019009Y043455D02*
X019703Y043455D01*
X019665Y043418D02*
X019047Y043418D01*
X019077Y043380D02*
X019628Y043380D01*
X019595Y043342D02*
X019092Y043342D01*
X019108Y043304D02*
X019579Y043304D01*
X019563Y043266D02*
X019124Y043266D01*
X019139Y043228D02*
X019548Y043228D01*
X019532Y043190D02*
X019155Y043190D01*
X019167Y043153D02*
X019516Y043153D01*
X019513Y043115D02*
X019167Y043115D01*
X019167Y043077D02*
X019513Y043077D01*
X019513Y043039D02*
X019167Y043039D01*
X019167Y043001D02*
X019513Y043001D01*
X019513Y042963D02*
X019167Y042963D01*
X019167Y042925D02*
X019513Y042925D01*
X019527Y042887D02*
X019157Y042887D01*
X019141Y042850D02*
X019543Y042850D01*
X019558Y042812D02*
X019125Y042812D01*
X019110Y042774D02*
X019574Y042774D01*
X019590Y042736D02*
X019094Y042736D01*
X019078Y042698D02*
X019616Y042698D01*
X019654Y042660D02*
X019051Y042660D01*
X019013Y042622D02*
X019692Y042622D01*
X019730Y042584D02*
X018975Y042584D01*
X018937Y042547D02*
X019784Y042547D01*
X019758Y042509D02*
X018899Y042509D01*
X018816Y042471D02*
X019719Y042471D01*
X019681Y042433D02*
X018724Y042433D01*
X018350Y042433D02*
X017449Y042433D01*
X017449Y042471D02*
X018258Y042471D01*
X018175Y042509D02*
X017449Y042509D01*
X017449Y042547D02*
X018137Y042547D01*
X018099Y042584D02*
X017449Y042584D01*
X017449Y042622D02*
X018061Y042622D01*
X018023Y042660D02*
X017449Y042660D01*
X017449Y042698D02*
X017996Y042698D01*
X017980Y042736D02*
X017449Y042736D01*
X017449Y042774D02*
X017964Y042774D01*
X017949Y042812D02*
X017449Y042812D01*
X017449Y042850D02*
X017933Y042850D01*
X017917Y042887D02*
X017449Y042887D01*
X017449Y042925D02*
X017907Y042925D01*
X017907Y042963D02*
X017449Y042963D01*
X017449Y043001D02*
X017907Y043001D01*
X017907Y043039D02*
X017449Y043039D01*
X017449Y043077D02*
X017907Y043077D01*
X017907Y043115D02*
X017449Y043115D01*
X017449Y043153D02*
X017907Y043153D01*
X017919Y043190D02*
X017449Y043190D01*
X017449Y043228D02*
X017935Y043228D01*
X017950Y043266D02*
X017449Y043266D01*
X017449Y043304D02*
X017966Y043304D01*
X017982Y043342D02*
X017449Y043342D01*
X017449Y043380D02*
X017997Y043380D01*
X018027Y043418D02*
X017449Y043418D01*
X017449Y043455D02*
X018065Y043455D01*
X018103Y043493D02*
X017449Y043493D01*
X017449Y043531D02*
X018141Y043531D01*
X018114Y043569D02*
X017449Y043569D01*
X017449Y043607D02*
X018077Y043607D01*
X018039Y043645D02*
X017449Y043645D01*
X017449Y043683D02*
X018002Y043683D01*
X017987Y043721D02*
X017449Y043721D01*
X017449Y043758D02*
X017971Y043758D01*
X017955Y043796D02*
X017449Y043796D01*
X017449Y043834D02*
X017939Y043834D01*
X017924Y043872D02*
X017449Y043872D01*
X017449Y043910D02*
X017908Y043910D01*
X017907Y043948D02*
X017449Y043948D01*
X017449Y043986D02*
X017907Y043986D01*
X017907Y044024D02*
X017449Y044024D01*
X017449Y044061D02*
X017907Y044061D01*
X017907Y044099D02*
X017449Y044099D01*
X017449Y044137D02*
X017907Y044137D01*
X017913Y044175D02*
X017449Y044175D01*
X017449Y044213D02*
X017928Y044213D01*
X017944Y044251D02*
X017449Y044251D01*
X017449Y044289D02*
X017960Y044289D01*
X017975Y044327D02*
X017449Y044327D01*
X017449Y044364D02*
X017991Y044364D01*
X018012Y044402D02*
X017449Y044402D01*
X017449Y044440D02*
X018050Y044440D01*
X018087Y044478D02*
X017449Y044478D01*
X017449Y044516D02*
X018125Y044516D01*
X018163Y044554D02*
X017449Y044554D01*
X017449Y044592D02*
X018230Y044592D01*
X018322Y044629D02*
X017449Y044629D01*
X017449Y046182D02*
X019528Y046182D01*
X019513Y046144D02*
X019598Y046350D01*
X019755Y046508D01*
X019817Y046533D01*
X019755Y046559D01*
X019598Y046716D01*
X019513Y046922D01*
X019513Y047144D01*
X019598Y047350D01*
X019755Y047508D01*
X019961Y047593D01*
X020184Y047593D01*
X020389Y047508D01*
X020756Y047508D01*
X020755Y047508D02*
X020598Y047350D01*
X020572Y047288D01*
X020547Y047350D01*
X020389Y047508D01*
X020427Y047470D02*
X020718Y047470D01*
X020755Y047508D02*
X020961Y047593D01*
X021184Y047593D01*
X021389Y047508D01*
X031389Y047508D01*
X031374Y047545D02*
X021298Y047545D01*
X021389Y047508D02*
X021547Y047350D01*
X021632Y047144D01*
X021632Y046922D01*
X021547Y046716D01*
X021389Y046559D01*
X021328Y046533D01*
X021389Y046508D01*
X021547Y046350D01*
X021632Y046144D01*
X045185Y046144D01*
X045203Y046162D02*
X045162Y046121D01*
X045106Y045985D01*
X045106Y045839D01*
X045162Y045703D01*
X045266Y045599D01*
X045401Y045543D01*
X045548Y045543D01*
X045683Y045599D01*
X045686Y045602D01*
X047714Y045602D01*
X047724Y045578D01*
X047828Y045474D01*
X047964Y045418D01*
X048110Y045418D01*
X048246Y045474D01*
X048350Y045578D01*
X048406Y045714D01*
X048406Y045860D01*
X048350Y045996D01*
X048246Y046100D01*
X048110Y046156D01*
X048106Y046156D01*
X048100Y046162D01*
X048106Y046168D01*
X048110Y046168D01*
X048246Y046224D01*
X048350Y046328D01*
X048406Y046464D01*
X048406Y046610D01*
X048350Y046746D01*
X048246Y046850D01*
X048110Y046906D01*
X047964Y046906D01*
X047828Y046850D01*
X047724Y046746D01*
X047714Y046722D01*
X045686Y046722D01*
X045683Y046725D01*
X045548Y046781D01*
X045401Y046781D01*
X045266Y046725D01*
X045162Y046621D01*
X045106Y046485D01*
X032425Y046485D01*
X032412Y046453D02*
X032502Y046670D01*
X032502Y046904D01*
X032412Y047121D01*
X032246Y047287D01*
X032246Y047287D01*
X032412Y047453D01*
X032502Y047670D01*
X032502Y047904D01*
X032412Y048121D01*
X032246Y048287D01*
X032127Y048336D01*
X032127Y048771D01*
X032740Y049385D01*
X036643Y049385D01*
X036836Y049363D01*
X032719Y049363D01*
X032681Y049325D02*
X036836Y049325D01*
X036836Y049288D02*
X032643Y049288D01*
X032605Y049250D02*
X036845Y049250D01*
X036836Y049272D02*
X036895Y049129D01*
X037004Y049020D01*
X037147Y048961D01*
X037302Y048961D01*
X037445Y049020D01*
X037554Y049129D01*
X037613Y049272D01*
X037613Y049427D01*
X037564Y049544D01*
X037564Y049643D01*
X037570Y049692D01*
X037564Y049710D01*
X037564Y049730D01*
X037546Y049775D01*
X037532Y049821D01*
X037520Y049837D01*
X037512Y049854D01*
X037478Y049889D01*
X037448Y049927D01*
X037431Y049936D01*
X037417Y049950D01*
X037372Y049969D01*
X037329Y049992D01*
X037310Y049994D01*
X037292Y050002D01*
X037243Y050002D01*
X036747Y050057D01*
X036730Y050064D01*
X036681Y050064D01*
X036632Y050070D01*
X036614Y050064D01*
X032532Y050064D01*
X032407Y050012D01*
X031595Y049200D01*
X031499Y049104D01*
X031447Y048980D01*
X031447Y048156D01*
X031412Y048121D01*
X031322Y047904D01*
X031322Y047670D01*
X031412Y047453D01*
X031578Y047287D01*
X031412Y047121D01*
X031322Y046904D01*
X031322Y046670D01*
X031412Y046453D01*
X031578Y046287D01*
X031795Y046197D01*
X032029Y046197D01*
X032246Y046287D01*
X032412Y046453D01*
X032406Y046447D02*
X045106Y046447D01*
X045106Y046409D02*
X032368Y046409D01*
X032330Y046372D02*
X045106Y046372D01*
X045106Y046339D02*
X045162Y046203D01*
X045203Y046162D01*
X045183Y046182D02*
X021616Y046182D01*
X021632Y046144D02*
X021632Y045922D01*
X021547Y045716D01*
X021389Y045559D01*
X021328Y045533D01*
X021389Y045508D01*
X021547Y045350D01*
X021632Y045144D01*
X021632Y044922D01*
X021547Y044716D01*
X021389Y044559D01*
X021328Y044533D01*
X021389Y044508D01*
X021547Y044350D01*
X021560Y044320D01*
X021597Y044304D01*
X022593Y043308D01*
X022683Y043218D01*
X022732Y043101D01*
X022732Y034981D01*
X029168Y028488D01*
X029168Y028610D01*
X029047Y028610D01*
X029085Y028572D02*
X029168Y028572D01*
X029168Y028535D02*
X029122Y028535D01*
X029160Y028497D02*
X029168Y028497D01*
X029168Y028610D02*
X029224Y028746D01*
X029227Y028749D01*
X029227Y028909D01*
X028968Y029168D01*
X028964Y029168D01*
X028828Y029224D01*
X028724Y029328D01*
X028668Y029464D01*
X028668Y029610D01*
X028724Y029746D01*
X028828Y029850D01*
X028964Y029906D01*
X029110Y029906D01*
X029246Y029850D01*
X029350Y029746D01*
X029406Y029610D01*
X029406Y029606D01*
X029800Y029212D01*
X029847Y029099D01*
X029847Y028749D01*
X029850Y028746D01*
X029906Y028610D01*
X029890Y028648D02*
X034276Y028648D01*
X034238Y028686D02*
X029874Y028686D01*
X029859Y028724D02*
X034200Y028724D01*
X034162Y028762D02*
X029847Y028762D01*
X029847Y028800D02*
X034124Y028800D01*
X034086Y028838D02*
X029847Y028838D01*
X029847Y028875D02*
X034048Y028875D01*
X034011Y028913D02*
X029847Y028913D01*
X029847Y028951D02*
X033973Y028951D01*
X033935Y028989D02*
X029847Y028989D01*
X029847Y029027D02*
X033897Y029027D01*
X033859Y029065D02*
X029847Y029065D01*
X029845Y029103D02*
X033821Y029103D01*
X033783Y029141D02*
X029829Y029141D01*
X029814Y029178D02*
X033746Y029178D01*
X033708Y029216D02*
X029796Y029216D01*
X029758Y029254D02*
X033670Y029254D01*
X033632Y029292D02*
X029720Y029292D01*
X029682Y029330D02*
X033594Y029330D01*
X033556Y029368D02*
X029644Y029368D01*
X029606Y029406D02*
X033518Y029406D01*
X033480Y029443D02*
X029568Y029443D01*
X029531Y029481D02*
X033443Y029481D01*
X033405Y029519D02*
X029493Y029519D01*
X029455Y029557D02*
X033367Y029557D01*
X033329Y029595D02*
X029417Y029595D01*
X029396Y029633D02*
X033291Y029633D01*
X033253Y029671D02*
X029381Y029671D01*
X029365Y029709D02*
X033215Y029709D01*
X033177Y029746D02*
X029349Y029746D01*
X029311Y029784D02*
X033140Y029784D01*
X033102Y029822D02*
X029273Y029822D01*
X029221Y029860D02*
X033064Y029860D01*
X033026Y029898D02*
X029129Y029898D01*
X028945Y029898D02*
X027771Y029898D01*
X027808Y029860D02*
X028853Y029860D01*
X028801Y029822D02*
X027846Y029822D01*
X027883Y029784D02*
X028763Y029784D01*
X028725Y029746D02*
X027921Y029746D01*
X027958Y029709D02*
X028709Y029709D01*
X028693Y029671D02*
X027996Y029671D01*
X028033Y029633D02*
X028678Y029633D01*
X028668Y029595D02*
X028071Y029595D01*
X028109Y029557D02*
X028668Y029557D01*
X028668Y029519D02*
X028146Y029519D01*
X028184Y029481D02*
X028668Y029481D01*
X028677Y029443D02*
X028221Y029443D01*
X028259Y029406D02*
X028692Y029406D01*
X028708Y029368D02*
X028296Y029368D01*
X028334Y029330D02*
X028724Y029330D01*
X028761Y029292D02*
X028371Y029292D01*
X028409Y029254D02*
X028798Y029254D01*
X028848Y029216D02*
X028446Y029216D01*
X028484Y029178D02*
X028939Y029178D01*
X028996Y029141D02*
X028521Y029141D01*
X028559Y029103D02*
X029033Y029103D01*
X029071Y029065D02*
X028597Y029065D01*
X028634Y029027D02*
X029109Y029027D01*
X029147Y028989D02*
X028672Y028989D01*
X028709Y028951D02*
X029185Y028951D01*
X029223Y028913D02*
X028747Y028913D01*
X028784Y028875D02*
X029227Y028875D01*
X029227Y028838D02*
X028822Y028838D01*
X028859Y028800D02*
X029227Y028800D01*
X029227Y028762D02*
X028897Y028762D01*
X028934Y028724D02*
X029215Y028724D01*
X029200Y028686D02*
X028972Y028686D01*
X029010Y028648D02*
X029184Y028648D01*
X029498Y028156D02*
X034768Y028156D01*
X034882Y028042D02*
X034259Y028042D01*
X034350Y028004D02*
X034920Y028004D01*
X034957Y027967D02*
X034407Y027967D01*
X034445Y027929D02*
X034995Y027929D01*
X035033Y027891D02*
X034483Y027891D01*
X034503Y027853D02*
X035071Y027853D01*
X035109Y027815D02*
X034519Y027815D01*
X034636Y027626D02*
X035329Y027626D01*
X035277Y027647D02*
X035147Y027777D01*
X035420Y027588D02*
X034674Y027588D01*
X034065Y028042D02*
X033759Y028042D01*
X033850Y028004D02*
X033974Y028004D01*
X033917Y027967D02*
X033907Y027967D01*
X033557Y027285D02*
X030241Y027285D01*
X030183Y027323D02*
X033466Y027323D01*
X033414Y027361D02*
X030270Y027361D01*
X029905Y026717D02*
X030925Y025697D01*
X030942Y025656D02*
X030446Y025656D01*
X030482Y025619D02*
X030958Y025619D01*
X030973Y025581D02*
X030518Y025581D01*
X030554Y025543D02*
X031010Y025543D01*
X031048Y025505D02*
X030590Y025505D01*
X030626Y025467D02*
X031096Y025467D01*
X031187Y025429D02*
X030662Y025429D01*
X029381Y024217D02*
X021602Y024217D01*
X021618Y024180D02*
X029417Y024180D01*
X029454Y024142D02*
X021632Y024142D01*
X021632Y024104D02*
X029490Y024104D01*
X029527Y024066D02*
X021632Y024066D01*
X021632Y024028D02*
X029563Y024028D01*
X029600Y023990D02*
X021632Y023990D01*
X021632Y023952D02*
X029636Y023952D01*
X029673Y023914D02*
X021629Y023914D01*
X021613Y023877D02*
X029709Y023877D01*
X029746Y023839D02*
X021598Y023839D01*
X021582Y023801D02*
X029782Y023801D01*
X029819Y023763D02*
X021566Y023763D01*
X021551Y023725D02*
X029855Y023725D01*
X029892Y023687D02*
X021518Y023687D01*
X021480Y023649D02*
X029928Y023649D01*
X029965Y023611D02*
X021442Y023611D01*
X021404Y023574D02*
X030001Y023574D01*
X030038Y023536D02*
X021334Y023536D01*
X021243Y023498D02*
X030074Y023498D01*
X030111Y023460D02*
X017449Y023460D01*
X017449Y023498D02*
X019902Y023498D01*
X019811Y023536D02*
X017449Y023536D01*
X017449Y023574D02*
X019740Y023574D01*
X019703Y023611D02*
X017449Y023611D01*
X017449Y023649D02*
X019665Y023649D01*
X019627Y023687D02*
X017449Y023687D01*
X017449Y023725D02*
X019594Y023725D01*
X019579Y023763D02*
X017449Y023763D01*
X017449Y023801D02*
X019563Y023801D01*
X019547Y023839D02*
X017449Y023839D01*
X017449Y023877D02*
X019531Y023877D01*
X019516Y023914D02*
X017449Y023914D01*
X017449Y023952D02*
X019513Y023952D01*
X019513Y023990D02*
X017449Y023990D01*
X017449Y024028D02*
X019513Y024028D01*
X019513Y024066D02*
X017449Y024066D01*
X017449Y024104D02*
X019513Y024104D01*
X019513Y024142D02*
X017449Y024142D01*
X017449Y024180D02*
X019527Y024180D01*
X019543Y024217D02*
X017449Y024217D01*
X017449Y024255D02*
X019559Y024255D01*
X019574Y024293D02*
X017449Y024293D01*
X017449Y024331D02*
X019590Y024331D01*
X019617Y024369D02*
X017449Y024369D01*
X017449Y024407D02*
X019655Y024407D01*
X019692Y024445D02*
X017449Y024445D01*
X017449Y024482D02*
X019730Y024482D01*
X019786Y024520D02*
X017449Y024520D01*
X017449Y024558D02*
X019756Y024558D01*
X019718Y024596D02*
X017449Y024596D01*
X017449Y024634D02*
X019680Y024634D01*
X019642Y024672D02*
X017449Y024672D01*
X017449Y024710D02*
X019604Y024710D01*
X019585Y024748D02*
X017449Y024748D01*
X017449Y024785D02*
X019569Y024785D01*
X019554Y024823D02*
X017449Y024823D01*
X017449Y024861D02*
X019538Y024861D01*
X019522Y024899D02*
X017449Y024899D01*
X017449Y024937D02*
X019513Y024937D01*
X019513Y024975D02*
X017449Y024975D01*
X017449Y025013D02*
X019513Y025013D01*
X019513Y025051D02*
X017449Y025051D01*
X017449Y025088D02*
X019513Y025088D01*
X019513Y025126D02*
X017449Y025126D01*
X017449Y025164D02*
X019521Y025164D01*
X019537Y025202D02*
X017449Y025202D01*
X017449Y025240D02*
X019552Y025240D01*
X019568Y025278D02*
X017449Y025278D01*
X017449Y025316D02*
X019584Y025316D01*
X019601Y025353D02*
X017449Y025353D01*
X017449Y025391D02*
X019639Y025391D01*
X019677Y025429D02*
X017449Y025429D01*
X017449Y025467D02*
X019715Y025467D01*
X019753Y025505D02*
X017449Y025505D01*
X017449Y025543D02*
X019793Y025543D01*
X019733Y025581D02*
X017449Y025581D01*
X017449Y025619D02*
X019695Y025619D01*
X019658Y025656D02*
X017449Y025656D01*
X017449Y025694D02*
X019620Y025694D01*
X019591Y025732D02*
X017449Y025732D01*
X017449Y025770D02*
X019576Y025770D01*
X019560Y025808D02*
X017449Y025808D01*
X017449Y025846D02*
X019544Y025846D01*
X019529Y025884D02*
X017449Y025884D01*
X017449Y025922D02*
X019513Y025922D01*
X019513Y025959D02*
X017449Y025959D01*
X017449Y025997D02*
X019513Y025997D01*
X019513Y026035D02*
X017449Y026035D01*
X017449Y026073D02*
X019513Y026073D01*
X019513Y026111D02*
X017449Y026111D01*
X017449Y026149D02*
X019515Y026149D01*
X019530Y026187D02*
X017449Y026187D01*
X017449Y026225D02*
X019546Y026225D01*
X019562Y026262D02*
X017449Y026262D01*
X017449Y026300D02*
X019577Y026300D01*
X019593Y026338D02*
X017449Y026338D01*
X017449Y026376D02*
X019624Y026376D01*
X019662Y026414D02*
X017449Y026414D01*
X017449Y026452D02*
X019700Y026452D01*
X019737Y026490D02*
X017449Y026490D01*
X017449Y026527D02*
X019803Y026527D01*
X019749Y026565D02*
X017449Y026565D01*
X017449Y026603D02*
X019711Y026603D01*
X019673Y026641D02*
X017449Y026641D01*
X017449Y026679D02*
X019635Y026679D01*
X019598Y026717D02*
X017449Y026717D01*
X017449Y026755D02*
X019582Y026755D01*
X019566Y026793D02*
X017449Y026793D01*
X017449Y026830D02*
X019551Y026830D01*
X019535Y026868D02*
X017449Y026868D01*
X017449Y026906D02*
X019519Y026906D01*
X019513Y026944D02*
X017449Y026944D01*
X017449Y026982D02*
X019513Y026982D01*
X019513Y027020D02*
X017449Y027020D01*
X017449Y027058D02*
X019513Y027058D01*
X019513Y027096D02*
X017449Y027096D01*
X017449Y027133D02*
X019513Y027133D01*
X019524Y027171D02*
X017449Y027171D01*
X017449Y027209D02*
X019540Y027209D01*
X019555Y027247D02*
X017449Y027247D01*
X017449Y027285D02*
X019571Y027285D01*
X019587Y027323D02*
X017449Y027323D01*
X017449Y027361D02*
X019608Y027361D01*
X019646Y027398D02*
X017449Y027398D01*
X017449Y027436D02*
X019684Y027436D01*
X019722Y027474D02*
X017449Y027474D01*
X017449Y027512D02*
X019766Y027512D01*
X019776Y027550D02*
X017449Y027550D01*
X017449Y027588D02*
X019726Y027588D01*
X019688Y027626D02*
X017449Y027626D01*
X017449Y027664D02*
X019650Y027664D01*
X019613Y027701D02*
X017449Y027701D01*
X017449Y027739D02*
X019588Y027739D01*
X019573Y027777D02*
X017449Y027777D01*
X017449Y027815D02*
X019557Y027815D01*
X019541Y027853D02*
X017449Y027853D01*
X017449Y027891D02*
X019526Y027891D01*
X019513Y027929D02*
X017449Y027929D01*
X017449Y027967D02*
X019513Y027967D01*
X019513Y028004D02*
X017449Y028004D01*
X017449Y028042D02*
X019513Y028042D01*
X019513Y028080D02*
X017449Y028080D01*
X017449Y028118D02*
X019513Y028118D01*
X019518Y028156D02*
X017449Y028156D01*
X017449Y028194D02*
X019533Y028194D01*
X019549Y028232D02*
X017449Y028232D01*
X017449Y028269D02*
X019565Y028269D01*
X019580Y028307D02*
X017449Y028307D01*
X017449Y028345D02*
X019596Y028345D01*
X019631Y028383D02*
X017449Y028383D01*
X017449Y028421D02*
X019669Y028421D01*
X019707Y028459D02*
X017449Y028459D01*
X017449Y028497D02*
X019745Y028497D01*
X019742Y028572D02*
X017449Y028572D01*
X017449Y028535D02*
X019813Y028535D01*
X019704Y028610D02*
X017449Y028610D01*
X017449Y028648D02*
X019666Y028648D01*
X019628Y028686D02*
X017449Y028686D01*
X017449Y028724D02*
X019595Y028724D01*
X019579Y028762D02*
X017449Y028762D01*
X017449Y028800D02*
X019563Y028800D01*
X019548Y028838D02*
X017449Y028838D01*
X017449Y028875D02*
X019532Y028875D01*
X019516Y028913D02*
X017449Y028913D01*
X017449Y028951D02*
X019513Y028951D01*
X019513Y028989D02*
X017449Y028989D01*
X017449Y029027D02*
X019513Y029027D01*
X019513Y029065D02*
X017449Y029065D01*
X017449Y029103D02*
X019513Y029103D01*
X019513Y029141D02*
X017449Y029141D01*
X017449Y029178D02*
X019527Y029178D01*
X019543Y029216D02*
X017449Y029216D01*
X017449Y029254D02*
X019558Y029254D01*
X019574Y029292D02*
X017449Y029292D01*
X017449Y029330D02*
X019590Y029330D01*
X019616Y029368D02*
X017449Y029368D01*
X017449Y029406D02*
X019653Y029406D01*
X019691Y029443D02*
X017449Y029443D01*
X017449Y029481D02*
X019729Y029481D01*
X019784Y029519D02*
X017449Y029519D01*
X017449Y029557D02*
X019759Y029557D01*
X019719Y029595D02*
X017449Y029595D01*
X017449Y029633D02*
X019681Y029633D01*
X019643Y029671D02*
X017449Y029671D01*
X017449Y029709D02*
X019605Y029709D01*
X019585Y029746D02*
X017449Y029746D01*
X017449Y029784D02*
X019570Y029784D01*
X019554Y029822D02*
X017449Y029822D01*
X017449Y029860D02*
X019538Y029860D01*
X019523Y029898D02*
X017449Y029898D01*
X017449Y029936D02*
X019513Y029936D01*
X019513Y029974D02*
X017449Y029974D01*
X017449Y030012D02*
X019513Y030012D01*
X019513Y030049D02*
X017449Y030049D01*
X017449Y030087D02*
X019513Y030087D01*
X019513Y030125D02*
X017449Y030125D01*
X017449Y030163D02*
X019520Y030163D01*
X019536Y030201D02*
X017449Y030201D01*
X017449Y030239D02*
X019552Y030239D01*
X019568Y030277D02*
X017449Y030277D01*
X017449Y030314D02*
X019583Y030314D01*
X019600Y030352D02*
X017449Y030352D01*
X017449Y030390D02*
X019638Y030390D01*
X019676Y030428D02*
X017449Y030428D01*
X017449Y030466D02*
X019714Y030466D01*
X019752Y030504D02*
X017449Y030504D01*
X017449Y030542D02*
X019796Y030542D01*
X019734Y030580D02*
X017449Y030580D01*
X017449Y030617D02*
X019697Y030617D01*
X019659Y030655D02*
X017449Y030655D01*
X017449Y030693D02*
X019621Y030693D01*
X019592Y030731D02*
X017449Y030731D01*
X017449Y030769D02*
X019576Y030769D01*
X019560Y030807D02*
X017449Y030807D01*
X017449Y030845D02*
X019545Y030845D01*
X019529Y030883D02*
X017449Y030883D01*
X017449Y030920D02*
X019513Y030920D01*
X019513Y030958D02*
X017449Y030958D01*
X017449Y030996D02*
X019513Y030996D01*
X019513Y031034D02*
X017449Y031034D01*
X017449Y031072D02*
X019513Y031072D01*
X019513Y031110D02*
X017449Y031110D01*
X017449Y031148D02*
X019514Y031148D01*
X019530Y031186D02*
X017449Y031186D01*
X017449Y031223D02*
X019545Y031223D01*
X019561Y031261D02*
X017449Y031261D01*
X017449Y031299D02*
X019577Y031299D01*
X019593Y031337D02*
X017449Y031337D01*
X017449Y031375D02*
X019623Y031375D01*
X019661Y031413D02*
X017449Y031413D01*
X017449Y031451D02*
X019698Y031451D01*
X019736Y031488D02*
X017449Y031488D01*
X017449Y031526D02*
X019801Y031526D01*
X019750Y031564D02*
X017449Y031564D01*
X017449Y031602D02*
X019712Y031602D01*
X019674Y031640D02*
X017449Y031640D01*
X017449Y031678D02*
X019636Y031678D01*
X019598Y031716D02*
X017449Y031716D01*
X017449Y031754D02*
X019582Y031754D01*
X019567Y031791D02*
X017449Y031791D01*
X017449Y031829D02*
X019551Y031829D01*
X019535Y031867D02*
X017449Y031867D01*
X017449Y031905D02*
X019520Y031905D01*
X019513Y031943D02*
X017449Y031943D01*
X017449Y031981D02*
X019513Y031981D01*
X019513Y032019D02*
X017449Y032019D01*
X017449Y032057D02*
X019513Y032057D01*
X019513Y032094D02*
X017449Y032094D01*
X017449Y032132D02*
X019513Y032132D01*
X019523Y032170D02*
X017449Y032170D01*
X017449Y032208D02*
X019539Y032208D01*
X019555Y032246D02*
X017449Y032246D01*
X017449Y032284D02*
X019570Y032284D01*
X019586Y032322D02*
X017449Y032322D01*
X017449Y032359D02*
X019607Y032359D01*
X019645Y032397D02*
X017449Y032397D01*
X017449Y032435D02*
X019683Y032435D01*
X019721Y032473D02*
X017449Y032473D01*
X017449Y032511D02*
X019764Y032511D01*
X019779Y032549D02*
X017449Y032549D01*
X017449Y032587D02*
X019727Y032587D01*
X019689Y032625D02*
X017449Y032625D01*
X017449Y032662D02*
X019652Y032662D01*
X019614Y032700D02*
X017449Y032700D01*
X017449Y032738D02*
X019589Y032738D01*
X019573Y032776D02*
X017449Y032776D01*
X017449Y032814D02*
X019557Y032814D01*
X019542Y032852D02*
X017449Y032852D01*
X017449Y032890D02*
X019526Y032890D01*
X019513Y032928D02*
X017449Y032928D01*
X017449Y032965D02*
X019513Y032965D01*
X019513Y033003D02*
X017449Y033003D01*
X017449Y033041D02*
X019513Y033041D01*
X019513Y033079D02*
X017449Y033079D01*
X017449Y033117D02*
X019513Y033117D01*
X019517Y033155D02*
X017449Y033155D01*
X017449Y033193D02*
X019533Y033193D01*
X019548Y033231D02*
X017449Y033231D01*
X017449Y033268D02*
X019564Y033268D01*
X019580Y033306D02*
X017449Y033306D01*
X017449Y033344D02*
X019595Y033344D01*
X019630Y033382D02*
X017449Y033382D01*
X017449Y033420D02*
X019668Y033420D01*
X019706Y033458D02*
X017449Y033458D01*
X017449Y033496D02*
X019743Y033496D01*
X019743Y033571D02*
X017449Y033571D01*
X017449Y033533D02*
X019816Y033533D01*
X019705Y033609D02*
X017449Y033609D01*
X017449Y033647D02*
X019667Y033647D01*
X019629Y033685D02*
X017449Y033685D01*
X017449Y033723D02*
X019595Y033723D01*
X019579Y033761D02*
X017449Y033761D01*
X017449Y033799D02*
X019564Y033799D01*
X019548Y033836D02*
X017449Y033836D01*
X017449Y033874D02*
X019532Y033874D01*
X019517Y033912D02*
X017449Y033912D01*
X017449Y033950D02*
X019513Y033950D01*
X019513Y033988D02*
X017449Y033988D01*
X017449Y034026D02*
X019513Y034026D01*
X019513Y034064D02*
X017449Y034064D01*
X017449Y034102D02*
X019513Y034102D01*
X019513Y034139D02*
X017449Y034139D01*
X017449Y034177D02*
X019526Y034177D01*
X019542Y034215D02*
X017449Y034215D01*
X017449Y034253D02*
X019558Y034253D01*
X019573Y034291D02*
X017449Y034291D01*
X017449Y034329D02*
X019589Y034329D01*
X019614Y034367D02*
X017449Y034367D01*
X017449Y034404D02*
X019652Y034404D01*
X019690Y034442D02*
X017449Y034442D01*
X017449Y034480D02*
X019728Y034480D01*
X019781Y034518D02*
X017448Y034518D01*
X017448Y034556D02*
X019762Y034556D01*
X019720Y034594D02*
X017448Y034594D01*
X017448Y034632D02*
X019682Y034632D01*
X019644Y034670D02*
X017448Y034670D01*
X017448Y034707D02*
X019607Y034707D01*
X019586Y034745D02*
X017448Y034745D01*
X017448Y034783D02*
X019570Y034783D01*
X019554Y034821D02*
X017448Y034821D01*
X017448Y034859D02*
X019539Y034859D01*
X019523Y034897D02*
X017448Y034897D01*
X017448Y034935D02*
X019513Y034935D01*
X019513Y034973D02*
X017448Y034973D01*
X017448Y035010D02*
X019513Y035010D01*
X019513Y035048D02*
X017448Y035048D01*
X017448Y035086D02*
X019513Y035086D01*
X019513Y035124D02*
X017448Y035124D01*
X017448Y035162D02*
X019520Y035162D01*
X019536Y035200D02*
X017448Y035200D01*
X017448Y035238D02*
X019551Y035238D01*
X019567Y035276D02*
X017448Y035276D01*
X017448Y035313D02*
X019583Y035313D01*
X019599Y035351D02*
X017448Y035351D01*
X017448Y035389D02*
X019637Y035389D01*
X019675Y035427D02*
X017448Y035427D01*
X017448Y035465D02*
X019713Y035465D01*
X019751Y035503D02*
X017448Y035503D01*
X017448Y035541D02*
X019799Y035541D01*
X019736Y035578D02*
X017448Y035578D01*
X017448Y035616D02*
X019698Y035616D01*
X019660Y035654D02*
X017448Y035654D01*
X017448Y035692D02*
X019622Y035692D01*
X019592Y035730D02*
X017448Y035730D01*
X017448Y035768D02*
X019577Y035768D01*
X019561Y035806D02*
X017448Y035806D01*
X017448Y035844D02*
X019545Y035844D01*
X019529Y035881D02*
X017448Y035881D01*
X017448Y035919D02*
X019514Y035919D01*
X019513Y035957D02*
X017448Y035957D01*
X017448Y035995D02*
X019513Y035995D01*
X019513Y036033D02*
X017448Y036033D01*
X017448Y036071D02*
X019513Y036071D01*
X019513Y036109D02*
X017448Y036109D01*
X017448Y036147D02*
X019514Y036147D01*
X019529Y036184D02*
X017448Y036184D01*
X017448Y036222D02*
X019545Y036222D01*
X019561Y036260D02*
X017448Y036260D01*
X017448Y036298D02*
X019576Y036298D01*
X019592Y036336D02*
X017448Y036336D01*
X017448Y036374D02*
X019622Y036374D01*
X019659Y036412D02*
X017448Y036412D01*
X017448Y036449D02*
X019697Y036449D01*
X019735Y036487D02*
X017448Y036487D01*
X017448Y036525D02*
X019798Y036525D01*
X019751Y036563D02*
X017449Y036563D01*
X017449Y036601D02*
X019713Y036601D01*
X019675Y036639D02*
X017449Y036639D01*
X017449Y036677D02*
X019637Y036677D01*
X019599Y036715D02*
X017449Y036715D01*
X017449Y036752D02*
X019583Y036752D01*
X019567Y036790D02*
X017449Y036790D01*
X017449Y036828D02*
X019552Y036828D01*
X019536Y036866D02*
X017449Y036866D01*
X017449Y036904D02*
X019520Y036904D01*
X019513Y036942D02*
X017449Y036942D01*
X017449Y036980D02*
X019513Y036980D01*
X019513Y037018D02*
X017449Y037018D01*
X017449Y037055D02*
X019513Y037055D01*
X019513Y037093D02*
X017449Y037093D01*
X017449Y037131D02*
X019513Y037131D01*
X019523Y037169D02*
X017449Y037169D01*
X017449Y037207D02*
X019539Y037207D01*
X019554Y037245D02*
X017449Y037245D01*
X017449Y037283D02*
X019570Y037283D01*
X019586Y037321D02*
X017449Y037321D01*
X017449Y037358D02*
X019606Y037358D01*
X019644Y037396D02*
X017449Y037396D01*
X017449Y037434D02*
X019682Y037434D01*
X019720Y037472D02*
X017449Y037472D01*
X017449Y037510D02*
X019761Y037510D01*
X019782Y037548D02*
X017449Y037548D01*
X017449Y037586D02*
X019728Y037586D01*
X019691Y037623D02*
X017449Y037623D01*
X017449Y037661D02*
X019653Y037661D01*
X019615Y037699D02*
X017449Y037699D01*
X017449Y037737D02*
X019589Y037737D01*
X019574Y037775D02*
X017449Y037775D01*
X017449Y037813D02*
X019558Y037813D01*
X019542Y037851D02*
X017449Y037851D01*
X017449Y037889D02*
X019526Y037889D01*
X019513Y037926D02*
X017449Y037926D01*
X017449Y037964D02*
X019513Y037964D01*
X019513Y038002D02*
X017449Y038002D01*
X017449Y038040D02*
X019513Y038040D01*
X019513Y038078D02*
X017449Y038078D01*
X017449Y038116D02*
X019513Y038116D01*
X019517Y038154D02*
X017449Y038154D01*
X017449Y038192D02*
X019532Y038192D01*
X019548Y038229D02*
X017449Y038229D01*
X017449Y038267D02*
X019564Y038267D01*
X019579Y038305D02*
X017449Y038305D01*
X017449Y038343D02*
X019595Y038343D01*
X019629Y038381D02*
X017449Y038381D01*
X017449Y038419D02*
X019667Y038419D01*
X019704Y038457D02*
X017449Y038457D01*
X017449Y038494D02*
X019742Y038494D01*
X019744Y038570D02*
X017449Y038570D01*
X017449Y038532D02*
X019815Y038532D01*
X019706Y038608D02*
X017449Y038608D01*
X017449Y038646D02*
X019668Y038646D01*
X019630Y038684D02*
X017449Y038684D01*
X017449Y038722D02*
X019596Y038722D01*
X019580Y038760D02*
X017449Y038760D01*
X017449Y038797D02*
X019564Y038797D01*
X019549Y038835D02*
X017449Y038835D01*
X017449Y038873D02*
X019533Y038873D01*
X019517Y038911D02*
X017449Y038911D01*
X017449Y038949D02*
X019513Y038949D01*
X019513Y038987D02*
X017449Y038987D01*
X017449Y039025D02*
X019513Y039025D01*
X019513Y039063D02*
X017449Y039063D01*
X017449Y039100D02*
X019513Y039100D01*
X019513Y039138D02*
X017449Y039138D01*
X017449Y039176D02*
X019526Y039176D01*
X019542Y039214D02*
X017449Y039214D01*
X017449Y039252D02*
X019557Y039252D01*
X019573Y039290D02*
X017449Y039290D01*
X017449Y039328D02*
X019589Y039328D01*
X019613Y039366D02*
X017449Y039366D01*
X017449Y039403D02*
X019651Y039403D01*
X019689Y039441D02*
X017449Y039441D01*
X017449Y039479D02*
X019727Y039479D01*
X019778Y039517D02*
X017449Y039517D01*
X017449Y039555D02*
X019764Y039555D01*
X019721Y039593D02*
X017449Y039593D01*
X017449Y039631D02*
X019683Y039631D01*
X019646Y039668D02*
X017449Y039668D01*
X017449Y039706D02*
X019608Y039706D01*
X019586Y039744D02*
X017449Y039744D01*
X017449Y039782D02*
X019571Y039782D01*
X019555Y039820D02*
X017449Y039820D01*
X017449Y039858D02*
X019539Y039858D01*
X019524Y039896D02*
X017449Y039896D01*
X017449Y039934D02*
X019513Y039934D01*
X019513Y039971D02*
X017449Y039971D01*
X017449Y040009D02*
X019513Y040009D01*
X019513Y040047D02*
X017449Y040047D01*
X017449Y040085D02*
X019513Y040085D01*
X019513Y040123D02*
X017449Y040123D01*
X017449Y040161D02*
X019520Y040161D01*
X019535Y040199D02*
X017449Y040199D01*
X017449Y040237D02*
X019551Y040237D01*
X019567Y040274D02*
X017449Y040274D01*
X017449Y040312D02*
X019582Y040312D01*
X019598Y040350D02*
X017449Y040350D01*
X017449Y040388D02*
X019636Y040388D01*
X019674Y040426D02*
X017449Y040426D01*
X017449Y040464D02*
X019712Y040464D01*
X019749Y040502D02*
X017449Y040502D01*
X017449Y040539D02*
X019802Y040539D01*
X019737Y040577D02*
X017449Y040577D01*
X017449Y040615D02*
X019699Y040615D01*
X019661Y040653D02*
X017449Y040653D01*
X017449Y040691D02*
X019623Y040691D01*
X019593Y040729D02*
X017449Y040729D01*
X017449Y040767D02*
X019577Y040767D01*
X019561Y040805D02*
X017449Y040805D01*
X017449Y040842D02*
X019546Y040842D01*
X019530Y040880D02*
X017449Y040880D01*
X017449Y040918D02*
X019514Y040918D01*
X019513Y040956D02*
X017449Y040956D01*
X017449Y040994D02*
X019513Y040994D01*
X019513Y041032D02*
X017449Y041032D01*
X017449Y041070D02*
X019513Y041070D01*
X019513Y041108D02*
X017449Y041108D01*
X017449Y041145D02*
X019513Y041145D01*
X019529Y041183D02*
X017449Y041183D01*
X017449Y041221D02*
X019545Y041221D01*
X019560Y041259D02*
X017449Y041259D01*
X017449Y041297D02*
X019576Y041297D01*
X019592Y041335D02*
X017449Y041335D01*
X017449Y041373D02*
X019620Y041373D01*
X019658Y041411D02*
X017449Y041411D01*
X017449Y041448D02*
X019696Y041448D01*
X019734Y041486D02*
X017449Y041486D01*
X017449Y041524D02*
X019795Y041524D01*
X019752Y041562D02*
X017449Y041562D01*
X017449Y041600D02*
X019714Y041600D01*
X019676Y041638D02*
X017449Y041638D01*
X017449Y041676D02*
X019638Y041676D01*
X019601Y041713D02*
X017449Y041713D01*
X017449Y041751D02*
X019583Y041751D01*
X019568Y041789D02*
X017449Y041789D01*
X017449Y041827D02*
X019552Y041827D01*
X019536Y041865D02*
X017449Y041865D01*
X017449Y041903D02*
X019521Y041903D01*
X019513Y041941D02*
X017449Y041941D01*
X017449Y041979D02*
X019513Y041979D01*
X019513Y042016D02*
X017449Y042016D01*
X017449Y042054D02*
X019513Y042054D01*
X019513Y042092D02*
X017449Y042092D01*
X017449Y042130D02*
X019513Y042130D01*
X019522Y042168D02*
X017449Y042168D01*
X017449Y042206D02*
X019538Y042206D01*
X019554Y042244D02*
X017449Y042244D01*
X017449Y042282D02*
X019570Y042282D01*
X019585Y042319D02*
X017449Y042319D01*
X017449Y042357D02*
X019605Y042357D01*
X019643Y042395D02*
X017449Y042395D01*
X017449Y046220D02*
X019544Y046220D01*
X019560Y046258D02*
X017449Y046258D01*
X017449Y046296D02*
X019575Y046296D01*
X019591Y046334D02*
X017449Y046334D01*
X017449Y046372D02*
X019619Y046372D01*
X019657Y046409D02*
X017449Y046409D01*
X017449Y046447D02*
X019695Y046447D01*
X019733Y046485D02*
X017449Y046485D01*
X017449Y046523D02*
X019793Y046523D01*
X019753Y046561D02*
X017449Y046561D01*
X017449Y046599D02*
X019715Y046599D01*
X019677Y046637D02*
X017449Y046637D01*
X017449Y046674D02*
X019640Y046674D01*
X019602Y046712D02*
X017449Y046712D01*
X017449Y046750D02*
X019584Y046750D01*
X019568Y046788D02*
X017449Y046788D01*
X017449Y046826D02*
X019552Y046826D01*
X019537Y046864D02*
X017449Y046864D01*
X017449Y046902D02*
X019521Y046902D01*
X019513Y046940D02*
X017449Y046940D01*
X017449Y046977D02*
X019513Y046977D01*
X019513Y047015D02*
X017449Y047015D01*
X017449Y047053D02*
X019513Y047053D01*
X019513Y047091D02*
X017449Y047091D01*
X017449Y047129D02*
X019513Y047129D01*
X019522Y047167D02*
X017449Y047167D01*
X017449Y047205D02*
X019538Y047205D01*
X019553Y047243D02*
X017449Y047243D01*
X017449Y047280D02*
X019569Y047280D01*
X019585Y047318D02*
X017449Y047318D01*
X017449Y047356D02*
X019604Y047356D01*
X019642Y047394D02*
X017449Y047394D01*
X017449Y047432D02*
X019680Y047432D01*
X019718Y047470D02*
X017449Y047470D01*
X017449Y047508D02*
X019756Y047508D01*
X019847Y047545D02*
X017449Y047545D01*
X017449Y047583D02*
X019938Y047583D01*
X020206Y047583D02*
X020938Y047583D01*
X020847Y047545D02*
X020298Y047545D01*
X020465Y047432D02*
X020680Y047432D01*
X020642Y047394D02*
X020503Y047394D01*
X020541Y047356D02*
X020604Y047356D01*
X020585Y047318D02*
X020560Y047318D01*
X021206Y047583D02*
X031358Y047583D01*
X031342Y047621D02*
X017449Y047621D01*
X017449Y047659D02*
X031327Y047659D01*
X031322Y047697D02*
X017449Y047697D01*
X017449Y047735D02*
X031322Y047735D01*
X031322Y047773D02*
X017449Y047773D01*
X017449Y047811D02*
X031322Y047811D01*
X031322Y047848D02*
X017449Y047848D01*
X017449Y047886D02*
X031322Y047886D01*
X031331Y047924D02*
X017449Y047924D01*
X017449Y047962D02*
X031346Y047962D01*
X031362Y048000D02*
X017449Y048000D01*
X017449Y048038D02*
X031378Y048038D01*
X031393Y048076D02*
X017449Y048076D01*
X017449Y048114D02*
X031409Y048114D01*
X031442Y048151D02*
X017449Y048151D01*
X017449Y048189D02*
X031447Y048189D01*
X031447Y048227D02*
X017449Y048227D01*
X017449Y048265D02*
X031447Y048265D01*
X031447Y048303D02*
X017449Y048303D01*
X017449Y048341D02*
X031447Y048341D01*
X031447Y048379D02*
X017449Y048379D01*
X017449Y048417D02*
X031447Y048417D01*
X031447Y048454D02*
X017449Y048454D01*
X017449Y048492D02*
X031447Y048492D01*
X031447Y048530D02*
X017449Y048530D01*
X017449Y048568D02*
X031447Y048568D01*
X031447Y048606D02*
X017449Y048606D01*
X017449Y048644D02*
X031447Y048644D01*
X031447Y048682D02*
X017449Y048682D01*
X017449Y048719D02*
X031447Y048719D01*
X031447Y048757D02*
X017449Y048757D01*
X017449Y048795D02*
X031447Y048795D01*
X031447Y048833D02*
X017449Y048833D01*
X017449Y048871D02*
X018947Y048871D01*
X018928Y048909D02*
X017449Y048909D01*
X017449Y048947D02*
X018928Y048947D01*
X018928Y048985D02*
X017449Y048985D01*
X017449Y049022D02*
X018928Y049022D01*
X018928Y049060D02*
X017449Y049060D01*
X017449Y049098D02*
X018928Y049098D01*
X018928Y049136D02*
X017449Y049136D01*
X017449Y049174D02*
X018928Y049174D01*
X018928Y049212D02*
X017449Y049212D01*
X017449Y049250D02*
X018928Y049250D01*
X018928Y049288D02*
X017449Y049288D01*
X017449Y049325D02*
X018928Y049325D01*
X018928Y049363D02*
X017449Y049363D01*
X017449Y049401D02*
X018928Y049401D01*
X018928Y049439D02*
X017449Y049439D01*
X017449Y049477D02*
X018928Y049477D01*
X018928Y049515D02*
X017449Y049515D01*
X017449Y049553D02*
X018928Y049553D01*
X018928Y049590D02*
X017449Y049590D01*
X017449Y049628D02*
X018928Y049628D01*
X018928Y049666D02*
X017449Y049666D01*
X017449Y049704D02*
X018928Y049704D01*
X018928Y049742D02*
X017449Y049742D01*
X017449Y049780D02*
X018928Y049780D01*
X018928Y049818D02*
X017449Y049818D01*
X017449Y049856D02*
X018928Y049856D01*
X018928Y049893D02*
X017449Y049893D01*
X017449Y049931D02*
X018928Y049931D01*
X018928Y049969D02*
X017449Y049969D01*
X017449Y050007D02*
X018928Y050007D01*
X018928Y050045D02*
X017449Y050045D01*
X017449Y050083D02*
X018928Y050083D01*
X018928Y050121D02*
X017449Y050121D01*
X017449Y050159D02*
X018928Y050159D01*
X018928Y050196D02*
X017449Y050196D01*
X017449Y050234D02*
X018928Y050234D01*
X018928Y050272D02*
X017449Y050272D01*
X017449Y050310D02*
X018928Y050310D01*
X018928Y050348D02*
X017449Y050348D01*
X017449Y050386D02*
X018928Y050386D01*
X018928Y050424D02*
X017449Y050424D01*
X017449Y050462D02*
X018928Y050462D01*
X018928Y050499D02*
X017449Y050499D01*
X017452Y050537D02*
X018928Y050537D01*
X018928Y050575D02*
X017454Y050575D01*
X017461Y050613D02*
X018928Y050613D01*
X018928Y050651D02*
X017471Y050651D01*
X017481Y050689D02*
X018928Y050689D01*
X018928Y050727D02*
X017491Y050727D01*
X017501Y050764D02*
X018928Y050764D01*
X018928Y050802D02*
X017517Y050802D01*
X017539Y050840D02*
X018928Y050840D01*
X018928Y050878D02*
X017560Y050878D01*
X017582Y050916D02*
X018928Y050916D01*
X018928Y050954D02*
X017604Y050954D01*
X017641Y050992D02*
X018928Y050992D01*
X018928Y051030D02*
X017679Y051030D01*
X017716Y051067D02*
X018928Y051067D01*
X018928Y051105D02*
X017760Y051105D01*
X017825Y051143D02*
X018928Y051143D01*
X018928Y051181D02*
X017891Y051181D01*
X018000Y051219D02*
X018928Y051219D01*
X022217Y049893D02*
X022249Y049893D01*
X022217Y049856D02*
X022301Y049856D01*
X022353Y049818D02*
X022217Y049818D01*
X022217Y049780D02*
X022437Y049780D01*
X022380Y049798D02*
X022380Y049798D01*
X022217Y049742D02*
X022554Y049742D01*
X022670Y049704D02*
X022217Y049704D01*
X022217Y049666D02*
X032061Y049666D01*
X032023Y049628D02*
X022217Y049628D01*
X022217Y049590D02*
X031985Y049590D01*
X031947Y049553D02*
X022217Y049553D01*
X022217Y049515D02*
X031909Y049515D01*
X031871Y049477D02*
X022217Y049477D01*
X022217Y049439D02*
X031834Y049439D01*
X031796Y049401D02*
X022217Y049401D01*
X022217Y049363D02*
X031758Y049363D01*
X031720Y049325D02*
X022217Y049325D01*
X022217Y049288D02*
X031682Y049288D01*
X031644Y049250D02*
X022217Y049250D01*
X022217Y049212D02*
X031606Y049212D01*
X031569Y049174D02*
X022217Y049174D01*
X022217Y049136D02*
X031531Y049136D01*
X031496Y049098D02*
X022217Y049098D01*
X022217Y049060D02*
X031481Y049060D01*
X031465Y049022D02*
X022217Y049022D01*
X022217Y048985D02*
X031449Y048985D01*
X031447Y048947D02*
X022217Y048947D01*
X022217Y048909D02*
X031447Y048909D01*
X031447Y048871D02*
X022198Y048871D01*
X021427Y047470D02*
X031405Y047470D01*
X031433Y047432D02*
X021465Y047432D01*
X021503Y047394D02*
X031471Y047394D01*
X031509Y047356D02*
X021541Y047356D01*
X021560Y047318D02*
X031547Y047318D01*
X031578Y047287D02*
X031578Y047287D01*
X031578Y047287D01*
X031571Y047280D02*
X021576Y047280D01*
X021591Y047243D02*
X031534Y047243D01*
X031496Y047205D02*
X021607Y047205D01*
X021623Y047167D02*
X031458Y047167D01*
X031420Y047129D02*
X021632Y047129D01*
X021632Y047091D02*
X031400Y047091D01*
X031384Y047053D02*
X021632Y047053D01*
X021632Y047015D02*
X031368Y047015D01*
X031353Y046977D02*
X021632Y046977D01*
X021632Y046940D02*
X031337Y046940D01*
X031322Y046902D02*
X021624Y046902D01*
X021608Y046864D02*
X031322Y046864D01*
X031322Y046826D02*
X021592Y046826D01*
X021577Y046788D02*
X031322Y046788D01*
X031322Y046750D02*
X021561Y046750D01*
X021543Y046712D02*
X031322Y046712D01*
X031322Y046674D02*
X021505Y046674D01*
X021467Y046637D02*
X031336Y046637D01*
X031352Y046599D02*
X021430Y046599D01*
X021392Y046561D02*
X031367Y046561D01*
X031383Y046523D02*
X021352Y046523D01*
X021412Y046485D02*
X031399Y046485D01*
X031418Y046447D02*
X021450Y046447D01*
X021488Y046409D02*
X031456Y046409D01*
X031494Y046372D02*
X021526Y046372D01*
X021554Y046334D02*
X031531Y046334D01*
X031569Y046296D02*
X021569Y046296D01*
X021585Y046258D02*
X031648Y046258D01*
X031740Y046220D02*
X021601Y046220D01*
X021632Y046106D02*
X045156Y046106D01*
X045140Y046069D02*
X021632Y046069D01*
X021632Y046031D02*
X045125Y046031D01*
X045109Y045993D02*
X021632Y045993D01*
X021632Y045955D02*
X045106Y045955D01*
X045106Y045917D02*
X021630Y045917D01*
X021615Y045879D02*
X045106Y045879D01*
X045106Y045841D02*
X021599Y045841D01*
X021583Y045803D02*
X045120Y045803D01*
X045136Y045766D02*
X021567Y045766D01*
X021552Y045728D02*
X045152Y045728D01*
X045175Y045690D02*
X021521Y045690D01*
X021483Y045652D02*
X045213Y045652D01*
X045251Y045614D02*
X021445Y045614D01*
X021407Y045576D02*
X045322Y045576D01*
X045627Y045576D02*
X047726Y045576D01*
X047764Y045538D02*
X021341Y045538D01*
X021397Y045500D02*
X047802Y045500D01*
X047857Y045463D02*
X021434Y045463D01*
X021472Y045425D02*
X047948Y045425D01*
X048126Y045425D02*
X053617Y045425D01*
X053617Y045463D02*
X051060Y045463D01*
X051052Y045459D02*
X051310Y045566D01*
X051508Y045764D01*
X051615Y046022D01*
X051615Y046302D01*
X051508Y046560D01*
X051310Y046758D01*
X051052Y046865D01*
X050772Y046865D01*
X050514Y046758D01*
X050316Y046560D01*
X050209Y046302D01*
X050209Y046022D01*
X050316Y045764D01*
X050514Y045566D01*
X050772Y045459D01*
X051052Y045459D01*
X051151Y045500D02*
X053617Y045500D01*
X053617Y045538D02*
X051242Y045538D01*
X051320Y045576D02*
X053617Y045576D01*
X053617Y045614D02*
X051358Y045614D01*
X051396Y045652D02*
X053617Y045652D01*
X053617Y045690D02*
X051433Y045690D01*
X051471Y045728D02*
X053617Y045728D01*
X053617Y045766D02*
X051508Y045766D01*
X051524Y045803D02*
X053617Y045803D01*
X053617Y045841D02*
X051540Y045841D01*
X051555Y045879D02*
X053617Y045879D01*
X053617Y045917D02*
X051571Y045917D01*
X051587Y045955D02*
X053617Y045955D01*
X053617Y045993D02*
X051602Y045993D01*
X051615Y046031D02*
X053617Y046031D01*
X053617Y046069D02*
X051615Y046069D01*
X051615Y046106D02*
X053617Y046106D01*
X053617Y046144D02*
X051615Y046144D01*
X051615Y046182D02*
X053617Y046182D01*
X053617Y046220D02*
X051615Y046220D01*
X051615Y046258D02*
X053617Y046258D01*
X053617Y046296D02*
X051615Y046296D01*
X051601Y046334D02*
X053617Y046334D01*
X053617Y046372D02*
X051586Y046372D01*
X051570Y046409D02*
X053617Y046409D01*
X053617Y046447D02*
X051554Y046447D01*
X051539Y046485D02*
X053617Y046485D01*
X053617Y046523D02*
X051523Y046523D01*
X051507Y046561D02*
X053617Y046561D01*
X053617Y046599D02*
X051469Y046599D01*
X051431Y046637D02*
X053617Y046637D01*
X053617Y046674D02*
X051393Y046674D01*
X051355Y046712D02*
X053617Y046712D01*
X053617Y046750D02*
X051317Y046750D01*
X051236Y046788D02*
X053617Y046788D01*
X053617Y046826D02*
X051145Y046826D01*
X051054Y046864D02*
X053617Y046864D01*
X053617Y046902D02*
X048120Y046902D01*
X048212Y046864D02*
X050770Y046864D01*
X050679Y046826D02*
X048270Y046826D01*
X048307Y046788D02*
X050588Y046788D01*
X050507Y046750D02*
X048345Y046750D01*
X048364Y046712D02*
X050469Y046712D01*
X050431Y046674D02*
X048379Y046674D01*
X048395Y046637D02*
X050393Y046637D01*
X050355Y046599D02*
X048406Y046599D01*
X048406Y046561D02*
X050317Y046561D01*
X050301Y046523D02*
X048406Y046523D01*
X048406Y046485D02*
X050285Y046485D01*
X050270Y046447D02*
X048399Y046447D01*
X048383Y046409D02*
X050254Y046409D01*
X050238Y046372D02*
X048368Y046372D01*
X048352Y046334D02*
X050223Y046334D01*
X050209Y046296D02*
X048317Y046296D01*
X048279Y046258D02*
X050209Y046258D01*
X050209Y046220D02*
X048235Y046220D01*
X048144Y046182D02*
X050209Y046182D01*
X050209Y046144D02*
X048138Y046144D01*
X048229Y046106D02*
X050209Y046106D01*
X050209Y046069D02*
X048277Y046069D01*
X048315Y046031D02*
X050209Y046031D01*
X050222Y045993D02*
X048351Y045993D01*
X048367Y045955D02*
X050237Y045955D01*
X050253Y045917D02*
X048382Y045917D01*
X048398Y045879D02*
X050269Y045879D01*
X050284Y045841D02*
X048406Y045841D01*
X048406Y045803D02*
X050300Y045803D01*
X050316Y045766D02*
X048406Y045766D01*
X048406Y045728D02*
X050353Y045728D01*
X050391Y045690D02*
X048396Y045690D01*
X048380Y045652D02*
X050428Y045652D01*
X050466Y045614D02*
X048365Y045614D01*
X048348Y045576D02*
X050504Y045576D01*
X050582Y045538D02*
X048310Y045538D01*
X048272Y045500D02*
X050673Y045500D01*
X050764Y045463D02*
X048217Y045463D01*
X047729Y046750D02*
X045622Y046750D01*
X045327Y046750D02*
X032502Y046750D01*
X032502Y046712D02*
X045253Y046712D01*
X045215Y046674D02*
X032502Y046674D01*
X032488Y046637D02*
X045178Y046637D01*
X045153Y046599D02*
X032472Y046599D01*
X032457Y046561D02*
X045137Y046561D01*
X045121Y046523D02*
X032441Y046523D01*
X032293Y046334D02*
X045108Y046334D01*
X045106Y046339D02*
X045106Y046485D01*
X045124Y046296D02*
X032255Y046296D01*
X032176Y046258D02*
X045139Y046258D01*
X045155Y046220D02*
X032084Y046220D01*
X032502Y046788D02*
X047767Y046788D01*
X047804Y046826D02*
X032502Y046826D01*
X032502Y046864D02*
X047862Y046864D01*
X047954Y046902D02*
X032502Y046902D01*
X032487Y046940D02*
X053617Y046940D01*
X053617Y046977D02*
X032471Y046977D01*
X032456Y047015D02*
X053617Y047015D01*
X053617Y047053D02*
X032440Y047053D01*
X032424Y047091D02*
X053617Y047091D01*
X053617Y047129D02*
X032404Y047129D01*
X032366Y047167D02*
X053617Y047167D01*
X053617Y047205D02*
X032328Y047205D01*
X032290Y047243D02*
X053617Y047243D01*
X053617Y047280D02*
X032253Y047280D01*
X032246Y047287D02*
X032246Y047287D01*
X032277Y047318D02*
X053617Y047318D01*
X053617Y047356D02*
X032315Y047356D01*
X032353Y047394D02*
X053617Y047394D01*
X053617Y047432D02*
X032391Y047432D01*
X032419Y047470D02*
X053617Y047470D01*
X053617Y047508D02*
X032435Y047508D01*
X032450Y047545D02*
X053617Y047545D01*
X053617Y047583D02*
X032466Y047583D01*
X032482Y047621D02*
X053617Y047621D01*
X053617Y047659D02*
X032497Y047659D01*
X032502Y047697D02*
X053617Y047697D01*
X053617Y047735D02*
X032502Y047735D01*
X032502Y047773D02*
X053617Y047773D01*
X053617Y047811D02*
X032502Y047811D01*
X032502Y047848D02*
X053617Y047848D01*
X053617Y047886D02*
X032502Y047886D01*
X032493Y047924D02*
X053617Y047924D01*
X053617Y047962D02*
X032478Y047962D01*
X032462Y048000D02*
X053617Y048000D01*
X053617Y048038D02*
X032446Y048038D01*
X032431Y048076D02*
X053617Y048076D01*
X053617Y048114D02*
X032415Y048114D01*
X032382Y048151D02*
X053617Y048151D01*
X053617Y048189D02*
X032344Y048189D01*
X032306Y048227D02*
X053617Y048227D01*
X053617Y048265D02*
X032268Y048265D01*
X032207Y048303D02*
X053617Y048303D01*
X053617Y048341D02*
X032127Y048341D01*
X032127Y048379D02*
X053617Y048379D01*
X053617Y048417D02*
X032127Y048417D01*
X032127Y048454D02*
X053617Y048454D01*
X053617Y048492D02*
X032127Y048492D01*
X032127Y048530D02*
X053617Y048530D01*
X053617Y048568D02*
X032127Y048568D01*
X032127Y048606D02*
X053617Y048606D01*
X053617Y048644D02*
X032127Y048644D01*
X032127Y048682D02*
X053617Y048682D01*
X053617Y048719D02*
X032127Y048719D01*
X032127Y048757D02*
X053617Y048757D01*
X053617Y048795D02*
X032151Y048795D01*
X032188Y048833D02*
X053617Y048833D01*
X053617Y048871D02*
X052119Y048871D01*
X052138Y048890D02*
X052138Y048948D01*
X052138Y052040D01*
X052138Y052097D01*
X052097Y052138D01*
X048890Y052138D01*
X048849Y052097D01*
X048849Y048890D01*
X048890Y048849D01*
X052097Y048849D01*
X052138Y048890D01*
X052138Y048909D02*
X053617Y048909D01*
X053617Y048947D02*
X052138Y048947D01*
X052138Y048985D02*
X053617Y048985D01*
X053617Y049022D02*
X052138Y049022D01*
X052138Y049060D02*
X053617Y049060D01*
X053617Y049098D02*
X052138Y049098D01*
X052138Y049136D02*
X053617Y049136D01*
X053617Y049174D02*
X052138Y049174D01*
X052138Y049212D02*
X053617Y049212D01*
X053617Y049250D02*
X052138Y049250D01*
X052138Y049288D02*
X053617Y049288D01*
X053617Y049325D02*
X052138Y049325D01*
X052138Y049363D02*
X053617Y049363D01*
X053617Y049401D02*
X052138Y049401D01*
X052138Y049439D02*
X053617Y049439D01*
X053617Y049477D02*
X052138Y049477D01*
X052138Y049515D02*
X053617Y049515D01*
X053617Y049553D02*
X052138Y049553D01*
X052138Y049590D02*
X053617Y049590D01*
X053617Y049628D02*
X052138Y049628D01*
X052138Y049666D02*
X053617Y049666D01*
X053617Y049704D02*
X052138Y049704D01*
X052138Y049742D02*
X053617Y049742D01*
X053617Y049780D02*
X052138Y049780D01*
X052138Y049818D02*
X053617Y049818D01*
X053617Y049856D02*
X052138Y049856D01*
X052138Y049893D02*
X053617Y049893D01*
X053617Y049931D02*
X052138Y049931D01*
X052138Y049969D02*
X053617Y049969D01*
X053617Y050007D02*
X052138Y050007D01*
X052138Y050045D02*
X053617Y050045D01*
X053617Y050083D02*
X052138Y050083D01*
X052138Y050121D02*
X053617Y050121D01*
X053617Y050159D02*
X052138Y050159D01*
X052138Y050196D02*
X053617Y050196D01*
X053617Y050234D02*
X052138Y050234D01*
X052138Y050272D02*
X053617Y050272D01*
X053617Y050310D02*
X052138Y050310D01*
X052138Y050348D02*
X053617Y050348D01*
X053617Y050386D02*
X052138Y050386D01*
X052138Y050424D02*
X053617Y050424D01*
X053617Y050462D02*
X052138Y050462D01*
X052138Y050499D02*
X053617Y050499D01*
X053617Y050537D02*
X052138Y050537D01*
X052138Y050575D02*
X053617Y050575D01*
X053617Y050613D02*
X052138Y050613D01*
X052138Y050651D02*
X053617Y050651D01*
X053617Y050689D02*
X052138Y050689D01*
X052138Y050727D02*
X053617Y050727D01*
X053617Y050764D02*
X052138Y050764D01*
X052138Y050802D02*
X053617Y050802D01*
X053617Y050840D02*
X052138Y050840D01*
X052138Y050878D02*
X053617Y050878D01*
X053617Y050916D02*
X052138Y050916D01*
X052138Y050954D02*
X053617Y050954D01*
X053617Y050992D02*
X052138Y050992D01*
X052138Y051030D02*
X053617Y051030D01*
X053617Y051067D02*
X052138Y051067D01*
X052138Y051105D02*
X053617Y051105D01*
X053617Y051143D02*
X052138Y051143D01*
X052138Y051181D02*
X053617Y051181D01*
X053617Y051219D02*
X052138Y051219D01*
X052138Y051257D02*
X053617Y051257D01*
X053617Y051295D02*
X052138Y051295D01*
X052138Y051333D02*
X053617Y051333D01*
X053617Y051370D02*
X052138Y051370D01*
X052138Y051408D02*
X053617Y051408D01*
X053617Y051446D02*
X052138Y051446D01*
X052138Y051484D02*
X053617Y051484D01*
X053617Y051522D02*
X052138Y051522D01*
X052138Y051560D02*
X053617Y051560D01*
X053617Y051598D02*
X052138Y051598D01*
X052138Y051635D02*
X053617Y051635D01*
X053617Y051673D02*
X052138Y051673D01*
X052138Y051711D02*
X053617Y051711D01*
X053617Y051749D02*
X052138Y051749D01*
X052138Y051787D02*
X053617Y051787D01*
X053617Y051825D02*
X052138Y051825D01*
X052138Y051863D02*
X053617Y051863D01*
X053617Y051901D02*
X052138Y051901D01*
X052138Y051938D02*
X053617Y051938D01*
X053617Y051976D02*
X052138Y051976D01*
X052138Y052014D02*
X053617Y052014D01*
X053617Y052052D02*
X052138Y052052D01*
X052138Y052090D02*
X053617Y052090D01*
X053617Y052128D02*
X052108Y052128D01*
X053617Y052166D02*
X026504Y052166D01*
X026504Y052204D02*
X053617Y052204D01*
X053617Y052241D02*
X026504Y052241D01*
X026504Y052279D02*
X053617Y052279D01*
X053617Y052317D02*
X026504Y052317D01*
X026504Y052355D02*
X053617Y052355D01*
X053617Y052393D02*
X026504Y052393D01*
X026504Y052431D02*
X053617Y052431D01*
X053617Y052469D02*
X026504Y052469D01*
X026504Y052507D02*
X053617Y052507D01*
X053617Y052544D02*
X026504Y052544D01*
X026504Y052582D02*
X053617Y052582D01*
X053617Y052620D02*
X026504Y052620D01*
X026504Y052658D02*
X053617Y052658D01*
X053617Y052696D02*
X026504Y052696D01*
X026504Y052734D02*
X053617Y052734D01*
X053617Y052772D02*
X026504Y052772D01*
X026504Y052809D02*
X053617Y052809D01*
X053617Y052847D02*
X026504Y052847D01*
X026504Y052885D02*
X053615Y052885D01*
X053613Y052923D02*
X026504Y052923D01*
X026504Y052961D02*
X053609Y052961D01*
X053599Y052999D02*
X026504Y052999D01*
X026504Y053037D02*
X053589Y053037D01*
X053579Y053075D02*
X026504Y053075D01*
X026504Y053112D02*
X053569Y053112D01*
X053558Y053150D02*
X026504Y053150D01*
X026504Y053188D02*
X053536Y053188D01*
X053514Y053226D02*
X026504Y053226D01*
X026504Y053264D02*
X053492Y053264D01*
X053470Y053302D02*
X026504Y053302D01*
X026504Y053340D02*
X053440Y053340D01*
X053402Y053378D02*
X026504Y053378D01*
X026504Y053415D02*
X053364Y053415D01*
X053326Y053453D02*
X026504Y053453D01*
X026504Y053491D02*
X053265Y053491D01*
X053200Y053529D02*
X026504Y053529D01*
X026504Y053567D02*
X053119Y053567D01*
X052978Y053605D02*
X026504Y053605D01*
X026504Y052128D02*
X048880Y052128D01*
X048849Y052090D02*
X026504Y052090D01*
X026504Y052052D02*
X048849Y052052D01*
X048849Y052014D02*
X026504Y052014D01*
X026504Y051976D02*
X048849Y051976D01*
X048849Y051938D02*
X026504Y051938D01*
X026504Y051901D02*
X048849Y051901D01*
X048849Y051863D02*
X026504Y051863D01*
X026504Y051825D02*
X048849Y051825D01*
X048849Y051787D02*
X026504Y051787D01*
X026504Y051749D02*
X048849Y051749D01*
X048849Y051711D02*
X026504Y051711D01*
X026504Y051673D02*
X048849Y051673D01*
X048849Y051635D02*
X026504Y051635D01*
X026504Y051598D02*
X048849Y051598D01*
X048849Y051560D02*
X026504Y051560D01*
X026504Y051522D02*
X048849Y051522D01*
X048849Y051484D02*
X026504Y051484D01*
X026504Y051446D02*
X048849Y051446D01*
X048849Y051408D02*
X026504Y051408D01*
X026504Y051370D02*
X048849Y051370D01*
X048849Y051333D02*
X026504Y051333D01*
X026504Y051295D02*
X048849Y051295D01*
X048849Y051257D02*
X026504Y051257D01*
X026504Y051219D02*
X048849Y051219D01*
X048849Y051181D02*
X026504Y051181D01*
X026504Y051143D02*
X048849Y051143D01*
X048849Y051105D02*
X026504Y051105D01*
X026504Y051067D02*
X048849Y051067D01*
X048849Y051030D02*
X026504Y051030D01*
X026504Y050992D02*
X048849Y050992D01*
X048849Y050954D02*
X026504Y050954D01*
X026504Y050916D02*
X048849Y050916D01*
X048849Y050878D02*
X026504Y050878D01*
X026504Y050840D02*
X048849Y050840D01*
X048849Y050802D02*
X026504Y050802D01*
X026504Y050764D02*
X048849Y050764D01*
X048849Y050727D02*
X026504Y050727D01*
X026502Y050689D02*
X048849Y050689D01*
X048849Y050651D02*
X026489Y050651D01*
X026477Y050613D02*
X048849Y050613D01*
X048849Y050575D02*
X026465Y050575D01*
X026452Y050537D02*
X048849Y050537D01*
X048849Y050499D02*
X026440Y050499D01*
X026428Y050462D02*
X048849Y050462D01*
X048849Y050424D02*
X026415Y050424D01*
X026403Y050386D02*
X048849Y050386D01*
X048849Y050348D02*
X026391Y050348D01*
X026369Y050310D02*
X048849Y050310D01*
X048849Y050272D02*
X026342Y050272D01*
X026314Y050234D02*
X048849Y050234D01*
X048849Y050196D02*
X026287Y050196D01*
X026259Y050159D02*
X048849Y050159D01*
X048849Y050121D02*
X026232Y050121D01*
X026204Y050083D02*
X048849Y050083D01*
X048849Y050045D02*
X036854Y050045D01*
X037195Y050007D02*
X048849Y050007D01*
X048849Y049969D02*
X037371Y049969D01*
X037440Y049931D02*
X048849Y049931D01*
X048849Y049893D02*
X037474Y049893D01*
X037511Y049856D02*
X048849Y049856D01*
X048849Y049818D02*
X037533Y049818D01*
X037544Y049780D02*
X048849Y049780D01*
X048849Y049742D02*
X037559Y049742D01*
X037566Y049704D02*
X048849Y049704D01*
X048849Y049666D02*
X037567Y049666D01*
X037564Y049628D02*
X048849Y049628D01*
X048849Y049590D02*
X037564Y049590D01*
X037564Y049553D02*
X048849Y049553D01*
X048849Y049515D02*
X037576Y049515D01*
X037592Y049477D02*
X048849Y049477D01*
X048849Y049439D02*
X037608Y049439D01*
X037613Y049401D02*
X048849Y049401D01*
X048849Y049363D02*
X037613Y049363D01*
X037613Y049325D02*
X048849Y049325D01*
X048849Y049288D02*
X037613Y049288D01*
X037604Y049250D02*
X048849Y049250D01*
X048849Y049212D02*
X037588Y049212D01*
X037572Y049174D02*
X048849Y049174D01*
X048849Y049136D02*
X037557Y049136D01*
X037522Y049098D02*
X048849Y049098D01*
X048849Y049060D02*
X037485Y049060D01*
X037447Y049022D02*
X048849Y049022D01*
X048849Y048985D02*
X037358Y048985D01*
X037091Y048985D02*
X032340Y048985D01*
X032378Y049022D02*
X037002Y049022D01*
X036964Y049060D02*
X032416Y049060D01*
X032454Y049098D02*
X036927Y049098D01*
X036892Y049136D02*
X032491Y049136D01*
X032529Y049174D02*
X036877Y049174D01*
X036861Y049212D02*
X032567Y049212D01*
X032302Y048947D02*
X048849Y048947D01*
X048849Y048909D02*
X032264Y048909D01*
X032226Y048871D02*
X048868Y048871D01*
X053617Y045387D02*
X021510Y045387D01*
X021547Y045349D02*
X053617Y045349D01*
X053617Y045311D02*
X021563Y045311D01*
X021579Y045273D02*
X053617Y045273D01*
X053617Y045235D02*
X021594Y045235D01*
X021610Y045198D02*
X053617Y045198D01*
X053617Y045160D02*
X021626Y045160D01*
X021632Y045122D02*
X053617Y045122D01*
X053617Y045084D02*
X021632Y045084D01*
X021632Y045046D02*
X053617Y045046D01*
X053617Y045008D02*
X021632Y045008D01*
X021632Y044970D02*
X053617Y044970D01*
X053617Y044932D02*
X021632Y044932D01*
X021621Y044895D02*
X053617Y044895D01*
X053617Y044857D02*
X021605Y044857D01*
X021589Y044819D02*
X053617Y044819D01*
X053617Y044781D02*
X021574Y044781D01*
X021558Y044743D02*
X053617Y044743D01*
X053617Y044705D02*
X021536Y044705D01*
X021498Y044667D02*
X053617Y044667D01*
X053617Y044629D02*
X021460Y044629D01*
X021422Y044592D02*
X053617Y044592D01*
X053617Y044554D02*
X021378Y044554D01*
X021369Y044516D02*
X053617Y044516D01*
X053617Y044478D02*
X021419Y044478D01*
X021457Y044440D02*
X053617Y044440D01*
X053617Y044402D02*
X021495Y044402D01*
X021533Y044364D02*
X053617Y044364D01*
X053617Y044327D02*
X021557Y044327D01*
X021612Y044289D02*
X053617Y044289D01*
X053617Y044251D02*
X021650Y044251D01*
X021688Y044213D02*
X053617Y044213D01*
X053617Y044175D02*
X021726Y044175D01*
X021764Y044137D02*
X053617Y044137D01*
X053617Y044099D02*
X021802Y044099D01*
X021840Y044061D02*
X053617Y044061D01*
X053617Y044024D02*
X021878Y044024D01*
X021915Y043986D02*
X053617Y043986D01*
X053617Y043948D02*
X021953Y043948D01*
X021991Y043910D02*
X053617Y043910D01*
X053617Y043872D02*
X022029Y043872D01*
X022067Y043834D02*
X053617Y043834D01*
X053617Y043796D02*
X022105Y043796D01*
X022143Y043758D02*
X053617Y043758D01*
X053617Y043721D02*
X022181Y043721D01*
X022218Y043683D02*
X053617Y043683D01*
X053617Y043645D02*
X022256Y043645D01*
X022294Y043607D02*
X053617Y043607D01*
X053617Y043569D02*
X022332Y043569D01*
X022370Y043531D02*
X053617Y043531D01*
X053617Y043493D02*
X022408Y043493D01*
X022446Y043455D02*
X053617Y043455D01*
X053617Y043418D02*
X022483Y043418D01*
X022521Y043380D02*
X053617Y043380D01*
X053617Y043342D02*
X022559Y043342D01*
X022597Y043304D02*
X053617Y043304D01*
X053617Y043266D02*
X022635Y043266D01*
X022673Y043228D02*
X053617Y043228D01*
X053617Y043190D02*
X022694Y043190D01*
X022710Y043153D02*
X053617Y043153D01*
X053617Y043115D02*
X022726Y043115D01*
X022732Y043077D02*
X030192Y043077D01*
X030204Y043082D02*
X030049Y043018D01*
X029931Y042900D01*
X029867Y042745D01*
X029867Y042579D01*
X029931Y042424D01*
X030049Y042306D01*
X030204Y042242D01*
X036620Y042242D01*
X036775Y042306D01*
X036893Y042424D01*
X036957Y042579D01*
X036957Y042745D01*
X036893Y042900D01*
X036775Y043018D01*
X036620Y043082D01*
X030204Y043082D01*
X030100Y043039D02*
X022732Y043039D01*
X022732Y043001D02*
X030033Y043001D01*
X029995Y042963D02*
X022732Y042963D01*
X022732Y042925D02*
X029957Y042925D01*
X029926Y042887D02*
X022732Y042887D01*
X022732Y042850D02*
X029910Y042850D01*
X029895Y042812D02*
X022732Y042812D01*
X022732Y042774D02*
X029879Y042774D01*
X029867Y042736D02*
X022732Y042736D01*
X022732Y042698D02*
X029867Y042698D01*
X029867Y042660D02*
X022732Y042660D01*
X022732Y042622D02*
X029867Y042622D01*
X029867Y042584D02*
X022732Y042584D01*
X022732Y042547D02*
X029881Y042547D01*
X029896Y042509D02*
X022732Y042509D01*
X022732Y042471D02*
X029912Y042471D01*
X029928Y042433D02*
X022732Y042433D01*
X022732Y042395D02*
X029960Y042395D01*
X029998Y042357D02*
X022732Y042357D01*
X022732Y042319D02*
X030036Y042319D01*
X030109Y042282D02*
X022732Y042282D01*
X022732Y042244D02*
X030200Y042244D01*
X031895Y038002D02*
X022732Y038002D01*
X022732Y037964D02*
X031818Y037964D01*
X031780Y037926D02*
X022732Y037926D01*
X022732Y037889D02*
X031742Y037889D01*
X031716Y037851D02*
X022732Y037851D01*
X022732Y037813D02*
X031700Y037813D01*
X031685Y037775D02*
X022732Y037775D01*
X022732Y037737D02*
X031669Y037737D01*
X031668Y037699D02*
X022732Y037699D01*
X022732Y037661D02*
X031668Y037661D01*
X031668Y037623D02*
X022732Y037623D01*
X022732Y037586D02*
X031670Y037586D01*
X031685Y037548D02*
X022732Y037548D01*
X022732Y037510D02*
X031701Y037510D01*
X031717Y037472D02*
X022732Y037472D01*
X022732Y037434D02*
X031743Y037434D01*
X031781Y037396D02*
X022732Y037396D01*
X022732Y037358D02*
X031819Y037358D01*
X031898Y037321D02*
X022732Y037321D01*
X022732Y037283D02*
X032227Y037283D01*
X032227Y037321D02*
X032176Y037321D01*
X032227Y037245D02*
X022732Y037245D01*
X022732Y037207D02*
X032227Y037207D01*
X032227Y037169D02*
X022732Y037169D01*
X022732Y037131D02*
X032227Y037131D01*
X032227Y037093D02*
X022732Y037093D01*
X022732Y037055D02*
X032227Y037055D01*
X032227Y037018D02*
X022732Y037018D01*
X022732Y036980D02*
X032227Y036980D01*
X032227Y036942D02*
X022732Y036942D01*
X022732Y036904D02*
X032227Y036904D01*
X032227Y036866D02*
X022732Y036866D01*
X022732Y036828D02*
X032227Y036828D01*
X032227Y036790D02*
X022732Y036790D01*
X022732Y036752D02*
X032227Y036752D01*
X032227Y036715D02*
X022732Y036715D01*
X022732Y036677D02*
X032227Y036677D01*
X032227Y036639D02*
X022732Y036639D01*
X022732Y036601D02*
X032227Y036601D01*
X032227Y036563D02*
X022732Y036563D01*
X022732Y036525D02*
X032227Y036525D01*
X032227Y036487D02*
X022732Y036487D01*
X022732Y036449D02*
X032227Y036449D01*
X032227Y036412D02*
X022732Y036412D01*
X022732Y036374D02*
X032227Y036374D01*
X032227Y036336D02*
X022732Y036336D01*
X022732Y036298D02*
X032227Y036298D01*
X032227Y036260D02*
X022732Y036260D01*
X022732Y036222D02*
X032227Y036222D01*
X032227Y036184D02*
X022732Y036184D01*
X022732Y036147D02*
X032227Y036147D01*
X032227Y036109D02*
X022732Y036109D01*
X022732Y036071D02*
X032227Y036071D01*
X032227Y036033D02*
X022732Y036033D01*
X022732Y035995D02*
X032227Y035995D01*
X032227Y035957D02*
X022732Y035957D01*
X022732Y035919D02*
X032227Y035919D01*
X032227Y035881D02*
X022732Y035881D01*
X022732Y035844D02*
X032227Y035844D01*
X032227Y035806D02*
X022732Y035806D01*
X022732Y035768D02*
X032227Y035768D01*
X032227Y035730D02*
X022732Y035730D01*
X022732Y035692D02*
X032227Y035692D01*
X032227Y035654D02*
X022732Y035654D01*
X022732Y035616D02*
X032227Y035616D01*
X032227Y035578D02*
X022732Y035578D01*
X022732Y035541D02*
X032227Y035541D01*
X032227Y035503D02*
X022732Y035503D01*
X022732Y035465D02*
X032227Y035465D01*
X032227Y035427D02*
X022732Y035427D01*
X022732Y035389D02*
X032227Y035389D01*
X032227Y035351D02*
X022732Y035351D01*
X022732Y035313D02*
X032227Y035313D01*
X032227Y035276D02*
X022732Y035276D01*
X022732Y035238D02*
X032227Y035238D01*
X032227Y035200D02*
X022732Y035200D01*
X022732Y035162D02*
X032227Y035162D01*
X032227Y035124D02*
X022732Y035124D01*
X022732Y035086D02*
X032227Y035086D01*
X032227Y035048D02*
X022732Y035048D01*
X022732Y035010D02*
X032227Y035010D01*
X032227Y034973D02*
X022740Y034973D01*
X022778Y034935D02*
X032227Y034935D01*
X032227Y034897D02*
X022815Y034897D01*
X022853Y034859D02*
X032227Y034859D01*
X032227Y034821D02*
X022890Y034821D01*
X022928Y034783D02*
X032227Y034783D01*
X032227Y034745D02*
X022965Y034745D01*
X023003Y034707D02*
X032227Y034707D01*
X032227Y034670D02*
X023041Y034670D01*
X023078Y034632D02*
X032227Y034632D01*
X032227Y034594D02*
X023116Y034594D01*
X023153Y034556D02*
X032227Y034556D01*
X032227Y034518D02*
X023191Y034518D01*
X023228Y034480D02*
X032227Y034480D01*
X032227Y034442D02*
X023266Y034442D01*
X023303Y034404D02*
X032227Y034404D01*
X032227Y034367D02*
X023341Y034367D01*
X023378Y034329D02*
X032227Y034329D01*
X032227Y034291D02*
X023416Y034291D01*
X023453Y034253D02*
X032227Y034253D01*
X032227Y034215D02*
X023491Y034215D01*
X023529Y034177D02*
X032227Y034177D01*
X032227Y034139D02*
X023566Y034139D01*
X023604Y034102D02*
X032227Y034102D01*
X032227Y034064D02*
X023641Y034064D01*
X023679Y034026D02*
X032227Y034026D01*
X032227Y033988D02*
X023716Y033988D01*
X023754Y033950D02*
X032227Y033950D01*
X032227Y033912D02*
X023791Y033912D01*
X023829Y033874D02*
X032227Y033874D01*
X032227Y033836D02*
X023866Y033836D01*
X023904Y033799D02*
X032227Y033799D01*
X032227Y033761D02*
X023941Y033761D01*
X023979Y033723D02*
X032227Y033723D01*
X032227Y033685D02*
X024017Y033685D01*
X024054Y033647D02*
X032227Y033647D01*
X032227Y033609D02*
X024092Y033609D01*
X024129Y033571D02*
X032227Y033571D01*
X032227Y033533D02*
X024167Y033533D01*
X024204Y033496D02*
X032227Y033496D01*
X032227Y033458D02*
X024242Y033458D01*
X024279Y033420D02*
X032227Y033420D01*
X032227Y033382D02*
X024317Y033382D01*
X024354Y033344D02*
X032227Y033344D01*
X032227Y033306D02*
X024392Y033306D01*
X024430Y033268D02*
X032227Y033268D01*
X032227Y033231D02*
X024467Y033231D01*
X024505Y033193D02*
X032227Y033193D01*
X032227Y033155D02*
X024542Y033155D01*
X024580Y033117D02*
X032227Y033117D01*
X032227Y033079D02*
X024617Y033079D01*
X024655Y033041D02*
X032227Y033041D01*
X032227Y033003D02*
X024692Y033003D01*
X024730Y032965D02*
X032227Y032965D01*
X032227Y032928D02*
X024767Y032928D01*
X024805Y032890D02*
X032227Y032890D01*
X032227Y032852D02*
X024842Y032852D01*
X024880Y032814D02*
X032227Y032814D01*
X032227Y032776D02*
X024918Y032776D01*
X024955Y032738D02*
X032227Y032738D01*
X032227Y032700D02*
X024993Y032700D01*
X025030Y032662D02*
X032227Y032662D01*
X032227Y032625D02*
X025068Y032625D01*
X025105Y032587D02*
X032227Y032587D01*
X032227Y032549D02*
X025143Y032549D01*
X025180Y032511D02*
X032227Y032511D01*
X032227Y032473D02*
X025218Y032473D01*
X025255Y032435D02*
X032227Y032435D01*
X032227Y032397D02*
X025293Y032397D01*
X025331Y032359D02*
X032227Y032359D01*
X032227Y032322D02*
X025368Y032322D01*
X025406Y032284D02*
X032227Y032284D01*
X032227Y032246D02*
X025443Y032246D01*
X025481Y032208D02*
X032227Y032208D01*
X032227Y032170D02*
X025518Y032170D01*
X025556Y032132D02*
X032227Y032132D01*
X032227Y032094D02*
X025593Y032094D01*
X025631Y032057D02*
X031716Y032057D01*
X031625Y032019D02*
X025668Y032019D01*
X025706Y031981D02*
X031571Y031981D01*
X031533Y031943D02*
X025743Y031943D01*
X025781Y031905D02*
X031495Y031905D01*
X031457Y031867D02*
X025819Y031867D01*
X025856Y031829D02*
X031432Y031829D01*
X031417Y031791D02*
X025894Y031791D01*
X025931Y031754D02*
X031401Y031754D01*
X031385Y031716D02*
X025969Y031716D01*
X026006Y031678D02*
X031370Y031678D01*
X031357Y031640D02*
X026044Y031640D01*
X026081Y031602D02*
X031357Y031602D01*
X031357Y031564D02*
X026119Y031564D01*
X026156Y031526D02*
X031357Y031526D01*
X031357Y031488D02*
X026194Y031488D01*
X026231Y031451D02*
X031357Y031451D01*
X031363Y031413D02*
X026269Y031413D01*
X026307Y031375D02*
X031378Y031375D01*
X031394Y031337D02*
X026344Y031337D01*
X026382Y031299D02*
X031410Y031299D01*
X031426Y031261D02*
X026419Y031261D01*
X026457Y031223D02*
X031441Y031223D01*
X031479Y031186D02*
X026494Y031186D01*
X026532Y031148D02*
X031517Y031148D01*
X031554Y031110D02*
X026569Y031110D01*
X026607Y031072D02*
X031592Y031072D01*
X031676Y031034D02*
X026644Y031034D01*
X026682Y030996D02*
X031768Y030996D01*
X031966Y030958D02*
X026720Y030958D01*
X026757Y030920D02*
X032004Y030920D01*
X032041Y030883D02*
X026795Y030883D01*
X026832Y030845D02*
X032079Y030845D01*
X032117Y030807D02*
X026870Y030807D01*
X026907Y030769D02*
X032155Y030769D01*
X032193Y030731D02*
X026945Y030731D01*
X026982Y030693D02*
X032231Y030693D01*
X032269Y030655D02*
X027020Y030655D01*
X027057Y030617D02*
X032306Y030617D01*
X032344Y030580D02*
X027095Y030580D01*
X027132Y030542D02*
X032382Y030542D01*
X032420Y030504D02*
X027170Y030504D01*
X027208Y030466D02*
X032458Y030466D01*
X032496Y030428D02*
X027245Y030428D01*
X027283Y030390D02*
X032534Y030390D01*
X032572Y030352D02*
X027320Y030352D01*
X027358Y030314D02*
X032609Y030314D01*
X032647Y030277D02*
X027395Y030277D01*
X027433Y030239D02*
X032685Y030239D01*
X032723Y030201D02*
X027470Y030201D01*
X027508Y030163D02*
X032761Y030163D01*
X032799Y030125D02*
X027545Y030125D01*
X027583Y030087D02*
X032837Y030087D01*
X032875Y030049D02*
X027621Y030049D01*
X027658Y030012D02*
X032912Y030012D01*
X032950Y029974D02*
X027696Y029974D01*
X027733Y029936D02*
X032988Y029936D01*
X032227Y032019D02*
X032199Y032019D01*
X032227Y032057D02*
X032108Y032057D01*
X032847Y032814D02*
X042981Y032814D01*
X042981Y032852D02*
X032847Y032852D01*
X032847Y032890D02*
X042993Y032890D01*
X043009Y032928D02*
X032847Y032928D01*
X032847Y032965D02*
X043024Y032965D01*
X043044Y033003D02*
X032847Y033003D01*
X032847Y033041D02*
X043082Y033041D01*
X043120Y033079D02*
X032847Y033079D01*
X032847Y033117D02*
X043182Y033117D01*
X043274Y033155D02*
X032847Y033155D01*
X032847Y033193D02*
X053617Y033193D01*
X053617Y033231D02*
X032847Y033231D01*
X032847Y033268D02*
X053617Y033268D01*
X053617Y033306D02*
X032847Y033306D01*
X032847Y033344D02*
X053617Y033344D01*
X053617Y033382D02*
X032847Y033382D01*
X032847Y033420D02*
X053617Y033420D01*
X053617Y033458D02*
X032847Y033458D01*
X032847Y033496D02*
X053617Y033496D01*
X053617Y033533D02*
X032847Y033533D01*
X032847Y033571D02*
X053617Y033571D01*
X053617Y033609D02*
X032847Y033609D01*
X032847Y033647D02*
X053617Y033647D01*
X053617Y033685D02*
X032847Y033685D01*
X032847Y033723D02*
X053617Y033723D01*
X053617Y033761D02*
X032847Y033761D01*
X032847Y033799D02*
X053617Y033799D01*
X053617Y033836D02*
X032847Y033836D01*
X032847Y033874D02*
X053617Y033874D01*
X053617Y033912D02*
X032847Y033912D01*
X032847Y033950D02*
X053617Y033950D01*
X053617Y033988D02*
X032847Y033988D01*
X032847Y034026D02*
X053617Y034026D01*
X053617Y034064D02*
X032847Y034064D01*
X032847Y034102D02*
X053617Y034102D01*
X053617Y034139D02*
X032847Y034139D01*
X032847Y034177D02*
X053617Y034177D01*
X053617Y034215D02*
X032847Y034215D01*
X032847Y034253D02*
X053617Y034253D01*
X053617Y034291D02*
X032847Y034291D01*
X032847Y034329D02*
X053617Y034329D01*
X053617Y034367D02*
X032847Y034367D01*
X032847Y034404D02*
X053617Y034404D01*
X053617Y034442D02*
X032847Y034442D01*
X032847Y034480D02*
X053617Y034480D01*
X053618Y034518D02*
X032847Y034518D01*
X032847Y034556D02*
X053618Y034556D01*
X053618Y034594D02*
X032847Y034594D01*
X032847Y034632D02*
X053618Y034632D01*
X053618Y034670D02*
X032847Y034670D01*
X032847Y034707D02*
X053618Y034707D01*
X053618Y034745D02*
X032847Y034745D01*
X032847Y034783D02*
X053618Y034783D01*
X053618Y034821D02*
X032847Y034821D01*
X032847Y034859D02*
X053618Y034859D01*
X053618Y034897D02*
X032847Y034897D01*
X032847Y034935D02*
X053618Y034935D01*
X053618Y034973D02*
X032847Y034973D01*
X032847Y035010D02*
X053618Y035010D01*
X053618Y035048D02*
X032847Y035048D01*
X032847Y035086D02*
X053618Y035086D01*
X053618Y035124D02*
X032847Y035124D01*
X032847Y035162D02*
X053618Y035162D01*
X053618Y035200D02*
X032847Y035200D01*
X032847Y035238D02*
X053618Y035238D01*
X053618Y035276D02*
X032847Y035276D01*
X032847Y035313D02*
X053618Y035313D01*
X053618Y035351D02*
X032847Y035351D01*
X032847Y035389D02*
X053618Y035389D01*
X053618Y035427D02*
X032847Y035427D01*
X032847Y035465D02*
X053618Y035465D01*
X053618Y035503D02*
X032847Y035503D01*
X032847Y035541D02*
X053618Y035541D01*
X053618Y035578D02*
X032847Y035578D01*
X032847Y035616D02*
X053618Y035616D01*
X053618Y035654D02*
X032847Y035654D01*
X032847Y035692D02*
X053618Y035692D01*
X053618Y035730D02*
X032847Y035730D01*
X032847Y035768D02*
X053618Y035768D01*
X053618Y035806D02*
X032847Y035806D01*
X032847Y035844D02*
X053618Y035844D01*
X053618Y035881D02*
X032847Y035881D01*
X032847Y035919D02*
X053618Y035919D01*
X053618Y035957D02*
X032847Y035957D01*
X032847Y035995D02*
X053618Y035995D01*
X053618Y036033D02*
X032847Y036033D01*
X032847Y036071D02*
X053618Y036071D01*
X053618Y036109D02*
X032847Y036109D01*
X032847Y036147D02*
X053618Y036147D01*
X053618Y036184D02*
X032847Y036184D01*
X032847Y036222D02*
X053618Y036222D01*
X053618Y036260D02*
X032847Y036260D01*
X032847Y036298D02*
X053618Y036298D01*
X053618Y036336D02*
X032847Y036336D01*
X032847Y036374D02*
X053618Y036374D01*
X053618Y036412D02*
X032847Y036412D01*
X032847Y036449D02*
X053618Y036449D01*
X053618Y036487D02*
X032847Y036487D01*
X032847Y036525D02*
X053618Y036525D01*
X053617Y036563D02*
X032847Y036563D01*
X032847Y036601D02*
X053617Y036601D01*
X053617Y036639D02*
X032847Y036639D01*
X032847Y036677D02*
X053617Y036677D01*
X053617Y036715D02*
X032847Y036715D01*
X032847Y036752D02*
X053617Y036752D01*
X053617Y036790D02*
X032847Y036790D01*
X032847Y036828D02*
X053617Y036828D01*
X053617Y036866D02*
X032847Y036866D01*
X032847Y036904D02*
X053617Y036904D01*
X053617Y036942D02*
X032847Y036942D01*
X032847Y036980D02*
X053617Y036980D01*
X053617Y037018D02*
X032847Y037018D01*
X032847Y037055D02*
X053617Y037055D01*
X053617Y037093D02*
X032847Y037093D01*
X032847Y037131D02*
X053617Y037131D01*
X053617Y037169D02*
X032847Y037169D01*
X032847Y037207D02*
X053617Y037207D01*
X053617Y037245D02*
X032847Y037245D01*
X032847Y037283D02*
X053617Y037283D01*
X053617Y037321D02*
X032847Y037321D01*
X032847Y037358D02*
X053617Y037358D01*
X053617Y037396D02*
X032847Y037396D01*
X032847Y037434D02*
X053617Y037434D01*
X053617Y037472D02*
X032847Y037472D01*
X032847Y037510D02*
X053617Y037510D01*
X053617Y037548D02*
X032847Y037548D01*
X032847Y037586D02*
X053617Y037586D01*
X053617Y037623D02*
X032836Y037623D01*
X032821Y037661D02*
X053617Y037661D01*
X053617Y037699D02*
X032805Y037699D01*
X032775Y037737D02*
X053617Y037737D01*
X053617Y037775D02*
X032737Y037775D01*
X032699Y037813D02*
X053617Y037813D01*
X053617Y037851D02*
X032661Y037851D01*
X032623Y037889D02*
X053617Y037889D01*
X053617Y037926D02*
X032583Y037926D01*
X032491Y037964D02*
X053617Y037964D01*
X053617Y038002D02*
X032179Y038002D01*
X036624Y042244D02*
X053617Y042244D01*
X053617Y042282D02*
X036715Y042282D01*
X036788Y042319D02*
X053617Y042319D01*
X053617Y042357D02*
X036826Y042357D01*
X036864Y042395D02*
X053617Y042395D01*
X053617Y042433D02*
X036896Y042433D01*
X036912Y042471D02*
X053617Y042471D01*
X053617Y042509D02*
X036928Y042509D01*
X036943Y042547D02*
X053617Y042547D01*
X053617Y042584D02*
X036957Y042584D01*
X036957Y042622D02*
X053617Y042622D01*
X053617Y042660D02*
X036957Y042660D01*
X036957Y042698D02*
X053617Y042698D01*
X053617Y042736D02*
X036957Y042736D01*
X036945Y042774D02*
X053617Y042774D01*
X053617Y042812D02*
X036929Y042812D01*
X036914Y042850D02*
X053617Y042850D01*
X053617Y042887D02*
X036898Y042887D01*
X036867Y042925D02*
X053617Y042925D01*
X053617Y042963D02*
X036829Y042963D01*
X036791Y043001D02*
X053617Y043001D01*
X053617Y043039D02*
X036724Y043039D01*
X036632Y043077D02*
X053617Y043077D01*
X053617Y042206D02*
X022732Y042206D01*
X022732Y042168D02*
X053617Y042168D01*
X053617Y042130D02*
X022732Y042130D01*
X022732Y042092D02*
X053617Y042092D01*
X053617Y042054D02*
X022732Y042054D01*
X022732Y042016D02*
X053617Y042016D01*
X053617Y041979D02*
X022732Y041979D01*
X022732Y041941D02*
X053617Y041941D01*
X053617Y041903D02*
X022732Y041903D01*
X022732Y041865D02*
X053617Y041865D01*
X053617Y041827D02*
X022732Y041827D01*
X022732Y041789D02*
X053617Y041789D01*
X053617Y041751D02*
X022732Y041751D01*
X022732Y041713D02*
X053617Y041713D01*
X053617Y041676D02*
X022732Y041676D01*
X022732Y041638D02*
X053617Y041638D01*
X053617Y041600D02*
X022732Y041600D01*
X022732Y041562D02*
X053617Y041562D01*
X053617Y041524D02*
X022732Y041524D01*
X022732Y041486D02*
X053617Y041486D01*
X053617Y041448D02*
X022732Y041448D01*
X022732Y041411D02*
X053617Y041411D01*
X053617Y041373D02*
X022732Y041373D01*
X022732Y041335D02*
X053617Y041335D01*
X053617Y041297D02*
X022732Y041297D01*
X022732Y041259D02*
X053617Y041259D01*
X053617Y041221D02*
X022732Y041221D01*
X022732Y041183D02*
X053617Y041183D01*
X053617Y041145D02*
X022732Y041145D01*
X022732Y041108D02*
X053617Y041108D01*
X053617Y041070D02*
X022732Y041070D01*
X022732Y041032D02*
X053617Y041032D01*
X053617Y040994D02*
X022732Y040994D01*
X022732Y040956D02*
X053617Y040956D01*
X053617Y040918D02*
X022732Y040918D01*
X022732Y040880D02*
X053617Y040880D01*
X053617Y040842D02*
X022732Y040842D01*
X022732Y040805D02*
X053617Y040805D01*
X053617Y040767D02*
X022732Y040767D01*
X022732Y040729D02*
X053617Y040729D01*
X053617Y040691D02*
X022732Y040691D01*
X022732Y040653D02*
X053617Y040653D01*
X053617Y040615D02*
X022732Y040615D01*
X022732Y040577D02*
X053617Y040577D01*
X053617Y040539D02*
X022732Y040539D01*
X022732Y040502D02*
X053617Y040502D01*
X053617Y040464D02*
X022732Y040464D01*
X022732Y040426D02*
X053617Y040426D01*
X053617Y040388D02*
X022732Y040388D01*
X022732Y040350D02*
X053617Y040350D01*
X053617Y040312D02*
X022732Y040312D01*
X022732Y040274D02*
X053617Y040274D01*
X053617Y040237D02*
X022732Y040237D01*
X022732Y040199D02*
X053617Y040199D01*
X053617Y040161D02*
X022732Y040161D01*
X022732Y040123D02*
X053617Y040123D01*
X053617Y040085D02*
X022732Y040085D01*
X022732Y040047D02*
X053617Y040047D01*
X053617Y040009D02*
X022732Y040009D01*
X022732Y039971D02*
X053617Y039971D01*
X053617Y039934D02*
X022732Y039934D01*
X022732Y039896D02*
X053617Y039896D01*
X053617Y039858D02*
X022732Y039858D01*
X022732Y039820D02*
X053617Y039820D01*
X053617Y039782D02*
X022732Y039782D01*
X022732Y039744D02*
X053617Y039744D01*
X053617Y039706D02*
X022732Y039706D01*
X022732Y039668D02*
X053617Y039668D01*
X053617Y039631D02*
X022732Y039631D01*
X022732Y039593D02*
X053617Y039593D01*
X053617Y039555D02*
X022732Y039555D01*
X022732Y039517D02*
X053617Y039517D01*
X053617Y039479D02*
X022732Y039479D01*
X022732Y039441D02*
X053617Y039441D01*
X053617Y039403D02*
X022732Y039403D01*
X022732Y039366D02*
X053617Y039366D01*
X053617Y039328D02*
X022732Y039328D01*
X022732Y039290D02*
X053617Y039290D01*
X053617Y039252D02*
X022732Y039252D01*
X022732Y039214D02*
X053617Y039214D01*
X053617Y039176D02*
X022732Y039176D01*
X022732Y039138D02*
X053617Y039138D01*
X053617Y039100D02*
X022732Y039100D01*
X022732Y039063D02*
X053617Y039063D01*
X053617Y039025D02*
X022732Y039025D01*
X022732Y038987D02*
X053617Y038987D01*
X053617Y038949D02*
X022732Y038949D01*
X022732Y038911D02*
X053617Y038911D01*
X053617Y038873D02*
X022732Y038873D01*
X022732Y038835D02*
X053617Y038835D01*
X053617Y038797D02*
X022732Y038797D01*
X022732Y038760D02*
X053617Y038760D01*
X053617Y038722D02*
X022732Y038722D01*
X022732Y038684D02*
X053617Y038684D01*
X053617Y038646D02*
X022732Y038646D01*
X022732Y038608D02*
X053617Y038608D01*
X053617Y038570D02*
X022732Y038570D01*
X022732Y038532D02*
X053617Y038532D01*
X053617Y038494D02*
X022732Y038494D01*
X022732Y038457D02*
X053617Y038457D01*
X053617Y038419D02*
X022732Y038419D01*
X022732Y038381D02*
X053617Y038381D01*
X053617Y038343D02*
X022732Y038343D01*
X022732Y038305D02*
X053617Y038305D01*
X053617Y038267D02*
X022732Y038267D01*
X022732Y038229D02*
X053617Y038229D01*
X053617Y038192D02*
X022732Y038192D01*
X022732Y038154D02*
X053617Y038154D01*
X053617Y038116D02*
X022732Y038116D01*
X022732Y038078D02*
X053617Y038078D01*
X053617Y038040D02*
X022732Y038040D01*
X021630Y032852D02*
X021603Y032852D01*
X021587Y032814D02*
X021666Y032814D01*
X021703Y032776D02*
X021572Y032776D01*
X021556Y032738D02*
X021739Y032738D01*
X021776Y032700D02*
X021531Y032700D01*
X021493Y032662D02*
X021813Y032662D01*
X021849Y032625D02*
X021455Y032625D01*
X021418Y032587D02*
X021886Y032587D01*
X021922Y032549D02*
X021366Y032549D01*
X021381Y032511D02*
X021959Y032511D01*
X021996Y032473D02*
X021424Y032473D01*
X021462Y032435D02*
X022032Y032435D01*
X022069Y032397D02*
X021500Y032397D01*
X021538Y032359D02*
X022105Y032359D01*
X022142Y032322D02*
X021559Y032322D01*
X021574Y032284D02*
X022179Y032284D01*
X022215Y032246D02*
X021590Y032246D01*
X021606Y032208D02*
X022252Y032208D01*
X022288Y032170D02*
X021621Y032170D01*
X021632Y032132D02*
X022325Y032132D01*
X022362Y032094D02*
X021632Y032094D01*
X021632Y032057D02*
X022398Y032057D01*
X022435Y032019D02*
X021632Y032019D01*
X021632Y031981D02*
X022471Y031981D01*
X022508Y031943D02*
X021632Y031943D01*
X021625Y031905D02*
X022545Y031905D01*
X022581Y031867D02*
X021610Y031867D01*
X021594Y031829D02*
X022618Y031829D01*
X022654Y031791D02*
X021578Y031791D01*
X021562Y031754D02*
X022691Y031754D01*
X022728Y031716D02*
X021547Y031716D01*
X021509Y031678D02*
X022764Y031678D01*
X022801Y031640D02*
X021471Y031640D01*
X021433Y031602D02*
X022837Y031602D01*
X022874Y031564D02*
X021395Y031564D01*
X021344Y031526D02*
X022911Y031526D01*
X022947Y031488D02*
X021409Y031488D01*
X021446Y031451D02*
X022984Y031451D01*
X023020Y031413D02*
X021484Y031413D01*
X021522Y031375D02*
X023057Y031375D01*
X023094Y031337D02*
X021552Y031337D01*
X021568Y031299D02*
X023130Y031299D01*
X023167Y031261D02*
X021584Y031261D01*
X021599Y031223D02*
X023203Y031223D01*
X023240Y031186D02*
X021615Y031186D01*
X021631Y031148D02*
X023277Y031148D01*
X023313Y031110D02*
X021632Y031110D01*
X021632Y031072D02*
X023350Y031072D01*
X023386Y031034D02*
X021632Y031034D01*
X021632Y030996D02*
X023423Y030996D01*
X023460Y030958D02*
X021632Y030958D01*
X021632Y030920D02*
X023496Y030920D01*
X023533Y030883D02*
X022166Y030883D01*
X022251Y030845D02*
X023570Y030845D01*
X023606Y030807D02*
X022289Y030807D01*
X022327Y030769D02*
X023643Y030769D01*
X023679Y030731D02*
X022356Y030731D01*
X022371Y030693D02*
X023716Y030693D01*
X023753Y030655D02*
X022387Y030655D01*
X022409Y030617D02*
X023789Y030617D01*
X023826Y030580D02*
X022447Y030580D01*
X022484Y030542D02*
X023862Y030542D01*
X023899Y030504D02*
X022522Y030504D01*
X022560Y030466D02*
X023936Y030466D01*
X023972Y030428D02*
X022598Y030428D01*
X022636Y030390D02*
X024009Y030390D01*
X023913Y029709D02*
X021539Y029709D01*
X021560Y029746D02*
X022403Y029746D01*
X022338Y029784D02*
X021575Y029784D01*
X021591Y029822D02*
X022300Y029822D01*
X022262Y029860D02*
X021607Y029860D01*
X021622Y029898D02*
X022224Y029898D01*
X022186Y029936D02*
X021632Y029936D01*
X021632Y029974D02*
X022148Y029974D01*
X022110Y030012D02*
X021632Y030012D01*
X021632Y030049D02*
X022073Y030049D01*
X022035Y030087D02*
X021632Y030087D01*
X021632Y030125D02*
X021997Y030125D01*
X021959Y030163D02*
X021624Y030163D01*
X021609Y030201D02*
X021885Y030201D01*
X021814Y030239D02*
X021593Y030239D01*
X021577Y030277D02*
X021776Y030277D01*
X021738Y030314D02*
X021562Y030314D01*
X021545Y030352D02*
X021714Y030352D01*
X021699Y030390D02*
X021507Y030390D01*
X021469Y030428D02*
X021683Y030428D01*
X021668Y030466D02*
X021431Y030466D01*
X021393Y030504D02*
X021668Y030504D01*
X021668Y030542D02*
X021349Y030542D01*
X021410Y030580D02*
X021668Y030580D01*
X021671Y030617D02*
X021448Y030617D01*
X021486Y030655D02*
X021687Y030655D01*
X021703Y030693D02*
X021524Y030693D01*
X021553Y030731D02*
X021718Y030731D01*
X021747Y030769D02*
X021569Y030769D01*
X021585Y030807D02*
X021785Y030807D01*
X021823Y030845D02*
X021600Y030845D01*
X021616Y030883D02*
X021908Y030883D01*
X022089Y029656D02*
X021953Y029600D01*
X021849Y029496D01*
X021793Y029360D01*
X021793Y029214D01*
X021849Y029078D01*
X021953Y028974D01*
X022072Y028925D01*
X022356Y028641D01*
X022473Y028592D01*
X023970Y028592D01*
X024089Y028543D01*
X024235Y028543D01*
X024371Y028599D01*
X024475Y028703D01*
X024531Y028839D01*
X024531Y028985D01*
X024475Y029121D01*
X024371Y029225D01*
X024235Y029281D01*
X024089Y029281D01*
X023970Y029232D01*
X022669Y029232D01*
X022524Y029377D01*
X022475Y029496D01*
X022371Y029600D01*
X022235Y029656D01*
X022089Y029656D01*
X022033Y029633D02*
X021464Y029633D01*
X021502Y029671D02*
X023951Y029671D01*
X023989Y029633D02*
X022291Y029633D01*
X022376Y029595D02*
X024027Y029595D01*
X024065Y029557D02*
X022413Y029557D01*
X022451Y029519D02*
X024103Y029519D01*
X024141Y029481D02*
X022481Y029481D01*
X022496Y029443D02*
X024178Y029443D01*
X024216Y029406D02*
X022512Y029406D01*
X022533Y029368D02*
X024254Y029368D01*
X024292Y029330D02*
X022571Y029330D01*
X022609Y029292D02*
X024330Y029292D01*
X024300Y029254D02*
X024368Y029254D01*
X024379Y029216D02*
X024406Y029216D01*
X024417Y029178D02*
X024444Y029178D01*
X024455Y029141D02*
X024481Y029141D01*
X024482Y029103D02*
X024519Y029103D01*
X024498Y029065D02*
X024557Y029065D01*
X024595Y029027D02*
X024514Y029027D01*
X024529Y028989D02*
X024633Y028989D01*
X024671Y028951D02*
X024531Y028951D01*
X024531Y028913D02*
X024709Y028913D01*
X024746Y028875D02*
X024531Y028875D01*
X024530Y028838D02*
X024784Y028838D01*
X024822Y028800D02*
X024515Y028800D01*
X024499Y028762D02*
X024860Y028762D01*
X024898Y028724D02*
X024483Y028724D01*
X024458Y028686D02*
X024936Y028686D01*
X024974Y028648D02*
X024420Y028648D01*
X024382Y028610D02*
X025012Y028610D01*
X025049Y028572D02*
X024306Y028572D01*
X024018Y028572D02*
X021403Y028572D01*
X021441Y028610D02*
X022430Y028610D01*
X022349Y028648D02*
X021479Y028648D01*
X021517Y028686D02*
X022311Y028686D01*
X022273Y028724D02*
X021550Y028724D01*
X021566Y028762D02*
X022235Y028762D01*
X022197Y028800D02*
X021582Y028800D01*
X021597Y028838D02*
X022159Y028838D01*
X022121Y028875D02*
X021613Y028875D01*
X021629Y028913D02*
X022084Y028913D01*
X022009Y028951D02*
X021632Y028951D01*
X021632Y028989D02*
X021939Y028989D01*
X021901Y029027D02*
X021632Y029027D01*
X021632Y029065D02*
X021863Y029065D01*
X021839Y029103D02*
X021632Y029103D01*
X021632Y029141D02*
X021824Y029141D01*
X021808Y029178D02*
X021618Y029178D01*
X021602Y029216D02*
X021793Y029216D01*
X021793Y029254D02*
X021587Y029254D01*
X021571Y029292D02*
X021793Y029292D01*
X021793Y029330D02*
X021555Y029330D01*
X021529Y029368D02*
X021796Y029368D01*
X021812Y029406D02*
X021491Y029406D01*
X021454Y029443D02*
X021828Y029443D01*
X021843Y029481D02*
X021416Y029481D01*
X021361Y029519D02*
X021873Y029519D01*
X021911Y029557D02*
X021386Y029557D01*
X021426Y029595D02*
X021948Y029595D01*
X022647Y029254D02*
X024024Y029254D01*
X025087Y028535D02*
X021332Y028535D01*
X021400Y028497D02*
X025125Y028497D01*
X025163Y028459D02*
X021438Y028459D01*
X021476Y028421D02*
X025201Y028421D01*
X025239Y028383D02*
X021514Y028383D01*
X021549Y028345D02*
X025277Y028345D01*
X025315Y028307D02*
X021565Y028307D01*
X021580Y028269D02*
X025352Y028269D01*
X025390Y028232D02*
X021596Y028232D01*
X021612Y028194D02*
X025428Y028194D01*
X025466Y028156D02*
X021627Y028156D01*
X021632Y028118D02*
X025504Y028118D01*
X025542Y028080D02*
X021632Y028080D01*
X021632Y028042D02*
X025580Y028042D01*
X025618Y028004D02*
X021632Y028004D01*
X021632Y027967D02*
X025655Y027967D01*
X025683Y027929D02*
X021632Y027929D01*
X021619Y027891D02*
X025698Y027891D01*
X025714Y027853D02*
X021604Y027853D01*
X021588Y027815D02*
X025737Y027815D01*
X025775Y027777D02*
X021572Y027777D01*
X021557Y027739D02*
X025813Y027739D01*
X025884Y027701D02*
X021532Y027701D01*
X021494Y027664D02*
X026644Y027664D01*
X026607Y027701D02*
X026190Y027701D01*
X026261Y027739D02*
X026571Y027739D01*
X026534Y027777D02*
X026299Y027777D01*
X026337Y027815D02*
X026498Y027815D01*
X026461Y027853D02*
X026360Y027853D01*
X026376Y027891D02*
X026424Y027891D01*
X026681Y027626D02*
X021457Y027626D01*
X021419Y027588D02*
X026717Y027588D01*
X026754Y027550D02*
X021369Y027550D01*
X021379Y027512D02*
X026790Y027512D01*
X026827Y027474D02*
X021423Y027474D01*
X021461Y027436D02*
X026864Y027436D01*
X026900Y027398D02*
X021499Y027398D01*
X021536Y027361D02*
X026937Y027361D01*
X026973Y027323D02*
X021558Y027323D01*
X021574Y027285D02*
X027010Y027285D01*
X027047Y027247D02*
X021590Y027247D01*
X021605Y027209D02*
X027083Y027209D01*
X027120Y027171D02*
X021621Y027171D01*
X021632Y027133D02*
X027156Y027133D01*
X027193Y027096D02*
X021632Y027096D01*
X021632Y027058D02*
X027230Y027058D01*
X027266Y027020D02*
X021632Y027020D01*
X021632Y026982D02*
X027303Y026982D01*
X027339Y026944D02*
X021632Y026944D01*
X021626Y026906D02*
X027376Y026906D01*
X027413Y026868D02*
X021610Y026868D01*
X021594Y026830D02*
X027449Y026830D01*
X027486Y026793D02*
X021579Y026793D01*
X021563Y026755D02*
X027522Y026755D01*
X027559Y026717D02*
X021547Y026717D01*
X021510Y026679D02*
X027596Y026679D01*
X027632Y026641D02*
X021472Y026641D01*
X021434Y026603D02*
X027669Y026603D01*
X027705Y026565D02*
X021396Y026565D01*
X021341Y026527D02*
X027742Y026527D01*
X027779Y026490D02*
X021407Y026490D01*
X021445Y026452D02*
X027815Y026452D01*
X027852Y026414D02*
X021483Y026414D01*
X021521Y026376D02*
X027888Y026376D01*
X027925Y026338D02*
X021552Y026338D01*
X021568Y026300D02*
X027962Y026300D01*
X027998Y026262D02*
X021583Y026262D01*
X021599Y026225D02*
X028035Y026225D01*
X028071Y026187D02*
X021615Y026187D01*
X021630Y026149D02*
X028108Y026149D01*
X028145Y026111D02*
X021632Y026111D01*
X021632Y026073D02*
X028181Y026073D01*
X028218Y026035D02*
X021632Y026035D01*
X021632Y025997D02*
X028254Y025997D01*
X028291Y025959D02*
X021632Y025959D01*
X021632Y025922D02*
X028328Y025922D01*
X028364Y025884D02*
X021616Y025884D01*
X021601Y025846D02*
X028401Y025846D01*
X028437Y025808D02*
X021585Y025808D01*
X021569Y025770D02*
X028374Y025770D01*
X028336Y025732D02*
X021554Y025732D01*
X021525Y025694D02*
X028298Y025694D01*
X028276Y025656D02*
X021487Y025656D01*
X021449Y025619D02*
X028260Y025619D01*
X028244Y025581D02*
X021412Y025581D01*
X021351Y025543D02*
X028231Y025543D01*
X028231Y025505D02*
X021392Y025505D01*
X021430Y025467D02*
X028231Y025467D01*
X028231Y025429D02*
X021468Y025429D01*
X021506Y025391D02*
X028235Y025391D01*
X028251Y025353D02*
X021544Y025353D01*
X021561Y025316D02*
X028266Y025316D01*
X028282Y025278D02*
X021577Y025278D01*
X021593Y025240D02*
X028313Y025240D01*
X028351Y025202D02*
X021608Y025202D01*
X021624Y025164D02*
X028388Y025164D01*
X028477Y025126D02*
X021632Y025126D01*
X021632Y025088D02*
X028542Y025088D01*
X028578Y025051D02*
X021632Y025051D01*
X021632Y025013D02*
X028614Y025013D01*
X028651Y024975D02*
X021632Y024975D01*
X021632Y024937D02*
X028687Y024937D01*
X028724Y024899D02*
X021623Y024899D01*
X021607Y024861D02*
X028760Y024861D01*
X028797Y024823D02*
X021591Y024823D01*
X021576Y024785D02*
X028833Y024785D01*
X028870Y024748D02*
X021560Y024748D01*
X021541Y024710D02*
X028906Y024710D01*
X028943Y024672D02*
X021503Y024672D01*
X021465Y024634D02*
X028979Y024634D01*
X029016Y024596D02*
X021427Y024596D01*
X021389Y024558D02*
X029052Y024558D01*
X029089Y024520D02*
X021359Y024520D01*
X021415Y024482D02*
X029125Y024482D01*
X029162Y024445D02*
X021452Y024445D01*
X021490Y024407D02*
X029198Y024407D01*
X029235Y024369D02*
X021528Y024369D01*
X021555Y024331D02*
X029271Y024331D01*
X029308Y024293D02*
X021571Y024293D01*
X021586Y024255D02*
X029344Y024255D01*
X030147Y023422D02*
X017449Y023422D01*
X017449Y023384D02*
X030184Y023384D01*
X030220Y023346D02*
X017449Y023346D01*
X017449Y023308D02*
X030257Y023308D01*
X030293Y023271D02*
X017449Y023271D01*
X017449Y023233D02*
X030330Y023233D01*
X030366Y023195D02*
X017449Y023195D01*
X017449Y023157D02*
X030403Y023157D01*
X030439Y023119D02*
X017449Y023119D01*
X017449Y023081D02*
X030476Y023081D01*
X030512Y023043D02*
X017449Y023043D01*
X017449Y023006D02*
X030549Y023006D01*
X030585Y022968D02*
X017449Y022968D01*
X017449Y022930D02*
X030622Y022930D01*
X030658Y022892D02*
X017449Y022892D01*
X017449Y022854D02*
X030695Y022854D01*
X030731Y022816D02*
X017449Y022816D01*
X017449Y022778D02*
X030768Y022778D01*
X030804Y022740D02*
X017449Y022740D01*
X017449Y022703D02*
X030841Y022703D01*
X030877Y022665D02*
X017449Y022665D01*
X017449Y022627D02*
X030914Y022627D01*
X030950Y022589D02*
X017449Y022589D01*
X017449Y022551D02*
X030987Y022551D01*
X031023Y022513D02*
X017449Y022513D01*
X017449Y022475D02*
X031060Y022475D01*
X031096Y022437D02*
X017449Y022437D01*
X017449Y022400D02*
X031133Y022400D01*
X031169Y022362D02*
X017449Y022362D01*
X017449Y022324D02*
X031206Y022324D01*
X031242Y022286D02*
X017449Y022286D01*
X020243Y023498D02*
X020902Y023498D01*
X020811Y023536D02*
X020334Y023536D01*
X020404Y023574D02*
X020740Y023574D01*
X020703Y023611D02*
X020442Y023611D01*
X020480Y023649D02*
X020665Y023649D01*
X020627Y023687D02*
X020518Y023687D01*
X020551Y023725D02*
X020594Y023725D01*
X020579Y023763D02*
X020566Y023763D01*
X022217Y020241D02*
X035008Y020241D01*
X034940Y020203D02*
X022217Y020203D01*
X022217Y020165D02*
X034902Y020165D01*
X034864Y020127D02*
X022217Y020127D01*
X022217Y020090D02*
X034827Y020090D01*
X034790Y020052D02*
X022217Y020052D01*
X022217Y020014D02*
X034774Y020014D01*
X034759Y019976D02*
X022217Y019976D01*
X022217Y019938D02*
X034743Y019938D01*
X034727Y019900D02*
X022217Y019900D01*
X022217Y019862D02*
X034712Y019862D01*
X034701Y019824D02*
X022217Y019824D01*
X022217Y019787D02*
X034701Y019787D01*
X034701Y019749D02*
X022217Y019749D01*
X022217Y019711D02*
X034701Y019711D01*
X034701Y019673D02*
X022217Y019673D01*
X022217Y019635D02*
X034701Y019635D01*
X034704Y019597D02*
X022217Y019597D01*
X022217Y019559D02*
X034719Y019559D01*
X034735Y019521D02*
X022217Y019521D01*
X022217Y019484D02*
X034751Y019484D01*
X034766Y019446D02*
X022217Y019446D01*
X022217Y019408D02*
X034782Y019408D01*
X034807Y019370D02*
X022217Y019370D01*
X022217Y019332D02*
X034845Y019332D01*
X034883Y019294D02*
X022217Y019294D01*
X022217Y019256D02*
X034921Y019256D01*
X034961Y019218D02*
X022217Y019218D01*
X022217Y019181D02*
X035052Y019181D01*
X035144Y019143D02*
X022217Y019143D01*
X022217Y019105D02*
X037521Y019105D01*
X037559Y019143D02*
X035438Y019143D01*
X035530Y019181D02*
X037623Y019181D01*
X037687Y019218D02*
X035621Y019218D01*
X035661Y019256D02*
X037703Y019256D01*
X037719Y019294D02*
X035699Y019294D01*
X035737Y019332D02*
X037748Y019332D01*
X037786Y019370D02*
X035775Y019370D01*
X035800Y019408D02*
X037824Y019408D01*
X037909Y019446D02*
X035816Y019446D01*
X037256Y018840D02*
X037318Y018840D01*
X037431Y018953D02*
X022202Y018953D01*
X022217Y018991D02*
X037447Y018991D01*
X037462Y019029D02*
X022217Y019029D01*
X022217Y019067D02*
X037483Y019067D01*
X038165Y019446D02*
X041195Y019446D01*
X044619Y020544D02*
X029512Y020544D01*
X029527Y020582D02*
X044631Y020582D01*
X044643Y020620D02*
X029543Y020620D01*
X029559Y020658D02*
X044656Y020658D01*
X044668Y020695D02*
X029562Y020695D01*
X029562Y020733D02*
X044680Y020733D01*
X044680Y020734D02*
X044680Y020734D01*
X044708Y020771D02*
X029562Y020771D01*
X029562Y020809D02*
X044735Y020809D01*
X044763Y020847D02*
X029562Y020847D01*
X029562Y020885D02*
X044790Y020885D01*
X044818Y020923D02*
X029562Y020923D01*
X029562Y020961D02*
X044845Y020961D01*
X044873Y020998D02*
X029562Y020998D01*
X029562Y021036D02*
X044900Y021036D01*
X044948Y021074D02*
X029562Y021074D01*
X029562Y021112D02*
X045000Y021112D01*
X045052Y021150D02*
X029562Y021150D01*
X029562Y021188D02*
X045104Y021188D01*
X045157Y021226D02*
X029562Y021226D01*
X029562Y021263D02*
X045209Y021263D01*
X045214Y021268D02*
X045214Y021268D01*
X045318Y021301D02*
X029562Y021301D01*
X029562Y021339D02*
X045435Y021339D01*
X045551Y021377D02*
X029562Y021377D01*
X029559Y021415D02*
X048849Y021415D01*
X048849Y021453D02*
X029544Y021453D01*
X029528Y021491D02*
X032068Y021491D01*
X031982Y021529D02*
X029512Y021529D01*
X029497Y021566D02*
X031945Y021566D01*
X031907Y021604D02*
X029479Y021604D01*
X029441Y021642D02*
X031869Y021642D01*
X031831Y021680D02*
X029403Y021680D01*
X029365Y021718D02*
X031793Y021718D01*
X031755Y021756D02*
X029316Y021756D01*
X029225Y021794D02*
X031716Y021794D01*
X028849Y021794D02*
X028225Y021794D01*
X028316Y021756D02*
X028758Y021756D01*
X028709Y021718D02*
X028365Y021718D01*
X028403Y021680D02*
X028671Y021680D01*
X028633Y021642D02*
X028441Y021642D01*
X028479Y021604D02*
X028595Y021604D01*
X028578Y021566D02*
X028497Y021566D01*
X028512Y021529D02*
X028562Y021529D01*
X028546Y021491D02*
X028528Y021491D01*
X035974Y029621D02*
X035977Y029624D01*
X035977Y029784D01*
X041647Y028989D02*
X044040Y028989D01*
X044040Y028951D02*
X041750Y028951D01*
X041811Y028913D02*
X044040Y028913D01*
X044040Y028875D02*
X041849Y028875D01*
X041893Y028838D02*
X044040Y028838D01*
X044040Y028800D02*
X041937Y028800D01*
X041981Y028762D02*
X044040Y028762D01*
X044040Y028724D02*
X042025Y028724D01*
X042069Y028686D02*
X044040Y028686D01*
X044040Y028648D02*
X042114Y028648D01*
X042158Y028610D02*
X044040Y028610D01*
X044040Y028572D02*
X042202Y028572D01*
X042246Y028535D02*
X044040Y028535D01*
X044040Y028497D02*
X042290Y028497D01*
X042335Y028459D02*
X044040Y028459D01*
X044040Y028421D02*
X042379Y028421D01*
X042423Y028383D02*
X044040Y028383D01*
X044040Y028345D02*
X042467Y028345D01*
X042511Y028307D02*
X044040Y028307D01*
X044040Y028269D02*
X042555Y028269D01*
X042600Y028232D02*
X044040Y028232D01*
X044053Y028194D02*
X042644Y028194D01*
X042688Y028156D02*
X044069Y028156D01*
X044084Y028118D02*
X042732Y028118D01*
X042776Y028080D02*
X044118Y028080D01*
X044156Y028042D02*
X042821Y028042D01*
X042865Y028004D02*
X044194Y028004D01*
X044232Y027967D02*
X042909Y027967D01*
X042953Y027929D02*
X044270Y027929D01*
X044308Y027891D02*
X042997Y027891D01*
X043041Y027853D02*
X044346Y027853D01*
X044384Y027815D02*
X043086Y027815D01*
X043130Y027777D02*
X044421Y027777D01*
X044459Y027739D02*
X043174Y027739D01*
X043218Y027701D02*
X044497Y027701D01*
X044535Y027664D02*
X043262Y027664D01*
X043307Y027626D02*
X044573Y027626D01*
X044611Y027588D02*
X043351Y027588D01*
X043395Y027550D02*
X044649Y027550D01*
X044686Y027512D02*
X043439Y027512D01*
X043483Y027474D02*
X044724Y027474D01*
X044762Y027436D02*
X043527Y027436D01*
X043572Y027398D02*
X044800Y027398D01*
X044838Y027361D02*
X043616Y027361D01*
X043660Y027323D02*
X044876Y027323D01*
X044914Y027285D02*
X043704Y027285D01*
X043748Y027247D02*
X044990Y027247D01*
X045222Y027853D02*
X045836Y027853D01*
X045928Y027891D02*
X045184Y027891D01*
X045146Y027929D02*
X053617Y027929D01*
X053617Y027967D02*
X045108Y027967D01*
X045070Y028004D02*
X053617Y028004D01*
X053617Y028042D02*
X045032Y028042D01*
X044994Y028080D02*
X053617Y028080D01*
X053617Y028118D02*
X044956Y028118D01*
X044919Y028156D02*
X053617Y028156D01*
X053617Y028194D02*
X044881Y028194D01*
X044843Y028232D02*
X053617Y028232D01*
X053617Y028269D02*
X044805Y028269D01*
X044767Y028307D02*
X053617Y028307D01*
X053617Y028345D02*
X044729Y028345D01*
X044691Y028383D02*
X053617Y028383D01*
X053617Y028421D02*
X044659Y028421D01*
X044659Y028459D02*
X053617Y028459D01*
X053617Y028497D02*
X044659Y028497D01*
X044659Y028535D02*
X053617Y028535D01*
X053617Y028572D02*
X044659Y028572D01*
X044659Y028610D02*
X053617Y028610D01*
X053617Y028648D02*
X044659Y028648D01*
X044659Y028686D02*
X053617Y028686D01*
X053617Y028724D02*
X044659Y028724D01*
X044659Y028762D02*
X053617Y028762D01*
X053617Y028800D02*
X044659Y028800D01*
X044659Y028838D02*
X053617Y028838D01*
X053617Y028875D02*
X044659Y028875D01*
X044659Y028913D02*
X053617Y028913D01*
X053617Y028951D02*
X044659Y028951D01*
X044659Y028989D02*
X053617Y028989D01*
X053617Y029027D02*
X044659Y029027D01*
X044659Y029065D02*
X053617Y029065D01*
X053617Y029103D02*
X044659Y029103D01*
X044659Y029141D02*
X053617Y029141D01*
X053617Y029178D02*
X044659Y029178D01*
X044659Y029216D02*
X053617Y029216D01*
X053617Y029254D02*
X044659Y029254D01*
X044659Y029292D02*
X053617Y029292D01*
X053617Y029330D02*
X044659Y029330D01*
X044659Y029368D02*
X053617Y029368D01*
X053617Y029406D02*
X044659Y029406D01*
X044659Y029443D02*
X053617Y029443D01*
X053617Y029481D02*
X044659Y029481D01*
X044659Y029519D02*
X053617Y029519D01*
X053617Y029557D02*
X044659Y029557D01*
X044659Y029595D02*
X053617Y029595D01*
X053617Y029633D02*
X044659Y029633D01*
X044659Y029671D02*
X053617Y029671D01*
X053617Y029709D02*
X044659Y029709D01*
X044659Y029746D02*
X053617Y029746D01*
X053617Y029784D02*
X044659Y029784D01*
X044659Y029822D02*
X053617Y029822D01*
X053617Y029860D02*
X044659Y029860D01*
X044659Y029898D02*
X053617Y029898D01*
X053617Y029936D02*
X044659Y029936D01*
X044659Y029974D02*
X053617Y029974D01*
X053617Y030012D02*
X044659Y030012D01*
X044659Y030049D02*
X053617Y030049D01*
X053617Y030087D02*
X044659Y030087D01*
X044659Y030125D02*
X053617Y030125D01*
X053617Y030163D02*
X044659Y030163D01*
X044659Y030201D02*
X053617Y030201D01*
X053617Y030239D02*
X044659Y030239D01*
X044659Y030277D02*
X053617Y030277D01*
X053617Y030314D02*
X044659Y030314D01*
X044659Y030352D02*
X053617Y030352D01*
X053617Y030390D02*
X044659Y030390D01*
X044659Y030428D02*
X053617Y030428D01*
X053617Y030466D02*
X044659Y030466D01*
X044659Y030504D02*
X053617Y030504D01*
X053617Y030542D02*
X044659Y030542D01*
X044659Y030580D02*
X053617Y030580D01*
X053617Y030617D02*
X044659Y030617D01*
X044659Y030655D02*
X053617Y030655D01*
X053617Y030693D02*
X044659Y030693D01*
X044659Y030731D02*
X053617Y030731D01*
X053617Y030769D02*
X044659Y030769D01*
X044659Y030807D02*
X053617Y030807D01*
X053617Y030845D02*
X044659Y030845D01*
X044659Y030883D02*
X053617Y030883D01*
X053617Y030920D02*
X044659Y030920D01*
X044659Y030958D02*
X053617Y030958D01*
X053617Y030996D02*
X044659Y030996D01*
X044659Y031034D02*
X053617Y031034D01*
X053617Y031072D02*
X044659Y031072D01*
X044659Y031110D02*
X053617Y031110D01*
X053617Y031148D02*
X044659Y031148D01*
X044659Y031186D02*
X053617Y031186D01*
X053617Y031223D02*
X044659Y031223D01*
X044659Y031261D02*
X053617Y031261D01*
X053617Y031299D02*
X044659Y031299D01*
X044659Y031337D02*
X053617Y031337D01*
X053617Y031375D02*
X044648Y031375D01*
X044633Y031413D02*
X053617Y031413D01*
X053617Y031451D02*
X044617Y031451D01*
X044586Y031488D02*
X053617Y031488D01*
X053617Y031526D02*
X044548Y031526D01*
X044510Y031564D02*
X053617Y031564D01*
X053617Y031602D02*
X044472Y031602D01*
X044435Y031640D02*
X053617Y031640D01*
X053617Y031678D02*
X044397Y031678D01*
X044359Y031716D02*
X053617Y031716D01*
X053617Y031754D02*
X044321Y031754D01*
X044283Y031791D02*
X053617Y031791D01*
X053617Y031829D02*
X044245Y031829D01*
X044207Y031867D02*
X053617Y031867D01*
X053617Y031905D02*
X044169Y031905D01*
X044132Y031943D02*
X053617Y031943D01*
X053617Y031981D02*
X044094Y031981D01*
X044056Y032019D02*
X053617Y032019D01*
X053617Y032057D02*
X044018Y032057D01*
X043980Y032094D02*
X053617Y032094D01*
X053617Y032132D02*
X043942Y032132D01*
X043904Y032170D02*
X053617Y032170D01*
X053617Y032208D02*
X043866Y032208D01*
X043829Y032246D02*
X053617Y032246D01*
X053617Y032284D02*
X043791Y032284D01*
X043753Y032322D02*
X053617Y032322D01*
X053617Y032359D02*
X043715Y032359D01*
X043677Y032397D02*
X053617Y032397D01*
X053617Y032435D02*
X043659Y032435D01*
X043659Y032473D02*
X053617Y032473D01*
X053617Y032511D02*
X043659Y032511D01*
X043659Y032549D02*
X053617Y032549D01*
X053617Y032587D02*
X043666Y032587D01*
X043681Y032625D02*
X053617Y032625D01*
X053617Y032662D02*
X043697Y032662D01*
X043713Y032700D02*
X053617Y032700D01*
X053617Y032738D02*
X043718Y032738D01*
X043718Y032776D02*
X053617Y032776D01*
X053617Y032814D02*
X043718Y032814D01*
X043718Y032852D02*
X053617Y032852D01*
X053617Y032890D02*
X043706Y032890D01*
X043690Y032928D02*
X053617Y032928D01*
X053617Y032965D02*
X043675Y032965D01*
X043655Y033003D02*
X053617Y033003D01*
X053617Y033041D02*
X043617Y033041D01*
X043579Y033079D02*
X053617Y033079D01*
X053617Y033117D02*
X043517Y033117D01*
X043425Y033155D02*
X053617Y033155D01*
X053617Y027891D02*
X046146Y027891D01*
X046238Y027853D02*
X053617Y027853D01*
X053617Y027815D02*
X046280Y027815D01*
X046318Y027777D02*
X053617Y027777D01*
X053617Y027739D02*
X046352Y027739D01*
X046368Y027701D02*
X053617Y027701D01*
X053617Y027664D02*
X046384Y027664D01*
X046399Y027626D02*
X053617Y027626D01*
X053617Y027588D02*
X046406Y027588D01*
X046406Y027550D02*
X053617Y027550D01*
X053617Y027512D02*
X046406Y027512D01*
X046406Y027474D02*
X053617Y027474D01*
X053617Y027436D02*
X046394Y027436D01*
X046379Y027398D02*
X053617Y027398D01*
X053617Y027361D02*
X046363Y027361D01*
X046347Y027323D02*
X053617Y027323D01*
X053617Y027285D02*
X046347Y027285D01*
X046347Y027247D02*
X053617Y027247D01*
X053617Y022210D02*
X052104Y022210D01*
X052138Y022172D02*
X053617Y022172D01*
X053617Y022135D02*
X052138Y022135D01*
X052138Y022097D02*
X053617Y022097D01*
X053617Y022059D02*
X052138Y022059D01*
X052138Y022021D02*
X053617Y022021D01*
X053617Y021983D02*
X052138Y021983D01*
X052138Y021945D02*
X053617Y021945D01*
X053617Y021907D02*
X052138Y021907D01*
X052138Y021869D02*
X053617Y021869D01*
X053617Y021832D02*
X052138Y021832D01*
X052138Y021794D02*
X053617Y021794D01*
X053617Y021756D02*
X052138Y021756D01*
X052138Y021718D02*
X053617Y021718D01*
X053617Y021680D02*
X052138Y021680D01*
X052138Y021642D02*
X053617Y021642D01*
X053617Y021604D02*
X052138Y021604D01*
X052138Y021566D02*
X053617Y021566D01*
X053617Y021529D02*
X052138Y021529D01*
X052138Y021491D02*
X053617Y021491D01*
X053617Y021453D02*
X052138Y021453D01*
X052138Y021415D02*
X053617Y021415D01*
X053617Y021377D02*
X052138Y021377D01*
X052138Y021339D02*
X053617Y021339D01*
X053617Y021301D02*
X052138Y021301D01*
X052138Y021263D02*
X053617Y021263D01*
X053617Y021226D02*
X052138Y021226D01*
X052138Y021188D02*
X053617Y021188D01*
X053617Y021150D02*
X052138Y021150D01*
X052138Y021112D02*
X053617Y021112D01*
X053617Y021074D02*
X052138Y021074D01*
X052138Y021036D02*
X053617Y021036D01*
X053617Y020998D02*
X052138Y020998D01*
X052138Y020961D02*
X053617Y020961D01*
X053617Y020923D02*
X052138Y020923D01*
X052138Y020885D02*
X053617Y020885D01*
X053617Y020847D02*
X052138Y020847D01*
X052138Y020809D02*
X053617Y020809D01*
X053617Y020771D02*
X052138Y020771D01*
X052138Y020733D02*
X053617Y020733D01*
X053617Y020695D02*
X052138Y020695D01*
X052138Y020658D02*
X053617Y020658D01*
X053617Y020620D02*
X052138Y020620D01*
X052138Y020582D02*
X053617Y020582D01*
X053615Y020544D02*
X052138Y020544D01*
X052138Y020506D02*
X053613Y020506D01*
X053610Y020468D02*
X052138Y020468D01*
X052138Y020430D02*
X053599Y020430D01*
X053589Y020392D02*
X052138Y020392D01*
X052138Y020355D02*
X053579Y020355D01*
X053569Y020317D02*
X052138Y020317D01*
X052138Y020279D02*
X053558Y020279D01*
X053536Y020241D02*
X052138Y020241D01*
X052138Y020203D02*
X053514Y020203D01*
X053493Y020165D02*
X052138Y020165D01*
X052138Y020127D02*
X053471Y020127D01*
X053441Y020090D02*
X052138Y020090D01*
X052138Y020052D02*
X053403Y020052D01*
X053365Y020014D02*
X052138Y020014D01*
X052138Y019976D02*
X053327Y019976D01*
X053267Y019938D02*
X052138Y019938D01*
X052138Y019900D02*
X053201Y019900D01*
X053122Y019862D02*
X052138Y019862D01*
X052138Y019824D02*
X052981Y019824D01*
X048849Y021150D02*
X048848Y021150D01*
X048849Y021188D02*
X048796Y021188D01*
X048744Y021226D02*
X048849Y021226D01*
X048849Y021263D02*
X048692Y021263D01*
X048686Y021268D02*
X048686Y021268D01*
X048583Y021301D02*
X048849Y021301D01*
X048849Y021339D02*
X048466Y021339D01*
X048350Y021377D02*
X048849Y021377D01*
X045529Y025467D02*
X045498Y025467D01*
X045501Y025505D02*
X045567Y025505D01*
X045605Y025543D02*
X045498Y025543D01*
X045497Y025581D02*
X045643Y025581D01*
X045681Y025619D02*
X045497Y025619D01*
X045489Y025656D02*
X045718Y025656D01*
X045727Y025694D02*
X045473Y025694D01*
X045454Y025732D02*
X045727Y025732D01*
X045727Y025770D02*
X045438Y025770D01*
X045416Y025808D02*
X045727Y025808D01*
X045727Y025846D02*
X045383Y025846D01*
X045340Y025884D02*
X045727Y025884D01*
X045727Y025922D02*
X045303Y025922D01*
X045251Y025959D02*
X045727Y025959D01*
X045727Y025997D02*
X045206Y025997D01*
X045162Y026035D02*
X045727Y026035D01*
X045727Y026073D02*
X045118Y026073D01*
X045074Y026111D02*
X045727Y026111D01*
X045727Y026149D02*
X045030Y026149D01*
X044985Y026187D02*
X045727Y026187D01*
X045727Y026225D02*
X044941Y026225D01*
X044897Y026262D02*
X045727Y026262D01*
X045727Y026300D02*
X044853Y026300D01*
X044809Y026338D02*
X045727Y026338D01*
X045727Y026376D02*
X044765Y026376D01*
X044720Y026414D02*
X045727Y026414D01*
X037008Y017628D02*
X017725Y017628D01*
X017775Y017590D02*
X037046Y017590D01*
X037084Y017552D02*
X017840Y017552D01*
X017906Y017514D02*
X037122Y017514D01*
X037160Y017476D02*
X018032Y017476D01*
X025561Y049704D02*
X032099Y049704D01*
X032137Y049742D02*
X025678Y049742D01*
X025794Y049780D02*
X032174Y049780D01*
X032212Y049818D02*
X025878Y049818D01*
X025930Y049856D02*
X032250Y049856D01*
X032288Y049893D02*
X025982Y049893D01*
X026035Y049931D02*
X032326Y049931D01*
X032364Y049969D02*
X026087Y049969D01*
X026139Y050007D02*
X032402Y050007D01*
X032485Y050045D02*
X026177Y050045D01*
X026161Y050023D02*
X026161Y050023D01*
X036836Y049363D02*
X036836Y049272D01*
D23*
X034100Y030850D03*
X032725Y028225D03*
X032725Y027850D03*
X032350Y027850D03*
X032350Y028225D03*
X044850Y026850D03*
D24*
X044787Y026850D01*
X044600Y027037D01*
X034100Y030600D02*
X034037Y030537D01*
X034100Y030600D02*
X034100Y030850D01*
X032912Y018912D02*
X032975Y018850D01*
X033225Y018850D01*
X031912Y047787D02*
X031787Y047912D01*
X031787Y048912D01*
X032600Y049725D01*
X036662Y049725D01*
X037225Y049662D01*
X037225Y049350D01*
D25*
X036225Y048662D02*
X035537Y049037D01*
X036641Y047787D02*
X036662Y047787D01*
X036633Y047633D02*
X036537Y047537D01*
X036633Y047633D02*
X036625Y047658D01*
X036622Y047684D01*
X036621Y047711D01*
X036624Y047737D01*
X036631Y047763D01*
X036641Y047787D01*
X037537Y050787D02*
X037537Y051037D01*
X030412Y046162D02*
X028912Y046537D01*
X022412Y043037D02*
X022412Y034850D01*
X029537Y027662D01*
X030162Y027662D01*
X030287Y027787D01*
X031037Y027787D01*
X030037Y027037D02*
X029537Y027037D01*
X022037Y034600D01*
X022037Y042537D01*
X021537Y043037D01*
X021076Y043037D01*
X021072Y043033D01*
X021072Y044033D02*
X021416Y044033D01*
X022412Y043037D01*
X020069Y039037D02*
X020072Y039033D01*
X020069Y039037D02*
X020037Y039037D01*
X020412Y038537D01*
X021287Y038537D01*
X021662Y038162D01*
X021662Y033725D01*
X032162Y022912D01*
X033537Y022912D01*
X032225Y022350D02*
X021412Y033537D01*
X020537Y033537D01*
X020537Y034537D01*
X020041Y035033D01*
X020037Y035037D01*
X020041Y035033D02*
X020072Y035033D01*
X022037Y030537D02*
X022537Y030037D01*
X024037Y030037D01*
X026037Y028037D01*
X024162Y028912D02*
X022537Y028912D01*
X022162Y029287D01*
X030037Y027037D02*
X031287Y025787D01*
X035162Y020412D02*
X035664Y020412D01*
D26*
X035664Y020412D03*
X036537Y018537D03*
X037037Y018537D03*
X037537Y018537D03*
X037787Y018850D03*
X038037Y019100D03*
X038037Y022537D03*
X036037Y022412D03*
X035037Y024662D03*
X033064Y023635D03*
X031287Y025787D03*
X031037Y027787D03*
X029537Y028537D03*
X029037Y029537D03*
X027226Y028601D03*
X026037Y028037D03*
X024162Y028912D03*
X022162Y029287D03*
X022037Y030537D03*
X028600Y025475D03*
X029537Y032287D03*
X029537Y033037D03*
X029537Y034037D03*
X029537Y035037D03*
X029537Y036037D03*
X029537Y037037D03*
X030537Y037537D03*
X029537Y038287D03*
X029537Y039287D03*
X030350Y040100D03*
X031100Y040850D03*
X031975Y041662D03*
X032787Y042037D03*
X033787Y042037D03*
X033787Y043287D03*
X033037Y043287D03*
X032287Y043287D03*
X032287Y044037D03*
X032662Y044662D03*
X032662Y045662D03*
X033037Y046037D03*
X033787Y046037D03*
X033787Y045037D03*
X033787Y044037D03*
X035287Y044537D03*
X035287Y045537D03*
X035537Y046287D03*
X035287Y047287D03*
X036037Y047287D03*
X036537Y046787D03*
X036537Y045787D03*
X036537Y044787D03*
X036537Y043787D03*
X036287Y043287D03*
X036537Y042662D03*
X036287Y042037D03*
X036287Y041037D03*
X036787Y040537D03*
X036287Y040037D03*
X036287Y039037D03*
X037037Y038787D03*
X038037Y038787D03*
X038912Y038412D03*
X039787Y038412D03*
X040162Y038912D03*
X040787Y039537D03*
X040787Y040537D03*
X040787Y041537D03*
X040787Y042537D03*
X040787Y043537D03*
X040787Y044537D03*
X040787Y045537D03*
X040787Y046537D03*
X041537Y046912D03*
X041537Y047537D03*
X040537Y047537D03*
X039537Y047537D03*
X038662Y047537D03*
X037850Y048100D03*
X037662Y048287D03*
X037475Y048100D03*
X037475Y048475D03*
X037850Y048475D03*
X038787Y046537D03*
X039287Y046037D03*
X038537Y045037D03*
X038537Y044037D03*
X038537Y043162D03*
X038537Y042412D03*
X039537Y041662D03*
X039537Y041162D03*
X037787Y040537D03*
X035162Y041662D03*
X035162Y042037D03*
X035287Y043287D03*
X033787Y041037D03*
X033787Y040037D03*
X033787Y038787D03*
X033037Y038287D03*
X032287Y039037D03*
X031287Y038537D03*
X032037Y037662D03*
X031287Y036287D03*
X031787Y035287D03*
X031787Y034287D03*
X031787Y033287D03*
X031787Y032287D03*
X030787Y032287D03*
X034162Y032412D03*
X036287Y029412D03*
X040162Y027912D03*
X041787Y029537D03*
X042287Y028912D03*
X043037Y028912D03*
X043912Y028912D03*
X043912Y029537D03*
X043912Y030287D03*
X043912Y031037D03*
X043037Y031037D03*
X042537Y031537D03*
X042537Y032162D03*
X041787Y032537D03*
X041787Y031537D03*
X041787Y030537D03*
X043350Y032787D03*
X042662Y033412D03*
X041787Y033537D03*
X041787Y034537D03*
X041787Y035537D03*
X041787Y036537D03*
X041787Y037662D03*
X042537Y037662D03*
X043537Y037662D03*
X044787Y038037D03*
X044787Y039037D03*
X045662Y038537D03*
X045662Y037287D03*
X045662Y036037D03*
X045662Y035037D03*
X045662Y033912D03*
X044787Y033912D03*
X044287Y033287D03*
X047287Y034412D03*
X047912Y034412D03*
X048037Y035037D03*
X048037Y036037D03*
X046912Y036537D03*
X046912Y037037D03*
X047662Y038537D03*
X048912Y038537D03*
X050037Y038537D03*
X050912Y037912D03*
X051537Y037287D03*
X051537Y036537D03*
X051537Y035787D03*
X051537Y034787D03*
X051537Y033787D03*
X052037Y033287D03*
X052287Y032537D03*
X052287Y031537D03*
X052287Y030537D03*
X052287Y029537D03*
X052287Y028537D03*
X052287Y027537D03*
X052287Y026537D03*
X052287Y025662D03*
X053412Y025662D03*
X053412Y026537D03*
X053412Y027537D03*
X053412Y028537D03*
X053412Y029537D03*
X053412Y030537D03*
X053412Y031537D03*
X053412Y032537D03*
X053412Y033537D03*
X053412Y034537D03*
X053412Y035537D03*
X053412Y036537D03*
X053412Y037537D03*
X053412Y038537D03*
X053412Y039537D03*
X053412Y040537D03*
X053412Y041537D03*
X053412Y042537D03*
X053412Y043537D03*
X053412Y044537D03*
X053412Y045537D03*
X053412Y046537D03*
X053412Y047537D03*
X053412Y048287D03*
X052537Y048287D03*
X051537Y048287D03*
X050537Y048287D03*
X049537Y048287D03*
X048537Y048287D03*
X048537Y046912D03*
X048037Y046537D03*
X047662Y046912D03*
X047537Y048287D03*
X046350Y046912D03*
X046100Y047537D03*
X045537Y047537D03*
X045537Y046912D03*
X045475Y046412D03*
X045475Y045912D03*
X045537Y045412D03*
X044787Y045412D03*
X044787Y044537D03*
X044787Y043537D03*
X044787Y042787D03*
X044787Y042037D03*
X044787Y041037D03*
X044787Y040037D03*
X046412Y040037D03*
X046412Y041037D03*
X046412Y042037D03*
X046412Y043037D03*
X046412Y044037D03*
X046412Y045412D03*
X047662Y045412D03*
X048037Y045787D03*
X048537Y045412D03*
X048787Y044537D03*
X048787Y043662D03*
X047662Y043037D03*
X047662Y042037D03*
X047662Y041037D03*
X047662Y040037D03*
X049537Y037037D03*
X050412Y036287D03*
X050412Y035037D03*
X050412Y033912D03*
X049412Y033912D03*
X048412Y033912D03*
X046037Y027537D03*
X042537Y025412D03*
X038162Y025162D03*
X043037Y020162D03*
X033787Y037537D03*
X030287Y042662D03*
X033037Y047037D03*
X033787Y047037D03*
X033787Y048037D03*
X033037Y048037D03*
X033537Y049037D03*
X034537Y049037D03*
X035537Y049037D03*
X037537Y050787D03*
X037787Y052287D03*
X037162Y052287D03*
X036412Y052287D03*
X035537Y052037D03*
X034537Y052037D03*
X033537Y052037D03*
X032537Y052037D03*
X031537Y052037D03*
X030537Y052037D03*
X030162Y052662D03*
X030537Y053412D03*
X031537Y053412D03*
X032537Y053412D03*
X033537Y053412D03*
X034537Y053412D03*
X035537Y053412D03*
X036412Y053412D03*
X037537Y053412D03*
X038537Y053412D03*
X038537Y052912D03*
X038412Y052287D03*
X039537Y052912D03*
X039537Y053412D03*
X040537Y053412D03*
X040537Y052912D03*
X041537Y053412D03*
X042537Y053412D03*
X043537Y053412D03*
X044537Y053412D03*
X045537Y053412D03*
X046537Y053412D03*
X047537Y053412D03*
X048412Y053412D03*
X048412Y052537D03*
X048412Y051537D03*
X048412Y050537D03*
X048412Y049537D03*
X046537Y049037D03*
X045537Y049037D03*
X045537Y049537D03*
X044912Y050037D03*
X044287Y049537D03*
X043662Y050037D03*
X043287Y049537D03*
X042662Y050037D03*
X041912Y050037D03*
X041162Y050037D03*
X041162Y050912D03*
X041787Y051537D03*
X041787Y052287D03*
X042537Y047537D03*
X042537Y046912D03*
X043537Y046912D03*
X043537Y047537D03*
X044537Y047537D03*
X044537Y046912D03*
X043662Y043537D03*
X043662Y043287D03*
D27*
X029662Y041225D02*
X029662Y041162D01*
X029037Y040537D01*
X029787Y023162D02*
X029912Y023162D01*
D28*
X031912Y023662D02*
X033041Y023662D01*
X033067Y023635D01*
X033082Y023621D01*
X033067Y023635D02*
X033064Y023635D01*
X033537Y022912D02*
X035412Y022912D01*
X036037Y023537D01*
X037912Y023537D01*
X038537Y024162D01*
X039662Y024162D01*
X040537Y025037D01*
X042287Y025037D01*
X042537Y025287D01*
X042537Y025412D01*
X040162Y027162D02*
X038162Y025162D01*
X040162Y027162D02*
X040162Y027912D01*
X036287Y029412D02*
X036287Y029912D01*
X034162Y032037D01*
X034162Y032412D01*
X032537Y031537D02*
X032037Y031537D01*
X032537Y031537D02*
X032537Y037537D01*
X032412Y037662D01*
X032037Y037662D01*
X029037Y029537D02*
X029537Y029037D01*
X029537Y028537D01*
X027226Y028601D02*
X031912Y023662D01*
X032225Y022350D02*
X034929Y022350D01*
X035520Y022350D02*
X035975Y022350D01*
X036037Y022412D01*
X036287Y021787D02*
X032162Y021787D01*
X031912Y022037D01*
X028600Y025475D01*
X033662Y027662D02*
X034537Y026787D01*
X034537Y025912D01*
X035037Y026787D02*
X034162Y027662D01*
X035037Y026787D02*
X035037Y024662D01*
X037037Y022537D02*
X036287Y021787D01*
X037037Y022537D02*
X038037Y022537D01*
X038037Y019100D02*
X041287Y019100D01*
X041537Y019350D01*
X041537Y020037D01*
X041662Y020162D01*
X043037Y020162D01*
X042662Y018725D02*
X037912Y018725D01*
X037787Y018850D01*
X037537Y018537D02*
X037725Y018350D01*
X042537Y018350D01*
X043037Y017850D01*
X043037Y017662D01*
X042537Y017662D02*
X042537Y017787D01*
X042287Y018037D01*
X037537Y018037D01*
X037037Y018537D01*
X036537Y018537D02*
X037412Y017662D01*
X042037Y017662D01*
X042662Y018725D02*
X043537Y017850D01*
X043537Y017662D01*
X045037Y025037D02*
X045537Y025037D01*
X046037Y025537D01*
X046037Y027537D01*
X045100Y027537D01*
X044350Y028287D01*
X044350Y031287D01*
X043350Y032287D01*
X043350Y032787D01*
X045475Y045912D02*
X047912Y045912D01*
X048037Y045787D01*
X047912Y046412D02*
X045475Y046412D01*
X047912Y046412D02*
X048037Y046537D01*
D29*
X036537Y042662D02*
X030287Y042662D01*
D30*
X031912Y031537D03*
X039037Y028537D03*
D31*
X041537Y028537D01*
X045037Y025537D01*
X045037Y025037D01*
X045037Y024537D01*
X039037Y028537D02*
X038537Y028037D01*
X035537Y028037D01*
X032037Y031537D01*
X031912Y031537D01*
M02*
